<svg xmlns="http://www.w3.org/2000/svg" width="17" height="12">
    <path fill-rule="evenodd" d="M13.296 4.422h-4.54c-1.409 0-2.621.824-3.237 2.017h1.179c.492-.608 1.227-1.005 2.058-1.005h2.983c-.313 1.159-1.343 2.017-2.576 2.017h-4.54c-1.479 0-2.682-1.229-2.682-2.742 0-1.511 1.203-2.741 2.682-2.741h4.54c.98 0 1.884.564 2.353 1.442h1.07c-.036-.099-.056-.202-.1-.298-.607-1.31-1.911-2.157-3.323-2.157h-4.54C2.598.955.95 2.64.95 4.709c0 2.071 1.648 3.755 3.673 3.755h4.54c1.783 0 3.27-1.306 3.602-3.03h.531c1.479 0 2.683 1.23 2.683 2.742 0 1.513-1.204 2.742-2.683 2.742h-4.54c-1.017 0-1.893-.587-2.348-1.442H5.323c.52 1.429 1.856 2.455 3.433 2.455h4.54c2.025 0 3.673-1.684 3.673-3.755 0-2.07-1.648-3.754-3.673-3.754z"/>
</svg>
