<svg 
 xmlns="http://www.w3.org/2000/svg"
 xmlns:xlink="http://www.w3.org/1999/xlink"
 width="13px" height="13px">
<path fill-rule="evenodd"  fill="rgb(0, 0, 0)"
 d="M6.500,13.000 C2.916,13.000 0.000,10.084 0.000,6.500 C0.000,2.916 2.916,0.000 6.500,0.000 C10.084,0.000 13.000,2.916 13.000,6.500 C13.000,10.084 10.084,13.000 6.500,13.000 ZM6.500,1.000 C3.467,1.000 1.000,3.467 1.000,6.500 C1.000,9.533 3.467,12.000 6.500,12.000 C9.533,12.000 12.000,9.533 12.000,6.500 C12.000,3.467 9.533,1.000 6.500,1.000 ZM3.147,6.402 L3.854,5.695 L5.801,7.643 L9.147,4.297 L9.854,5.004 L5.801,9.057 L3.147,6.402 Z"/>
</svg>