<?xml version="1.0" encoding="utf-8"?>
<!-- Generator: Adobe Illustrator 23.0.2, SVG Export Plug-In . SVG Version: 6.00 Build 0)  -->
<svg version="1.1" id="Capa_1" xmlns="http://www.w3.org/2000/svg" xmlns:xlink="http://www.w3.org/1999/xlink" x="0px" y="0px"
	 viewBox="0 0 88.35 22.96" style="enable-background:new 0 0 88.35 22.96;" xml:space="preserve">
<style type="text/css">
	.st0{fill:#3F3F3F;}
	.st1{clip-path:url(#SVGID_2_);fill:url(#SVGID_3_);}
	.st2{clip-path:url(#SVGID_5_);fill:url(#SVGID_6_);}
	.st3{clip-path:url(#SVGID_8_);fill:url(#SVGID_9_);}
	.st4{clip-path:url(#SVGID_11_);fill:url(#SVGID_12_);}
	.st5{clip-path:url(#SVGID_14_);fill:url(#SVGID_15_);}
	.st6{clip-path:url(#SVGID_17_);fill:url(#SVGID_18_);}
	.st7{clip-path:url(#SVGID_20_);fill:url(#SVGID_21_);}
	.st8{clip-path:url(#SVGID_23_);fill:url(#SVGID_24_);}
</style>
<g>
	<path d="M5.5,6.95H4.52V6.06C4.17,6.74,3.43,7.1,2.62,7.1C0.98,7.1,0,5.83,0,4.4c0-1.56,1.14-2.71,2.62-2.71
		c1.02,0,1.67,0.57,1.9,1.05v-0.9H5.5V6.95z M0.98,4.42c0.01,0.76,0.55,1.78,1.78,1.78c0.78,0,1.34-0.44,1.59-1.02
		c0.11-0.23,0.17-0.5,0.18-0.76c0.01-0.26-0.04-0.53-0.15-0.76C4.14,3.06,3.56,2.6,2.74,2.6C1.67,2.6,0.98,3.45,0.98,4.42L0.98,4.42
		z"/>
	<path d="M15.11,5.16C14.8,6.27,13.8,7.1,12.52,7.1c-1.67,0-2.73-1.29-2.73-2.71c0-1.51,1.15-2.71,2.69-2.71
		c1.22,0,2.32,0.75,2.64,1.98h-1.01c-0.26-0.68-0.9-1.07-1.59-1.07c-0.52-0.01-0.89,0.16-1.25,0.5c-0.3,0.3-0.5,0.78-0.5,1.3
		c0,1.05,0.77,1.79,1.75,1.79c0.86-0.01,1.39-0.53,1.59-1.03H15.11z"/>
	<polygon points="19.72,2.6 18.8,2.6 18.8,1.84 19.72,1.84 19.72,0 20.7,0 20.7,1.84 21.68,1.84 21.68,2.6 20.7,2.6 20.7,6.95 
		19.72,6.95 	"/>
	<path d="M25.7,0h0.97v1.03H25.7V0z M25.7,1.84h0.97v5.11H25.7V1.84z"/>
	<polygon points="33.65,6.95 32.67,6.95 30.72,1.84 31.74,1.84 33.16,5.73 34.58,1.84 35.6,1.84 	"/>
	<polygon class="st0" points="84.44,12.35 84.44,10.31 83.72,10.31 83.72,9.9 85.66,9.9 85.66,10.31 84.94,10.31 84.94,12.35 	"/>
	<polygon class="st0" points="85.98,12.35 85.98,9.9 86.72,9.9 87.16,11.57 87.6,9.9 88.35,9.9 88.35,12.35 87.89,12.35 
		87.89,10.42 87.39,12.35 86.92,12.35 86.44,10.42 86.44,12.35 	"/>
	<g>
		<defs>
			<path id="SVGID_1_" d="M2.37,17.68v-0.02c0-1.56,1.12-3.03,3.05-3.03c0.85,0,1.61,0.32,2.15,0.87c0.54,0.52,0.88,1.26,0.88,2.13
				c0.04,0.87-0.29,1.65-0.85,2.21c-0.55,0.56-1.33,0.9-2.2,0.9C3.58,20.74,2.37,19.36,2.37,17.68 M8.32,9.28v3.29v1.44
				c-0.36-0.58-1.43-1.59-3.33-1.59C2.3,12.43,0,14.47,0,17.68c0,2.89,1.97,5.28,5.03,5.28c2.03,0,2.96-1,3.4-1.74v1.43h2.26V9.28
				H8.32z"/>
		</defs>
		<clipPath id="SVGID_2_">
			<use xlink:href="#SVGID_1_"  style="overflow:visible;"/>
		</clipPath>
		
			<linearGradient id="SVGID_3_" gradientUnits="userSpaceOnUse" x1="-741.3997" y1="335.9401" x2="-739.9502" y2="335.9401" gradientTransform="matrix(0 -11.9802 -11.9802 0 4029.9714 -8854.4561)">
			<stop  offset="0" style="stop-color:#0F218B"/>
			<stop  offset="1" style="stop-color:#076FAF"/>
		</linearGradient>
		<rect y="9.28" class="st1" width="10.68" height="13.68"/>
	</g>
	<g>
		<defs>
			<path id="SVGID_4_" d="M19.28,12.73v5.48c0,1.41-0.58,2.53-2.28,2.53c-1.68,0.02-2.17-1.14-2.17-2.6v-5.4h-2.37v6
				c0,1.73,0.62,4.21,3.87,4.23c1.79,0.02,2.68-0.85,3.09-1.63v1.32h2.22v-9.92H19.28z"/>
		</defs>
		<clipPath id="SVGID_5_">
			<use xlink:href="#SVGID_4_"  style="overflow:visible;"/>
		</clipPath>
		
			<linearGradient id="SVGID_6_" gradientUnits="userSpaceOnUse" x1="-741.3668" y1="335.6745" x2="-739.9167" y2="335.6745" gradientTransform="matrix(0 -11.981 -11.981 0 4038.7786 -8854.6543)">
			<stop  offset="0" style="stop-color:#0F218B"/>
			<stop  offset="1" style="stop-color:#076FAF"/>
		</linearGradient>
		<rect x="12.47" y="12.73" class="st2" width="9.18" height="10.25"/>
	</g>
	<g>
		<defs>
			<path id="SVGID_7_" d="M25.31,17.74v-0.02c0-1.54,1.08-3.09,3-3.09c1.43,0,2.35,0.81,2.77,1.75c0.19,0.43,0.29,0.92,0.27,1.39
				c-0.04,0.49-0.14,0.96-0.38,1.39c-0.45,0.9-1.32,1.59-2.64,1.59C26.19,20.75,25.31,18.97,25.31,17.74 M22.94,17.68
				c0,2.8,1.86,5.28,5.04,5.28c1.39,0,2.71-0.58,3.34-1.74v1.43h2.37v-9.92h-2.37v1.44c-0.44-0.79-1.54-1.75-3.34-1.75
				C25.2,12.43,22.94,14.56,22.94,17.68"/>
		</defs>
		<clipPath id="SVGID_8_">
			<use xlink:href="#SVGID_7_"  style="overflow:visible;"/>
		</clipPath>
		
			<linearGradient id="SVGID_9_" gradientUnits="userSpaceOnUse" x1="-741.4042" y1="335.341" x2="-739.9551" y2="335.341" gradientTransform="matrix(0 -11.9814 -11.9814 0 4046.1704 -8855.418)">
			<stop  offset="0" style="stop-color:#0F218B"/>
			<stop  offset="1" style="stop-color:#076FAF"/>
		</linearGradient>
		<rect x="22.94" y="12.43" class="st3" width="10.75" height="10.54"/>
	</g>
	<g>
		<defs>
			<rect id="SVGID_10_" x="35.5" y="9.28" width="2.36" height="13.37"/>
		</defs>
		<clipPath id="SVGID_11_">
			<use xlink:href="#SVGID_10_"  style="overflow:visible;"/>
		</clipPath>
		
			<linearGradient id="SVGID_12_" gradientUnits="userSpaceOnUse" x1="-741.4039" y1="335.1211" x2="-739.9539" y2="335.1211" gradientTransform="matrix(0 -11.979 -11.979 0 4051.1006 -8853.6113)">
			<stop  offset="0" style="stop-color:#0F218B"/>
			<stop  offset="1" style="stop-color:#076FAF"/>
		</linearGradient>
		<rect x="35.5" y="9.28" class="st4" width="2.36" height="13.37"/>
	</g>
	<g>
		<defs>
			<polygon id="SVGID_13_" points="51.82,12.71 49.88,19.62 47.95,13.04 45.94,13.04 44.04,19.62 42.07,12.71 39.62,12.71 
				42.8,22.64 45.02,22.64 46.92,15.94 48.87,22.64 51.09,22.64 54.27,12.71 			"/>
		</defs>
		<clipPath id="SVGID_14_">
			<use xlink:href="#SVGID_13_"  style="overflow:visible;"/>
		</clipPath>
		
			<linearGradient id="SVGID_15_" gradientUnits="userSpaceOnUse" x1="-741.3613" y1="334.907" x2="-739.9114" y2="334.907" gradientTransform="matrix(0 -11.9814 -11.9814 0 4059.6001 -8854.8867)">
			<stop  offset="0" style="stop-color:#0F218B"/>
			<stop  offset="1" style="stop-color:#076FAF"/>
		</linearGradient>
		<rect x="39.62" y="12.71" class="st5" width="14.66" height="9.92"/>
	</g>
	<g>
		<defs>
			<path id="SVGID_16_" d="M56.43,17.72V17.7c0-1.53,1.08-3.09,3-3.09c1.43,0,2.35,0.81,2.77,1.75c0.2,0.44,0.29,0.93,0.27,1.4
				c-0.03,0.49-0.14,0.96-0.38,1.39c-0.45,0.9-1.32,1.59-2.64,1.59C57.31,20.74,56.43,18.95,56.43,17.72 M54.06,17.67
				c0,2.8,1.86,5.27,5.05,5.27c1.39,0,2.71-0.57,3.34-1.73v1.43h2.37v-9.92h-2.37v1.45c-0.43-0.8-1.53-1.75-3.34-1.75
				C56.32,12.41,54.06,14.54,54.06,17.67"/>
		</defs>
		<clipPath id="SVGID_17_">
			<use xlink:href="#SVGID_16_"  style="overflow:visible;"/>
		</clipPath>
		
			<linearGradient id="SVGID_18_" gradientUnits="userSpaceOnUse" x1="-741.3595" y1="334.5781" x2="-739.9103" y2="334.5781" gradientTransform="matrix(0 -11.9781 -11.9781 0 4067.0452 -8852.4219)">
			<stop  offset="0" style="stop-color:#0F218B"/>
			<stop  offset="1" style="stop-color:#076FAF"/>
		</linearGradient>
		<rect x="54.06" y="12.41" class="st6" width="10.76" height="10.54"/>
	</g>
	<g>
		<defs>
			<path id="SVGID_19_" d="M66.17,15.57c0.02,1.42,1.1,2.17,2.44,2.58c1.83,0.63,2.57,0.87,2.57,1.72c0.01,0.67-0.62,1.16-1.36,1.16
				c-0.45,0-1.37-0.22-1.46-1.28h-2.37c0.18,2.41,2.26,3.2,3.8,3.2c2.07,0,3.8-1.3,3.76-3.34c-0.02-2.13-1.74-2.61-3.33-3.04
				c-0.94-0.27-1.66-0.61-1.68-1.25c0-0.49,0.38-1,1.17-1c0.92,0,1.19,0.54,1.21,1.07h2.33c-0.2-2.39-2.19-2.99-3.53-2.99
				C67.81,12.41,66.17,13.62,66.17,15.57"/>
		</defs>
		<clipPath id="SVGID_20_">
			<use xlink:href="#SVGID_19_"  style="overflow:visible;"/>
		</clipPath>
		
			<linearGradient id="SVGID_21_" gradientUnits="userSpaceOnUse" x1="-741.3595" y1="334.3088" x2="-739.9103" y2="334.3088" gradientTransform="matrix(0 -11.9781 -11.9781 0 4074.1702 -8852.4219)">
			<stop  offset="0" style="stop-color:#0F218B"/>
			<stop  offset="1" style="stop-color:#076FAF"/>
		</linearGradient>
		<rect x="65.99" y="12.41" class="st7" width="7.59" height="10.54"/>
	</g>
	<g>
		<defs>
			<path id="SVGID_22_" d="M74.77,9.26v13.38h2.37v-5.55c0-0.5,0.09-1.1,0.41-1.59c0.33-0.48,0.89-0.87,1.83-0.87
				c0.83,0,1.37,0.31,1.72,0.78c0.33,0.47,0.45,1.12,0.45,1.88v5.35h2.37v-5.46c0-1.34-0.18-2.51-0.78-3.38
				c-0.58-0.87-1.54-1.39-3.08-1.39c-1.17-0.02-2.36,0.43-2.92,1.49v-1.41V9.26H74.77z"/>
		</defs>
		<clipPath id="SVGID_23_">
			<use xlink:href="#SVGID_22_"  style="overflow:visible;"/>
		</clipPath>
		
			<linearGradient id="SVGID_24_" gradientUnits="userSpaceOnUse" x1="-741.3546" y1="334.0714" x2="-739.9045" y2="334.0714" gradientTransform="matrix(0 -11.9802 -11.9802 0 4081.5886 -8853.9326)">
			<stop  offset="0" style="stop-color:#0F218B"/>
			<stop  offset="1" style="stop-color:#076FAF"/>
		</linearGradient>
		<rect x="74.77" y="9.26" class="st8" width="9.14" height="13.38"/>
	</g>
</g>
</svg>
