<?xml version="1.0" encoding="utf-8"?>
<!-- Generator: Adobe Illustrator 23.0.2, SVG Export Plug-In . SVG Version: 6.00 Build 0)  -->
<svg version="1.1" id="Capa_1" xmlns="http://www.w3.org/2000/svg" xmlns:xlink="http://www.w3.org/1999/xlink" x="0px" y="0px"
	 viewBox="0 0 85 12.76" style="enable-background:new 0 0 85 12.76;" xml:space="preserve">
<g>
	<g>
		<path d="M6.02,3.01L4.26,8.04h3.57L6.02,3.01z M2.72,12.47H0L5.03,0.06h2.2l4.92,12.41H9.41L8.5,10.04h-4.9L2.72,12.47z"/>
		<path d="M15.08,7.86c0,1.56,1.12,2.83,2.82,2.83c0.8,0,1.53-0.32,2.05-0.84c0.52-0.52,0.82-1.24,0.79-2.05
			c0-0.81-0.32-1.49-0.82-1.98c-0.5-0.5-1.21-0.81-2-0.81c-1.8,0-2.84,1.38-2.84,2.82V7.86z M22.8,12.47h-2.1v-1.33
			c-0.4,0.69-1.27,1.61-3.15,1.61c-2.84,0-4.66-2.21-4.66-4.9c0-2.99,2.13-4.88,4.63-4.88c1.76,0,2.75,0.94,3.09,1.48V3.11V0.06h2.2
			V12.47z"/>
		<path d="M26.71,7.86c0,1.56,1.13,2.83,2.82,2.83c0.8,0,1.53-0.32,2.05-0.84c0.52-0.52,0.82-1.24,0.79-2.05
			c0-0.81-0.32-1.49-0.82-1.98c-0.5-0.5-1.21-0.81-2-0.81c-1.8,0-2.84,1.38-2.84,2.82V7.86z M34.42,12.47h-2.1v-1.33
			c-0.4,0.69-1.27,1.61-3.15,1.61c-2.84,0-4.66-2.21-4.66-4.9c0-2.99,2.13-4.88,4.63-4.88c1.76,0,2.75,0.94,3.09,1.48V3.11V0.06h2.2
			V12.47z"/>
		<polygon points="35.75,0.06 37.17,0.06 39.99,10.58 42.71,0.06 43.75,0.06 46.52,10.58 49.3,0.06 50.71,0.06 47.24,12.47 
			45.88,12.47 43.23,2.39 40.58,12.47 39.19,12.47 		"/>
		<path d="M51.87,7.98c0.02,1.63,1.14,3.59,3.62,3.59c1.59,0,2.77-0.92,3.26-2.2c0.2-0.44,0.3-0.94,0.3-1.43
			c0.02-0.5-0.08-1.01-0.28-1.44c-0.5-1.24-1.71-2.17-3.31-2.17c-2.08,0-3.59,1.61-3.59,3.62V7.98z M60.26,12.47h-1.24v-1.86
			c-0.71,1.36-2.08,2.11-3.69,2.11c-2.94,0-4.68-2.28-4.68-4.77c0-2.65,1.93-4.76,4.68-4.76c1.93,0,3.25,1.12,3.69,2.15v-1.9h1.24
			V12.47z"/>
		<path d="M66.73,5.71c0-0.96-0.64-1.49-1.54-1.49c-0.99,0-1.59,0.67-1.56,1.46c0.03,0.86,0.69,1.21,1.78,1.53
			c1.29,0.35,2.73,0.72,2.8,2.65c0.07,1.66-1.28,2.87-2.99,2.87c-1.46,0-3.07-0.92-3.09-2.82h1.22c0.05,1.24,0.97,1.79,1.88,1.79
			c1.04,0,1.76-0.77,1.74-1.69c-0.03-1.02-0.7-1.44-2.26-1.9c-1.29-0.39-2.3-0.91-2.33-2.33c0-1.63,1.29-2.58,2.82-2.58
			c1.26,0,2.67,0.69,2.75,2.52H66.73z"/>
		<path d="M70.22,0.06h1.24v3.31v1.56c0.55-1.19,1.95-1.76,3.22-1.73c1.43,0,2.37,0.45,2.99,1.24c0.62,0.79,0.86,1.88,0.86,3.17
			v4.87H77.3V7.66c0-0.97-0.2-1.79-0.65-2.38c-0.49-0.59-1.19-0.92-2.27-0.92c-0.99,0-1.73,0.35-2.2,0.89
			c-0.49,0.54-0.72,1.27-0.72,2.1v5.13h-1.24V0.06z"/>
	</g>
	<g>
		<path d="M81.74,0.51h-0.74v2.47h-0.57V0.51h-0.74V0h1.31h0.74V0.51z"/>
		<path d="M85,0v2.98h-0.55V0.91L83.86,2.4h-0.59l-0.6-1.49v2.07h-0.54V0h0.68l0.76,1.88L84.31,0H85z"/>
	</g>
</g>
</svg>
