<?xml version="1.0" encoding="utf-8"?>
<!-- Generator: Adobe Illustrator 23.0.2, SVG Export Plug-In . SVG Version: 6.00 Build 0)  -->
<svg version="1.1" id="Capa_1" xmlns="http://www.w3.org/2000/svg" xmlns:xlink="http://www.w3.org/1999/xlink" x="0px" y="0px"
	 viewBox="0 0 56.51 56.69" style="enable-background:new 0 0 56.51 56.69;" xml:space="preserve">
<g>
	<g>
		<path d="M3.18,53.76H1.04l-0.48,1.39H0l1.82-5.09h0.59l1.82,5.09H3.66L3.18,53.76z M3.02,53.29l-0.91-2.66l-0.91,2.66H3.02z"/>
		<path d="M4.93,54.38v-4.64h0.51v4.62c0,0.13,0.03,0.23,0.09,0.28c0.06,0.06,0.16,0.09,0.29,0.09c0.08,0,0.17-0.01,0.28-0.03
			l0.05,0.43c-0.14,0.04-0.29,0.06-0.44,0.06C5.19,55.19,4.93,54.92,4.93,54.38z"/>
		<path d="M6.93,54.38v-4.64h0.51v4.62c0,0.13,0.03,0.23,0.09,0.28c0.06,0.06,0.16,0.09,0.29,0.09c0.08,0,0.17-0.01,0.28-0.03
			l0.05,0.43c-0.14,0.04-0.29,0.06-0.44,0.06C7.19,55.19,6.93,54.92,6.93,54.38z"/>
		<path d="M8.54,52.84h2.04v0.46H8.54V52.84z"/>
		<path d="M13.57,51.61c0.25,0.2,0.37,0.5,0.37,0.89v2.66h-0.47v-0.46c-0.24,0.36-0.62,0.53-1.13,0.53c-0.37,0-0.66-0.1-0.87-0.3
			c-0.21-0.2-0.31-0.47-0.31-0.82c0-0.44,0.19-0.77,0.55-0.99c0.37-0.21,0.94-0.32,1.72-0.33v-0.26c0-0.24-0.08-0.43-0.23-0.56
			c-0.15-0.13-0.37-0.19-0.66-0.19c-0.3,0-0.6,0.07-0.89,0.2l-0.13-0.43c0.33-0.17,0.69-0.25,1.07-0.25
			C13,51.3,13.33,51.41,13.57,51.61z M12.99,54.65c0.16-0.07,0.31-0.19,0.44-0.34v-1.09c-0.6,0-1.05,0.08-1.33,0.22
			c-0.29,0.14-0.43,0.35-0.43,0.64c0,0.22,0.07,0.4,0.2,0.51c0.13,0.12,0.33,0.17,0.58,0.17C12.65,54.76,12.83,54.72,12.99,54.65z"
			/>
		<path d="M17.04,51.41l-0.12,0.5c-0.18-0.05-0.34-0.08-0.49-0.08c-0.18,0-0.34,0.04-0.48,0.12c-0.14,0.08-0.26,0.2-0.37,0.37v2.83
			h-0.51V51.4h0.47v0.52c0.27-0.4,0.61-0.6,1.03-0.6C16.74,51.32,16.89,51.35,17.04,51.41z"/>
		<path d="M17.73,54.74c-0.27-0.34-0.4-0.82-0.4-1.47c0-0.64,0.13-1.13,0.4-1.46c0.27-0.33,0.65-0.5,1.15-0.5
			c0.5,0,0.88,0.17,1.14,0.5c0.27,0.34,0.4,0.82,0.4,1.46c0,0.64-0.13,1.13-0.4,1.47c-0.27,0.33-0.65,0.5-1.15,0.5
			C18.38,55.24,18,55.07,17.73,54.74z M19.64,54.4c0.17-0.26,0.26-0.63,0.26-1.13c0-0.5-0.09-0.87-0.26-1.13
			c-0.17-0.25-0.43-0.38-0.76-0.38c-0.34,0-0.59,0.13-0.77,0.38c-0.17,0.26-0.26,0.63-0.26,1.13c0,0.5,0.09,0.87,0.26,1.13
			c0.17,0.25,0.43,0.38,0.76,0.38C19.21,54.78,19.47,54.65,19.64,54.4z"/>
		<path d="M24.05,51.4v3.75h-0.47V54.7c-0.28,0.36-0.65,0.54-1.13,0.54c-0.36,0-0.64-0.1-0.84-0.32c-0.2-0.21-0.3-0.5-0.3-0.87V51.4
			h0.51v2.62c0,0.24,0.07,0.42,0.2,0.54c0.13,0.12,0.32,0.19,0.58,0.19c0.2,0,0.37-0.03,0.53-0.1c0.15-0.07,0.3-0.18,0.44-0.34V51.4
			H24.05z"/>
		<path d="M27.71,51.62c0.21,0.21,0.31,0.5,0.31,0.87v2.66h-0.51v-2.62c0-0.24-0.07-0.42-0.2-0.54c-0.14-0.12-0.33-0.19-0.59-0.19
			c-0.19,0-0.36,0.03-0.52,0.09c-0.16,0.06-0.31,0.15-0.46,0.28v2.98h-0.51V51.4h0.47v0.4c0.31-0.33,0.7-0.49,1.15-0.49
			C27.22,51.3,27.51,51.41,27.71,51.62z"/>
		<path d="M31.88,49.74v5.12v0.29h-0.47v-0.48c-0.13,0.19-0.28,0.33-0.47,0.42c-0.19,0.1-0.39,0.14-0.62,0.14
			c-0.44,0-0.79-0.17-1.04-0.53c-0.25-0.35-0.37-0.84-0.37-1.47c0-0.61,0.13-1.08,0.4-1.43c0.26-0.34,0.63-0.51,1.1-0.51
			c0.19,0,0.37,0.04,0.54,0.11c0.17,0.07,0.31,0.18,0.43,0.32v-1.99H31.88z M30.94,54.64c0.15-0.07,0.29-0.19,0.43-0.35V52.2
			c-0.12-0.14-0.27-0.24-0.44-0.32c-0.17-0.08-0.35-0.12-0.53-0.12c-0.32,0-0.56,0.12-0.72,0.37c-0.16,0.25-0.25,0.62-0.25,1.1
			c0,0.5,0.09,0.87,0.26,1.12c0.17,0.25,0.42,0.38,0.76,0.38C30.63,54.75,30.79,54.71,30.94,54.64z"/>
		<path d="M35.3,54.93c-0.34-0.2-0.59-0.49-0.77-0.87c-0.18-0.38-0.27-0.83-0.27-1.35c0-0.54,0.09-1.02,0.27-1.44
			c0.18-0.42,0.44-0.74,0.77-0.96c0.33-0.22,0.72-0.34,1.16-0.34c0.22,0,0.45,0.03,0.67,0.08c0.22,0.06,0.43,0.14,0.61,0.25
			l-0.2,0.43c-0.38-0.18-0.75-0.27-1.1-0.27c-0.52,0-0.92,0.19-1.21,0.58c-0.29,0.39-0.44,0.93-0.44,1.62c0,0.68,0.15,1.2,0.44,1.56
			c0.29,0.35,0.73,0.53,1.3,0.53c0.42,0,0.77-0.08,1.05-0.25l0.2,0.42c-0.15,0.1-0.33,0.18-0.56,0.24
			c-0.23,0.05-0.47,0.08-0.73,0.08C36.04,55.23,35.64,55.13,35.3,54.93z"/>
		<path d="M38.61,54.74c-0.27-0.34-0.4-0.82-0.4-1.47c0-0.64,0.13-1.13,0.4-1.46c0.27-0.33,0.65-0.5,1.15-0.5
			c0.5,0,0.88,0.17,1.14,0.5c0.27,0.34,0.4,0.82,0.4,1.46c0,0.64-0.13,1.13-0.4,1.47c-0.27,0.33-0.65,0.5-1.15,0.5
			C39.26,55.24,38.88,55.07,38.61,54.74z M40.52,54.4c0.17-0.26,0.26-0.63,0.26-1.13c0-0.5-0.09-0.87-0.26-1.13
			c-0.17-0.25-0.43-0.38-0.76-0.38c-0.34,0-0.59,0.13-0.77,0.38c-0.17,0.26-0.26,0.63-0.26,1.13c0,0.5,0.09,0.87,0.26,1.13
			c0.17,0.25,0.43,0.38,0.76,0.38C40.1,54.78,40.35,54.65,40.52,54.4z"/>
		<path d="M42.38,54.74c-0.27-0.34-0.4-0.82-0.4-1.47c0-0.64,0.13-1.13,0.4-1.46c0.27-0.33,0.65-0.5,1.15-0.5
			c0.5,0,0.88,0.17,1.14,0.5c0.27,0.34,0.4,0.82,0.4,1.46c0,0.64-0.13,1.13-0.4,1.47c-0.27,0.33-0.65,0.5-1.15,0.5
			C43.02,55.24,42.64,55.07,42.38,54.74z M44.29,54.4c0.17-0.26,0.26-0.63,0.26-1.13c0-0.5-0.09-0.87-0.26-1.13
			c-0.17-0.25-0.43-0.38-0.76-0.38c-0.34,0-0.59,0.13-0.77,0.38c-0.17,0.26-0.26,0.63-0.26,1.13c0,0.5,0.09,0.87,0.26,1.13
			c0.17,0.25,0.43,0.38,0.76,0.38C43.86,54.78,44.11,54.65,44.29,54.4z"/>
		<path d="M45.98,54.38v-4.64h0.51v4.62c0,0.13,0.03,0.23,0.09,0.28c0.06,0.06,0.16,0.09,0.29,0.09c0.08,0,0.17-0.01,0.28-0.03
			l0.05,0.43c-0.14,0.04-0.29,0.06-0.44,0.06C46.25,55.19,45.98,54.92,45.98,54.38z"/>
		<path d="M48.13,50.62c-0.06-0.07-0.1-0.16-0.1-0.27c0-0.12,0.03-0.22,0.1-0.28c0.06-0.07,0.15-0.1,0.27-0.1s0.21,0.03,0.27,0.1
			c0.06,0.07,0.1,0.16,0.1,0.27c0,0.12-0.03,0.22-0.1,0.28c-0.06,0.07-0.15,0.1-0.27,0.1S48.19,50.69,48.13,50.62z M48.15,51.4h0.51
			v3.75h-0.51V51.4z"/>
		<path d="M52.33,51.62c0.21,0.21,0.31,0.5,0.31,0.87v2.66h-0.51v-2.62c0-0.24-0.07-0.42-0.2-0.54c-0.14-0.12-0.33-0.19-0.59-0.19
			c-0.19,0-0.36,0.03-0.52,0.09c-0.16,0.06-0.31,0.15-0.46,0.28v2.98h-0.51V51.4h0.47v0.4c0.31-0.33,0.7-0.49,1.15-0.49
			C51.84,51.3,52.12,51.41,52.33,51.62z"/>
		<path d="M56.51,51.4v3.78c0,0.48-0.14,0.85-0.43,1.12c-0.29,0.27-0.68,0.4-1.19,0.4c-0.19,0-0.37-0.02-0.55-0.06
			c-0.18-0.04-0.33-0.09-0.46-0.15l0.15-0.46c0.26,0.13,0.55,0.2,0.86,0.2c0.37,0,0.64-0.09,0.83-0.27
			c0.19-0.18,0.28-0.44,0.28-0.78v-0.67c-0.25,0.35-0.61,0.52-1.06,0.52c-0.44,0-0.79-0.17-1.05-0.5c-0.25-0.33-0.38-0.8-0.38-1.39
			c0-0.58,0.13-1.03,0.4-1.35c0.27-0.32,0.64-0.49,1.11-0.49c0.21,0,0.4,0.04,0.57,0.13c0.17,0.08,0.32,0.2,0.44,0.36V51.4H56.51z
			 M55.58,54.43c0.15-0.07,0.29-0.19,0.43-0.35V52.2c-0.13-0.14-0.27-0.25-0.44-0.32c-0.17-0.07-0.35-0.11-0.53-0.11
			c-0.32,0-0.57,0.12-0.73,0.34c-0.17,0.23-0.25,0.57-0.25,1.03c0,0.46,0.09,0.81,0.26,1.04c0.17,0.24,0.43,0.35,0.77,0.35
			C55.26,54.54,55.43,54.5,55.58,54.43z"/>
	</g>
	<rect x="23.07" y="6.26" width="10.16" height="1.52"/>
	<rect x="23.01" y="17.6" width="10.16" height="1.53"/>
	<rect x="22.95" y="29.22" width="10.16" height="1.52"/>
	<g>
		<path d="M11.4,37.7h33.85V1.9H11.4V37.7z M46.2,39.6H10.45c-0.52,0-0.95-0.42-0.95-0.95V0.95C9.5,0.42,9.93,0,10.45,0H46.2
			c0.52,0,0.95,0.42,0.95,0.95v37.7C47.14,39.18,46.72,39.6,46.2,39.6"/>
		<path d="M14.65,8.77c0,1.15,1.93,2.14,4.69,2.43v-0.78l2.44,1.64l-2.44,1.48v-0.78c-2.76-0.29-4.69-1.29-4.69-2.43V8.77z"/>
		<path d="M20.9,7.82c-2.7,0-5.1,0.7-5.94,1.73c-1.08-1.32,0.71-2.73,3.99-3.17c0.63-0.08,1.29-0.12,1.95-0.12V7.82z"/>
		<path d="M14.65,8.77c0,1.15,1.93,2.14,4.69,2.43v-0.78l2.44,1.64l-2.44,1.48v-0.78c-2.76-0.29-4.69-1.29-4.69-2.43V8.77
			c0-1.39,2.8-2.51,6.25-2.51v1.56c-2.7,0-5.1,0.7-5.94,1.73"/>
		<path d="M41.77,8.77c0,1.15-1.93,2.14-4.69,2.43v-0.78l-2.44,1.64l2.44,1.48v-0.78c2.76-0.29,4.69-1.29,4.69-2.43V8.77z"/>
		<path d="M35.52,7.82c2.7,0,5.09,0.7,5.94,1.73c1.07-1.32-0.71-2.73-3.99-3.17c-0.63-0.08-1.29-0.12-1.95-0.12V7.82z"/>
		<path d="M41.77,8.77c0,1.15-1.93,2.14-4.69,2.43v-0.78l-2.44,1.64l2.44,1.48v-0.78c2.76-0.29,4.69-1.29,4.69-2.43V8.77
			c0-1.39-2.8-2.51-6.25-2.51v1.56c2.7,0,5.09,0.7,5.94,1.73"/>
		<path d="M14.71,20.11c0,1.15,1.93,2.14,4.68,2.43v-0.78l2.44,1.65l-2.44,1.48V24.1c-2.76-0.29-4.68-1.29-4.68-2.43V20.11z"/>
		<path d="M20.96,19.17c-2.7,0-5.1,0.7-5.94,1.72c-1.07-1.31,0.71-2.73,3.99-3.16c0.63-0.08,1.29-0.13,1.95-0.13V19.17z"/>
		<path d="M14.71,20.11c0,1.15,1.93,2.14,4.68,2.43v-0.78l2.44,1.65l-2.44,1.48V24.1c-2.76-0.29-4.68-1.29-4.68-2.43V20.11
			c0-1.38,2.8-2.51,6.25-2.51v1.57c-2.7,0-5.1,0.7-5.94,1.72"/>
		<path d="M41.83,20.11c0,1.15-1.93,2.14-4.69,2.43v-0.78l-2.44,1.65l2.44,1.48V24.1c2.76-0.29,4.69-1.29,4.69-2.43V20.11z"/>
		<path d="M35.58,19.17c2.7,0,5.1,0.7,5.94,1.72c1.07-1.31-0.71-2.73-3.99-3.16c-0.63-0.08-1.28-0.13-1.95-0.13V19.17z"/>
		<path d="M41.83,20.11c0,1.15-1.93,2.14-4.69,2.43v-0.78l-2.44,1.65l2.44,1.48V24.1c2.76-0.29,4.69-1.29,4.69-2.43V20.11
			c0-1.38-2.8-2.51-6.25-2.51v1.57c2.7,0,5.1,0.7,5.94,1.72"/>
		<path d="M14.42,31.73c0,1.14,1.93,2.14,4.68,2.43v-0.78l2.44,1.64L19.1,36.5v-0.78c-2.76-0.28-4.68-1.28-4.68-2.43V31.73z"/>
		<path d="M20.66,30.78c-2.7,0-5.1,0.7-5.94,1.73c-1.08-1.32,0.71-2.73,3.99-3.16c0.63-0.08,1.29-0.12,1.95-0.12V30.78z"/>
		<path d="M14.42,31.73c0,1.14,1.93,2.14,4.68,2.43v-0.78l2.44,1.64L19.1,36.5v-0.78c-2.76-0.28-4.68-1.28-4.68-2.43V31.73
			c0-1.39,2.8-2.51,6.25-2.51v1.56c-2.7,0-5.1,0.7-5.94,1.73"/>
		<path d="M41.53,31.73c0,1.14-1.93,2.14-4.68,2.43v-0.78l-2.44,1.64l2.44,1.48v-0.78c2.76-0.28,4.68-1.28,4.68-2.43V31.73z"/>
		<path d="M35.29,30.78c2.7,0,5.1,0.7,5.94,1.73c1.08-1.32-0.71-2.73-3.99-3.16c-0.63-0.08-1.28-0.12-1.95-0.12V30.78z"/>
		<path d="M41.53,31.73c0,1.14-1.93,2.14-4.68,2.43v-0.78l-2.44,1.64l2.44,1.48v-0.78c2.76-0.28,4.68-1.28,4.68-2.43V31.73
			c0-1.39-2.8-2.51-6.25-2.51v1.56c2.7,0,5.1,0.7,5.94,1.73"/>
	</g>
</g>
</svg>
