<?xml version="1.0" encoding="utf-8"?>
<!-- Generator: Adobe Illustrator 23.0.2, SVG Export Plug-In . SVG Version: 6.00 Build 0)  -->
<svg version="1.1" id="Capa_1" xmlns="http://www.w3.org/2000/svg" xmlns:xlink="http://www.w3.org/1999/xlink" x="0px" y="0px"
	 viewBox="0 0 58.96 36.85" style="enable-background:new 0 0 58.96 36.85;" xml:space="preserve">
<style type="text/css">
	.st0{fill:#FFFFFF;}
	.st1{fill:#2859A6;}
	.st2{fill:#A4A49D;}
	.st3{fill:#FC1921;}
</style>
<g>
	<path class="st0" d="M58.96,9.98c0-1.18-1.07-2.14-2.4-2.14h-6.52c-1.32,0-2.4,0.96-2.4,2.14c0,0.02,0,1.17,0,1.17H35.36
		c-0.16-2.51-2.22-3.99-4.72-3.92H30.3c0.31-0.65,0.5-1.4,0.5-2.16C30.8,2.26,28.58,0,25.62,0c-2.35,0-4.39,1.27-5.1,3.28
		c-2.16,0.11-3.52,2.06-3.52,4.24v0.26c-0.06,2.2,1.68,3.81,3.7,4.05c-1.17,1.85-0.95,4.68-0.95,4.68c0.11,1.85,0.73,3.51,1.91,4.8
		H8.49c-0.22-0.61-0.62-1.14-1.12-1.54c-0.35-0.28-0.76-0.49-1.2-0.63c-0.33-0.1-0.72-0.14-1.28-0.16C4.33,18.96,3.78,19,3.55,19.02
		c-0.5,0.05-0.95,0.16-1.34,0.31c-1.55,0.61-2.23,1.99-2.2,3.91c0.02,1.17,0.39,2.52,1.36,3.33c-0.01,0.01-0.02,0.02-0.03,0.02
		c-0.31,0.17-0.58,0.39-0.79,0.65c-0.43,0.49-0.51,1-0.54,1.74c-0.01,0.33,0,1.08,0,1.16c0,1.53,1.3,2.77,2.91,2.89
		c0.03,0,0.06,0.01,0.09,0.02c0.37,0.05,0.95,0.01,1.38,0h43.88v1.62c0,0.01,0.01,0.27,0.02,0.28c0.13,1.01,1.05,1.8,2.2,1.88
		c0.01,0,4.16,0.01,4.16,0.01c0.15,0,0.27-0.02,0.37-0.04c0.58-0.1,1.09-0.39,1.44-0.79c0.13-0.15,0.24-0.32,0.33-0.5
		c0.17-0.37,0.18-0.75,0.18-0.75V15.8c0.19,0,0.32,0,0.33,0c1.05-0.02,1.67-0.73,1.67-1.64V9.98z"/>
	<path class="st1" d="M5.91,25.53l-2.36-0.84c-0.6-0.23-0.79-0.56-0.8-1.34v-0.21c0-0.51,0.12-0.81,0.33-1
		c0.22-0.2,0.59-0.31,1.16-0.31h0.53c0.73,0.03,1.05,0.22,1.07,0.87c0,0.19,0.04,0.38,0.18,0.53c0.13,0.15,0.34,0.23,0.58,0.23
		c0.24,0,0.45-0.08,0.58-0.23c0.13-0.15,0.18-0.34,0.18-0.53c0-0.78-0.25-1.39-0.72-1.78c-0.47-0.38-1.11-0.54-1.88-0.54H4.24
		c-0.97,0-1.73,0.23-2.25,0.71c-0.52,0.49-0.77,1.19-0.77,2.05v0.21c-0.01,1.02,0.32,2.24,1.71,2.73L3,25.89l-0.07,0.2l2.56,0.9
		c0.49,0.17,0.72,0.6,0.73,1.33v0.52c-0.04,1-0.37,1.43-1.5,1.46H3.69c-0.73-0.03-1.05-0.23-1.07-0.87c0-0.18-0.05-0.38-0.18-0.53
		c-0.13-0.15-0.34-0.23-0.58-0.23c-0.24,0-0.45,0.08-0.58,0.23c-0.13,0.15-0.18,0.34-0.18,0.53c0,0.79,0.25,1.4,0.72,1.78
		c0.47,0.39,1.12,0.55,1.88,0.55h1.04c0.98,0,1.74-0.29,2.25-0.8c0.51-0.52,0.76-1.26,0.76-2.12v-0.52
		C7.76,26.99,7.11,25.95,5.91,25.53 M12.19,23.27h-1.71c-0.18,0-0.36,0.04-0.51,0.16c-0.15,0.12-0.23,0.33-0.23,0.55
		c0,0.22,0.08,0.42,0.23,0.54c0.15,0.13,0.33,0.16,0.51,0.16h1.71c0.72,0.04,1.06,0.23,1.08,1.08v0.25h-1.71
		c-0.76,0-1.4,0.16-1.86,0.52c-0.47,0.37-0.72,0.94-0.71,1.65v1.23c0,0.72,0.25,1.29,0.71,1.65c0.46,0.36,1.1,0.52,1.86,0.52h2.45
		c0.24,0,0.44-0.08,0.58-0.23c0.13-0.15,0.18-0.34,0.18-0.53v-5.1c0-0.72-0.24-1.35-0.7-1.79C13.62,23.52,12.96,23.27,12.19,23.27
		 M13.27,30.18h-1.71c-0.73-0.02-1.08-0.29-1.08-0.75v-1.2c0.01-0.49,0.35-0.76,1.08-0.78h1.71V30.18z M22.3,23.27h-5.02
		c-0.24,0-0.45,0.08-0.58,0.23c-0.13,0.15-0.17,0.35-0.17,0.53V31c0,0.18,0.04,0.37,0.17,0.52c0.13,0.16,0.34,0.24,0.58,0.24
		c0.24,0,0.45-0.08,0.58-0.24c0.13-0.15,0.17-0.34,0.17-0.52v-6.3h2.14V31c0,0.18,0.04,0.37,0.17,0.52
		c0.13,0.16,0.34,0.24,0.58,0.24h0.01c0.23,0,0.44-0.08,0.56-0.24c0.13-0.15,0.17-0.34,0.17-0.52v-6.3h0.64
		c1.12,0.04,1.46,0.5,1.5,1.5v4.79c0,0.18,0.04,0.37,0.16,0.53c0.13,0.15,0.34,0.23,0.58,0.23s0.45-0.08,0.58-0.23
		c0.13-0.16,0.17-0.35,0.17-0.53v-4.79c0-0.86-0.24-1.6-0.74-2.12C24.04,23.55,23.28,23.27,22.3,23.27 M31.04,26.96l-2.07-0.54
		c-0.41-0.11-0.59-0.33-0.61-0.69v-0.44c0.01-0.46,0.37-0.76,1.08-0.78h0.4c0.67,0.02,0.87,0.21,0.9,0.58
		c0.01,0.18,0.05,0.36,0.17,0.51c0.12,0.16,0.33,0.24,0.57,0.24c0.24,0,0.45-0.08,0.58-0.24c0.13-0.15,0.17-0.34,0.17-0.53
		c0.01-0.65-0.24-1.18-0.67-1.5c-0.43-0.33-1.03-0.46-1.73-0.46h-0.4c-0.76,0-1.4,0.16-1.86,0.53c-0.47,0.36-0.72,0.93-0.72,1.65
		v0.44c-0.01,1.05,0.57,1.75,1.47,1.98l2.09,0.55c0.39,0.12,0.58,0.32,0.59,0.68v0.64c0,0.47-0.37,0.76-1.08,0.78h-0.78
		c-0.66-0.02-0.86-0.21-0.9-0.57c-0.01-0.18-0.05-0.36-0.17-0.51c-0.12-0.16-0.33-0.24-0.57-0.24c-0.24,0-0.45,0.08-0.58,0.24
		c-0.13,0.15-0.17,0.34-0.17,0.52c0,0.65,0.24,1.18,0.67,1.5c0.43,0.32,1.02,0.46,1.72,0.46h0.78c0.76,0,1.4-0.16,1.86-0.53
		c0.46-0.37,0.71-0.94,0.71-1.65v-0.64C32.52,27.9,31.95,27.19,31.04,26.96 M39.24,23.12c-0.24-0.01-0.45,0.08-0.58,0.23
		c-0.13,0.16-0.17,0.34-0.17,0.53v6.3h-1.53c-1.12-0.03-1.46-0.49-1.5-1.49V23.9c0-0.19-0.04-0.38-0.16-0.53
		c-0.13-0.16-0.34-0.24-0.58-0.23c-0.24,0-0.45,0.08-0.58,0.23c-0.13,0.15-0.17,0.34-0.17,0.53v4.79c0,0.86,0.24,1.6,0.74,2.12
		c0.51,0.52,1.27,0.8,2.25,0.8h2.28c0.23,0,0.44-0.08,0.57-0.23c0.13-0.15,0.17-0.34,0.17-0.52v-6.97c0-0.18-0.04-0.37-0.17-0.53
		C39.68,23.2,39.48,23.11,39.24,23.12 M44.89,23.27h-2.27c-0.24,0-0.45,0.08-0.58,0.23c-0.13,0.15-0.17,0.35-0.17,0.53V31
		c0,0.18,0.04,0.37,0.17,0.52c0.13,0.16,0.34,0.24,0.58,0.24h0.01c0.24,0,0.44-0.08,0.57-0.24c0.13-0.15,0.17-0.34,0.17-0.52v-6.3
		h1.53c1.12,0.04,1.46,0.5,1.5,1.5v4.79c0,0.18,0.04,0.37,0.17,0.53c0.13,0.15,0.34,0.23,0.58,0.23c0.24,0,0.45-0.08,0.58-0.23
		c0.13-0.16,0.17-0.35,0.17-0.53v-4.79c0-0.86-0.24-1.6-0.74-2.12C46.63,23.55,45.87,23.27,44.89,23.27 M55.31,23.5
		c-0.13-0.15-0.34-0.23-0.58-0.23h-2.23c-0.98,0-1.76,0.33-2.27,0.9c-0.51,0.57-0.76,1.36-0.76,2.25v2.27c0,0.86,0.23,1.6,0.74,2.12
		c0.51,0.52,1.27,0.8,2.25,0.8h1.52v0.66c-0.02,1.05-0.45,1.7-1.54,1.72h-1.4c-0.18,0-0.36,0.04-0.51,0.16
		c-0.15,0.12-0.23,0.33-0.23,0.55c0,0.22,0.08,0.42,0.23,0.55c0.15,0.12,0.33,0.16,0.51,0.16h1.41c0.98,0,1.75-0.33,2.26-0.9
		c0.52-0.57,0.76-1.36,0.76-2.24v-8.23C55.48,23.85,55.44,23.66,55.31,23.5 M53.98,30.18h-1.52c-1.12-0.03-1.46-0.49-1.5-1.49v-2.27
		c0.03-1.05,0.45-1.71,1.54-1.72h1.48V30.18z"/>
	<path class="st2" d="M27.65,7.82c0.84-0.69,1.32-1.7,1.32-2.78c0-0.04,0-0.07,0-0.11c-0.06-1.95-1.67-3.49-3.61-3.49
		c-0.04,0-0.07,0-0.11,0c-1.73,0.06-3.17,1.32-3.45,3.02c-0.14-0.02-0.29-0.04-0.43-0.04c-0.03,0-0.06,0-0.09,0
		c-1.53,0.05-2.74,1.3-2.74,2.82c0,0.02,0,0.06,0,0.09c0.05,1.52,1.31,2.73,2.83,2.73h0.09c0.19-0.01,0.38-0.03,0.56-0.08l0.42,1.4
		l0.01,0.04c0.01,0.04,0.04,0.06,0.08,0.07h0.02c0.03,0,0.06-0.02,0.08-0.05c0.1-0.16,0.21-0.32,0.32-0.47
		c0.01-0.02,0.03-0.03,0.06-0.07h0c0,0,0,0,0.01,0l0,0v-0.01c0,0,0,0,0,0c0,0,0,0,0,0l0,0l0-0.01v0c0,0,0-0.01,0-0.01
		c0-0.02,0-0.03,0-0.05l-0.48-1.57c0.37,0.08,0.73,0.13,1.07,0.13c0.6,0,1.15-0.13,1.65-0.39C26.03,8.61,26.51,8,26.8,7.52
		l0.59,1.95l0.08,0.07c0.18,0.04,0.36,0.08,0.53,0.14c0.01,0,0.03,0.01,0.06,0.02c0.04,0.01,0.08,0.01,0.11-0.02
		c0.02-0.02,0.04-0.06,0.02-0.1L27.65,7.82z M21.55,8.23c-0.02,0.03-0.04,0.07-0.02,0.1l0.15,0.51l0.14,0.47
		c-0.12,0.03-0.25,0.04-0.37,0.05h-0.07c-1.12,0-2.06-0.9-2.1-2.03c0-0.02,0-0.05,0-0.06c0-1.12,0.9-2.06,2.03-2.09h0.06
		c0.15,0,0.3,0.01,0.44,0.04c0.01,0.01,0.02,0.01,0.03,0.01c0.24,0.05,0.39,0.12,0.51,0.19c0.03,0.01,0.05,0.02,0.07,0.04
		c0.19,0.1,0.36,0.24,0.51,0.41C22.96,5.89,23,5.9,23.04,5.88c0.04-0.01,0.06-0.06,0.06-0.1c-0.04-0.25-0.13-0.87-0.59-1.1
		c0.18-1.38,1.36-2.45,2.76-2.5c0.03,0,0.06,0,0.09,0c1.55,0,2.83,1.23,2.88,2.78c0,0.03,0,0.06,0,0.09c0,0.75-0.3,1.47-0.83,2
		l-0.2-0.66L26.95,5.5c-0.01-0.05-0.05-0.08-0.1-0.08c-0.04,0-0.08,0.03-0.09,0.08c-0.08,0.29-0.24,0.85-0.25,0.92
		c0-0.02-0.4,1.34-1.56,1.94c-0.39,0.2-0.83,0.3-1.31,0.3c-0.46,0-0.96-0.1-1.49-0.28l-0.49-0.17C21.61,8.19,21.58,8.2,21.55,8.23"
		/>
	<path class="st3" d="M37.89,14.82c-0.09-0.39-0.25-0.74-0.47-1.03c-0.22-0.3-0.51-0.53-0.86-0.71c-0.36-0.18-0.8-0.26-1.31-0.26
		c-0.42,0-0.84,0.1-1.25,0.31c-0.36,0.19-0.72,0.46-1.08,0.81v-4.3c0-0.06-0.02-0.12-0.05-0.17c-0.03-0.05-0.09-0.08-0.14-0.11
		c-0.06-0.03-0.14-0.04-0.23-0.05c-0.09-0.01-0.21-0.02-0.36-0.02c-0.13,0-0.25,0.01-0.34,0.02c-0.09,0.01-0.17,0.03-0.24,0.05
		c-0.06,0.02-0.12,0.06-0.15,0.12c-0.03,0.05-0.04,0.1-0.04,0.16V20.8c0,0.06,0.01,0.11,0.04,0.16c0.03,0.05,0.08,0.08,0.14,0.11
		c0.06,0.03,0.14,0.04,0.24,0.05c0.09,0.01,0.21,0.02,0.35,0.02c0.14,0,0.26-0.01,0.36-0.02c0.09-0.01,0.17-0.03,0.23-0.05
		c0.06-0.03,0.11-0.06,0.14-0.11c0.04-0.05,0.05-0.1,0.05-0.16v-5.23c0.37-0.46,0.72-0.81,1.05-1.04c0.34-0.24,0.67-0.35,0.99-0.35
		c0.26,0,0.48,0.05,0.67,0.14c0.19,0.1,0.34,0.23,0.47,0.41c0.12,0.18,0.21,0.4,0.28,0.66c0.07,0.25,0.1,0.59,0.1,1.02v4.41
		c0,0.06,0.01,0.11,0.05,0.16c0.03,0.04,0.08,0.08,0.14,0.11c0.06,0.03,0.14,0.04,0.23,0.05c0.1,0.01,0.22,0.02,0.36,0.02
		c0.14,0,0.25-0.01,0.35-0.02c0.09-0.01,0.17-0.03,0.23-0.05c0.06-0.03,0.11-0.06,0.14-0.11c0.04-0.05,0.05-0.1,0.05-0.16v-4.58
		C38.03,15.67,37.99,15.2,37.89,14.82"/>
	<path class="st3" d="M46.8,15.05c-0.13-0.44-0.33-0.83-0.6-1.15c-0.28-0.33-0.63-0.6-1.06-0.79c-0.43-0.19-0.95-0.29-1.55-0.29
		c-0.56,0-1.07,0.1-1.53,0.29c-0.46,0.2-0.85,0.49-1.17,0.85c-0.32,0.37-0.57,0.82-0.74,1.34c-0.17,0.53-0.25,1.12-0.25,1.77
		c0,0.68,0.08,1.29,0.24,1.81c0.17,0.52,0.41,0.96,0.74,1.31c0.33,0.35,0.74,0.61,1.21,0.79c0.48,0.17,1.03,0.27,1.66,0.27
		c0.36,0,0.7-0.03,1.03-0.08c0.32-0.05,0.6-0.11,0.84-0.18c0.24-0.07,0.44-0.14,0.6-0.21c0.16-0.08,0.24-0.12,0.3-0.17
		c0.04-0.04,0.07-0.07,0.09-0.11c0.03-0.04,0.04-0.09,0.05-0.14c0.01-0.04,0.01-0.09,0.02-0.15c0-0.06,0.01-0.12,0.01-0.19
		c0-0.1-0.01-0.19-0.01-0.26c-0.01-0.07-0.03-0.14-0.04-0.19c-0.02-0.05-0.06-0.09-0.1-0.12c-0.04-0.03-0.1-0.04-0.15-0.04
		c-0.09,0-0.2,0.04-0.33,0.1c-0.13,0.05-0.3,0.12-0.5,0.19c-0.2,0.07-0.44,0.14-0.72,0.19c-0.27,0.06-0.59,0.09-0.94,0.09
		c-0.45,0-0.82-0.07-1.12-0.19c-0.3-0.13-0.55-0.29-0.73-0.53c-0.18-0.23-0.32-0.51-0.4-0.83c-0.08-0.3-0.12-0.64-0.12-1.02h4.88
		c0.16,0,0.3-0.06,0.43-0.16c0.14-0.12,0.19-0.3,0.19-0.53v-0.25C46.99,15.96,46.93,15.49,46.8,15.05 M45.44,16.2v0.02h-3.95
		c0.02-0.26,0.07-0.52,0.15-0.77c0.09-0.27,0.22-0.51,0.39-0.72c0.17-0.2,0.37-0.36,0.62-0.49c0.25-0.12,0.53-0.18,0.87-0.18
		c0.65,0,1.13,0.19,1.45,0.58C45.28,15.02,45.44,15.54,45.44,16.2"/>
	<path class="st3" d="M57.85,9.89c-0.01-0.08-0.03-0.15-0.05-0.21c-0.02-0.06-0.06-0.12-0.1-0.16c-0.05-0.04-0.09-0.07-0.15-0.09
		c-0.13-0.05-0.28-0.1-0.47-0.15c-0.2-0.04-0.41-0.06-0.66-0.06c-0.4,0-0.76,0.06-1.07,0.18c-0.31,0.12-0.57,0.31-0.78,0.56
		c-0.21,0.25-0.37,0.57-0.47,0.95c-0.1,0.38-0.16,0.83-0.16,1.35v0.73H50.7v-0.64c0-0.62,0.08-1.06,0.24-1.33
		c0.15-0.26,0.4-0.38,0.8-0.39c0.14,0,0.26,0.02,0.37,0.04c0.11,0.03,0.2,0.05,0.29,0.09c0.09,0.03,0.16,0.06,0.22,0.08
		c0.07,0.03,0.13,0.05,0.19,0.05c0.11,0,0.2-0.08,0.23-0.17c0.03-0.1,0.05-0.24,0.05-0.42c0-0.11-0.01-0.2-0.01-0.28
		c-0.01-0.08-0.03-0.16-0.05-0.22c-0.03-0.06-0.06-0.11-0.1-0.15c-0.04-0.04-0.1-0.08-0.16-0.1c-0.12-0.06-0.28-0.1-0.47-0.15
		c-0.19-0.04-0.41-0.06-0.66-0.06c-0.4,0-0.76,0.06-1.07,0.18c-0.31,0.12-0.57,0.3-0.78,0.55c-0.21,0.25-0.37,0.57-0.47,0.95
		c-0.1,0.38-0.15,0.83-0.15,1.35v0.63h-0.99c-0.05,0-0.11,0.02-0.16,0.04c-0.05,0.03-0.09,0.08-0.12,0.14
		c-0.03,0.06-0.05,0.12-0.06,0.2c-0.01,0.08-0.02,0.17-0.02,0.28c0,0.21,0.02,0.36,0.08,0.47c0.05,0.11,0.15,0.18,0.27,0.18h0.99
		v6.52c0,0.06,0.01,0.11,0.05,0.16c0.03,0.05,0.09,0.08,0.15,0.11c0.06,0.03,0.14,0.04,0.24,0.05c0.1,0.01,0.21,0.02,0.35,0.02
		c0.14,0,0.25-0.01,0.35-0.02c0.1-0.01,0.17-0.03,0.23-0.05c0.07-0.03,0.11-0.06,0.15-0.11c0.03-0.05,0.05-0.11,0.05-0.16v-6.52
		h3.22v6.52c0,0.06,0.01,0.11,0.05,0.16c0.03,0.05,0.09,0.08,0.15,0.11c0.06,0.03,0.14,0.04,0.23,0.05c0.1,0.01,0.21,0.02,0.34,0.02
		c0.14,0,0.25-0.01,0.35-0.02c0.1-0.01,0.17-0.03,0.24-0.05c0.06-0.03,0.11-0.06,0.15-0.11c0.03-0.05,0.05-0.1,0.05-0.16v-6.52h1.6
		c0.12,0.01,0.22-0.07,0.28-0.17c0.06-0.11,0.08-0.27,0.08-0.48c0-0.11,0-0.2-0.02-0.28c-0.01-0.08-0.03-0.14-0.06-0.2
		c-0.03-0.05-0.07-0.1-0.12-0.13c-0.05-0.03-0.1-0.04-0.16-0.04h-1.6v-0.74c0-0.62,0.09-1.06,0.24-1.32
		c0.15-0.26,0.41-0.38,0.8-0.38c0.14,0,0.26,0.01,0.37,0.03c0.11,0.02,0.21,0.05,0.29,0.08c0.09,0.03,0.16,0.05,0.22,0.07
		c0.07,0.03,0.12,0.04,0.18,0.04c0.1,0.01,0.2-0.07,0.23-0.18c0.03-0.09,0.05-0.22,0.05-0.41C57.86,10.06,57.86,9.97,57.85,9.89"/>
	<path class="st3" d="M29.77,19.15c-0.01-0.09-0.02-0.16-0.04-0.21c-0.02-0.06-0.05-0.11-0.1-0.14c-0.04-0.02-0.09-0.04-0.15-0.04
		c-0.12,0-0.24,0.07-0.39,0.18c-0.14,0.1-0.33,0.22-0.55,0.35c-0.22,0.13-0.49,0.25-0.81,0.35c-0.31,0.1-0.68,0.15-1.1,0.15
		c-0.5,0-0.95-0.09-1.34-0.26c-0.4-0.18-0.73-0.43-1-0.78c-0.27-0.34-0.48-0.77-0.63-1.29c-0.15-0.52-0.22-1.12-0.22-1.8
		c0-0.69,0.08-1.29,0.23-1.82c0.15-0.53,0.36-0.98,0.64-1.34c0.27-0.36,0.6-0.64,0.98-0.82c0.39-0.19,0.81-0.28,1.28-0.28
		c0.44,0,0.81,0.05,1.12,0.16c0.32,0.11,0.58,0.23,0.8,0.35c0.22,0.13,0.4,0.25,0.53,0.35c0.14,0.11,0.26,0.18,0.38,0.18
		c0.06,0,0.12-0.02,0.17-0.05c0.05-0.04,0.08-0.09,0.11-0.15c0.02-0.06,0.04-0.13,0.05-0.22c0.01-0.08,0.02-0.18,0.02-0.29
		c0-0.11,0-0.19-0.01-0.27c-0.01-0.08-0.02-0.14-0.03-0.2c-0.02-0.06-0.04-0.11-0.06-0.16c-0.03-0.05-0.08-0.11-0.16-0.19
		c-0.09-0.09-0.22-0.18-0.42-0.3c-0.2-0.12-0.43-0.22-0.68-0.31c-0.26-0.09-0.54-0.17-0.84-0.23c-0.3-0.06-0.61-0.09-0.93-0.09
		c-0.72,0-1.38,0.13-1.97,0.39c-0.59,0.26-1.11,0.64-1.53,1.14c-0.43,0.5-0.76,1.1-0.99,1.82c-0.23,0.71-0.35,1.52-0.35,2.42
		c0,0.88,0.11,1.66,0.33,2.35c0.22,0.68,0.53,1.26,0.94,1.72c0.4,0.47,0.9,0.82,1.48,1.06c0.58,0.24,1.23,0.36,1.94,0.36
		c0.41,0,0.79-0.04,1.14-0.12c0.35-0.08,0.65-0.17,0.92-0.28c0.27-0.11,0.5-0.22,0.68-0.34c0.18-0.12,0.3-0.2,0.36-0.26
		c0.06-0.06,0.1-0.11,0.13-0.15c0.03-0.05,0.05-0.1,0.06-0.16c0.02-0.05,0.03-0.12,0.03-0.19c0-0.07,0.01-0.15,0.01-0.24
		C29.78,19.35,29.78,19.24,29.77,19.15"/>
</g>
</svg>
