<?xml version="1.0" encoding="utf-8"?>
<!-- Generator: Adobe Illustrator 23.0.2, SVG Export Plug-In . SVG Version: 6.00 Build 0)  -->
<svg version="1.1" id="Capa_1" xmlns="http://www.w3.org/2000/svg" xmlns:xlink="http://www.w3.org/1999/xlink" x="0px" y="0px"
	 viewBox="0 0 136.56 15.59" style="enable-background:new 0 0 136.56 15.59;" xml:space="preserve">
<style type="text/css">
	.st0{fill:#5A951D;}
</style>
<g>
	<g>
		<path d="M31.82,1.18h2.83c3.5,0,5.49,2.25,5.49,5.19c0,2.96-2.25,5.19-5.41,5.19h-2.92V1.18z M33.76,2.97v6.8h0.75
			c2.26,0,3.7-1.47,3.7-3.4c0-1.99-1.22-3.4-3.78-3.4H33.76z"/>
		<path d="M41.96,0c0.75,0,1.21,0.48,1.21,1.21c0,0.71-0.46,1.19-1.21,1.19c-0.77,0-1.21-0.48-1.21-1.19C40.75,0.48,41.22,0,41.96,0
			z M41,3.24h1.93v8.32H41V3.24z"/>
		<path d="M50.44,10.46c-0.61,0.78-1.61,1.28-2.72,1.28c-2.01,0-4.1-1.61-4.1-4.32c0-2.76,2.02-4.34,4.13-4.34
			c1.1,0,2.08,0.48,2.67,1.24V3.24h1.92v8.11c0,2.33-1.48,4.24-4.3,4.24c-2.16,0-3.5-1-4.27-2.39l1.71-1.04
			c0.6,1.11,1.27,1.66,2.59,1.66c1.45,0,2.36-1.14,2.36-2.4V10.46z M50.53,7.38c0-1.41-1.07-2.56-2.49-2.56
			c-1.42,0-2.52,1.12-2.52,2.56c0,1.45,1.1,2.59,2.52,2.59C49.46,9.97,50.53,8.82,50.53,7.38z"/>
		<path d="M54.22,0c0.75,0,1.21,0.48,1.21,1.21c0,0.71-0.46,1.19-1.21,1.19c-0.77,0-1.21-0.48-1.21-1.19C53.01,0.48,53.48,0,54.22,0
			z M53.26,3.24h1.93v8.32h-1.93V3.24z"/>
		<path d="M55.86,3.24h1.42V1.98l1.93-1.32v2.59h1.69v1.72h-1.69v3.12c0,1.45,0.2,1.68,1.69,1.68v1.81h-0.27
			c-2.57,0-3.36-0.82-3.36-3.47V4.96h-1.42V3.24z"/>
		<path d="M61.14,7.41c0-2.76,2.02-4.34,4.13-4.34c1.1,0,2.08,0.46,2.67,1.17v-1h1.92v8.32h-1.92v-1.08
			c-0.61,0.77-1.61,1.25-2.7,1.25C63.23,11.74,61.14,10.13,61.14,7.41z M68.03,7.38c0-1.41-1.07-2.56-2.49-2.56
			c-1.42,0-2.52,1.12-2.52,2.56c0,1.45,1.1,2.59,2.52,2.59C66.97,9.97,68.03,8.82,68.03,7.38z"/>
		<path d="M70.81,1.04h1.93v10.53h-1.93V1.04z"/>
		<path d="M77.16,1.18h1.93v10.38h-1.93V1.18z"/>
		<path d="M80.25,3.24h1.91v1.02c0.55-0.73,1.42-1.19,2.49-1.19c2.05,0,3.3,1.34,3.3,3.56v4.94H86V6.83c0-1.28-0.63-2.09-1.88-2.09
			c-1.1,0-1.95,0.81-1.95,2.26v4.57h-1.92V3.24z"/>
		<path d="M88.13,3.24h2.01l2.15,5.86l2.11-5.86h1.98l-3.13,8.32H91.3L88.13,3.24z"/>
		<path d="M96.02,7.43c0-2.43,1.89-4.35,4.32-4.35c2.48,0,4.28,1.82,4.28,4.28v0.73h-6.77c0.26,1.17,1.19,1.96,2.56,1.96
			c1.07,0,1.91-0.58,2.3-1.47l1.58,0.91c-0.73,1.34-2.03,2.25-3.88,2.25C97.8,11.74,96.02,9.83,96.02,7.43z M97.96,6.47h4.72
			c-0.28-1.11-1.14-1.71-2.33-1.71C99.2,4.77,98.3,5.46,97.96,6.47z"/>
		<path d="M105.34,3.24h1.91v1.24c0.38-0.82,1.08-1.24,2.13-1.24c0.6,0,1.1,0.14,1.47,0.36l-0.73,1.82
			c-0.28-0.19-0.61-0.33-1.15-0.33c-1.11,0-1.71,0.6-1.71,2.03v4.44h-1.92V3.24z"/>
		<path d="M111.03,3.24h1.42V1.98l1.93-1.32v2.59h1.69v1.72h-1.69v3.12c0,1.45,0.2,1.68,1.69,1.68v1.81h-0.27
			c-2.57,0-3.36-0.82-3.36-3.47V4.96h-1.42V3.24z"/>
		<path d="M116.31,7.43c0-2.43,1.89-4.35,4.32-4.35c2.48,0,4.28,1.82,4.28,4.28v0.73h-6.77c0.26,1.17,1.19,1.96,2.56,1.96
			c1.07,0,1.91-0.58,2.3-1.47l1.58,0.91c-0.73,1.34-2.03,2.25-3.88,2.25C118.09,11.74,116.31,9.83,116.31,7.43z M118.24,6.47h4.72
			c-0.28-1.11-1.14-1.71-2.33-1.71C119.48,4.77,118.58,5.46,118.24,6.47z"/>
		<path d="M125.62,3.24h1.91v1.24c0.38-0.82,1.08-1.24,2.13-1.24c0.6,0,1.1,0.14,1.47,0.36l-0.73,1.82
			c-0.28-0.19-0.61-0.33-1.15-0.33c-1.11,0-1.71,0.6-1.71,2.03v4.44h-1.92V3.24z"/>
		<path d="M131.97,1.73h-0.81V1.19h2.19v0.54h-0.81v2.49h-0.56V1.73z"/>
		<path d="M133.59,1.19h0.56l0.92,1.27l0.95-1.27h0.54v3.03h-0.56V2.09l-0.93,1.25l-0.91-1.23v2.1h-0.56V1.19z"/>
	</g>
	<g>
		<g>
			<path class="st0" d="M17.16,6.26c0-2.88,2.31-5.22,5.2-5.22c2.9,0,5.21,2.34,5.21,5.22c0,2.9-2.31,5.22-5.21,5.22
				C19.47,11.48,17.16,9.15,17.16,6.26z M25.68,6.26c0-1.85-1.48-3.36-3.33-3.36c-1.85,0-3.32,1.5-3.32,3.36s1.46,3.36,3.32,3.36
				C24.21,9.61,25.68,8.11,25.68,6.26z"/>
			<path class="st0" d="M0,1.17h6.03v1.81H1.89v2.34h4.14v1.81H1.89v2.4h4.14v1.81H0V1.17z"/>
			<path class="st0" d="M6.88,6.26c0-3.04,2.28-5.22,5.22-5.22c1.91,0,3.57,1,4.46,2.52L14.9,4.61c-0.59-1.06-1.49-1.71-2.8-1.71
				c-1.92,0-3.34,1.46-3.34,3.36c0,1.85,1.41,3.33,3.3,3.33c1.41,0,2.4-0.81,2.93-1.91l1.73,0.91c-0.89,1.73-2.59,2.9-4.61,2.9
				C8.97,11.48,6.88,9.15,6.88,6.26z"/>
		</g>
	</g>
</g>
</svg>
