<?xml version="1.0" encoding="utf-8"?>
<!-- Generator: Adobe Illustrator 23.0.2, SVG Export Plug-In . SVG Version: 6.00 Build 0)  -->
<svg version="1.1" id="Capa_1" xmlns="http://www.w3.org/2000/svg" xmlns:xlink="http://www.w3.org/1999/xlink" x="0px" y="0px"
	 viewBox="0 0 103.8 18.91" style="enable-background:new 0 0 103.8 18.91;" xml:space="preserve">
<g>
	<g>
		<path d="M99.21,1.09h-0.8V0.68h2.18v0.41h-0.8v1.75h-0.58V1.09z"/>
		<path d="M102.93,0.68h0.86v2.16h-0.57V1.11h0l-0.68,1.73h-0.48l-0.68-1.73h-0.01v1.73h-0.57V0.68h0.86l0.65,1.55L102.93,0.68z"/>
	</g>
	<g>
		<path d="M0,7.97c0,1.31,0.47,2.69,1.4,3.75c0.94,1.06,2.33,1.79,4.15,1.79c1.07,0,2.11-0.3,2.98-0.86
			c0.91-0.57,1.65-1.43,2.13-2.56l0.09-0.2H8.99L8.94,9.96C8.3,11.25,7.08,12,5.55,12H5.51c-0.83,0-1.77-0.3-2.51-0.9
			c-0.71-0.59-1.22-1.44-1.3-2.6h9.31l0.01-0.13c0.01-0.18,0.03-0.35,0.03-0.53c0-1.49-0.58-2.9-1.67-3.95
			c-1-0.96-2.37-1.48-3.85-1.48c-1.57,0-2.96,0.62-3.95,1.63C0.59,5.03,0,6.43,0,7.97z M5.55,3.88L5.55,3.88h0.1
			c0.99,0,1.9,0.42,2.57,1.04C8.84,5.52,9.25,6.3,9.33,7.08h-7.6C1.93,5.36,3.47,3.88,5.55,3.88z"/>
		<path d="M23.69,9.47h-1.76l-0.03,0.1c-0.42,1.18-1.68,2.32-3.58,2.34c-2.14,0-3.89-1.61-3.89-3.95c0-1.14,0.47-2.21,1.12-2.84
			c0.84-0.78,1.63-1.12,2.79-1.13c1.4,0,2.96,0.77,3.58,2.44l0.04,0.1h1.74l-0.05-0.19c-0.73-2.52-2.99-3.93-5.36-3.93
			c-1.59,0-2.98,0.61-3.97,1.61c-0.99,1-1.58,2.39-1.58,3.94c0,1.41,0.52,2.8,1.49,3.83c0.97,1.04,2.39,1.72,4.16,1.72
			c2.52,0,4.58-1.63,5.26-3.85L23.69,9.47z"/>
		<path d="M39.22,12.79h2.13v-1.01c0.9,0.89,1.97,1.33,3.22,1.34c1.33,0,2.46-0.5,3.39-1.49c0.93-0.99,1.39-2.2,1.39-3.62
			c0-1.41-0.47-2.63-1.39-3.62c-0.93-1-2.06-1.5-3.38-1.5c-1.15,0-2.17,0.39-3.05,1.16V0h-1.15h-1.16V12.79z M42.2,5.84
			c0.54-0.58,1.22-0.87,2.01-0.87c0.8,0,1.47,0.29,2.01,0.88c0.54,0.58,0.81,1.31,0.81,2.16c0,0.86-0.27,1.57-0.81,2.15
			c-0.54,0.58-1.21,0.87-2.02,0.87c-0.8,0-1.47-0.29-2-0.87c-0.54-0.58-0.82-1.3-0.82-2.16C41.39,7.13,41.66,6.42,42.2,5.84z"/>
		<path d="M54.71,13.12c1.06,0,1.96-0.39,2.69-1.18v0.85h1.07h1.07V3.2h-1.16h-1.15v5.05c0,0.92-0.16,1.61-0.5,2.08
			c-0.33,0.46-0.83,0.69-1.51,0.69c-0.63,0-1.11-0.23-1.43-0.69C53.46,9.87,53.3,9.2,53.3,8.32V3.2h-1.15H51v5.64
			c0,1.31,0.33,2.35,1,3.12C52.67,12.73,53.57,13.12,54.71,13.12z"/>
		<path d="M70.41,11.62c0.93-0.99,1.39-2.2,1.39-3.62c0-1.41-0.46-2.63-1.39-3.62c-0.93-1-2.06-1.5-3.38-1.5
			c-1.15,0-2.17,0.39-3.05,1.16V0h-1.16h-1.15v12.79h2.13v-1.01c0.9,0.89,1.97,1.33,3.22,1.34C68.34,13.12,69.48,12.62,70.41,11.62z
			 M64.66,10.16c-0.54-0.58-0.81-1.3-0.81-2.16c0-0.87,0.27-1.58,0.81-2.16c0.54-0.58,1.21-0.87,2.01-0.87
			c0.79,0,1.47,0.29,2.01,0.88c0.54,0.58,0.81,1.31,0.81,2.16c0,0.86-0.27,1.57-0.81,2.15c-0.54,0.58-1.21,0.87-2.02,0.87
			C65.85,11.03,65.19,10.74,64.66,10.16z"/>
		<path d="M75.88,0h-1.17h-1.14v12.79h2.12v-1.01c0.9,0.89,1.97,1.33,3.23,1.34c1.32,0,2.45-0.5,3.39-1.49
			c0.92-0.99,1.39-2.2,1.39-3.62c0-1.41-0.46-2.63-1.39-3.62c-0.94-1-2.06-1.5-3.38-1.5c-1.15,0-2.17,0.39-3.05,1.16V0z M76.56,5.84
			c0.54-0.58,1.21-0.87,2.01-0.87c0.8,0,1.47,0.29,2.01,0.88c0.54,0.58,0.81,1.31,0.81,2.16c0,0.86-0.27,1.57-0.81,2.15
			c-0.54,0.58-1.21,0.87-2.02,0.87c-0.8,0-1.47-0.29-2-0.87c-0.54-0.58-0.81-1.3-0.81-2.16C75.75,7.13,76.01,6.42,76.56,5.84z"/>
		<polygon points="87.81,12.79 87.81,0 86.65,0 85.5,0 85.5,12.79 86.65,12.79 		"/>
		<path d="M94.64,2.88c-1.38,0-2.57,0.5-3.55,1.5c-0.97,1-1.46,2.21-1.46,3.62c0,1.42,0.49,2.63,1.46,3.62
			c0.98,1,2.16,1.49,3.55,1.49c1.12,0,2.11-0.3,2.96-0.91c0.86-0.61,1.44-1.42,1.75-2.44h-2.43c-0.19,0.38-0.48,0.68-0.89,0.9
			c-0.4,0.23-0.84,0.33-1.33,0.33c-0.78,0-1.43-0.29-1.96-0.86c-0.3-0.34-0.52-0.71-0.65-1.13h7.48c0.06-0.33,0.08-0.67,0.08-1.02
			c0-1.41-0.49-2.63-1.47-3.62C97.21,3.38,96.03,2.88,94.64,2.88z M92.02,7.18c0.13-0.5,0.36-0.94,0.7-1.33
			c0.52-0.58,1.16-0.86,1.92-0.86c0.76,0,1.41,0.29,1.92,0.86c0.35,0.38,0.58,0.82,0.68,1.33H92.02z"/>
		<polygon points="39.18,16.41 40.04,16.41 40.04,18.84 40.67,18.84 40.67,16.41 41.53,16.41 41.53,15.94 39.18,15.94 		"/>
		<polygon points="47.35,16.41 47.35,15.94 45.41,15.94 45.41,18.84 47.39,18.84 47.39,18.35 46.03,18.35 46.03,17.57 47.26,17.57 
			47.26,17.09 46.03,17.09 46.03,16.41 		"/>
		<path d="M52.48,18.45c-0.6,0-0.6-0.82-0.6-1c0-0.59,0.19-1.07,0.65-1.07c0.42,0,0.46,0.41,0.47,0.51h0.64
			c0-0.58-0.45-0.97-1.09-0.97c-0.81,0-1.33,0.62-1.33,1.53c0,0.72,0.33,1.46,1.32,1.46c0.27,0,0.6-0.06,0.85-0.33
			c0.24-0.24,0.25-0.51,0.26-0.68h-0.66C53,18.28,52.75,18.45,52.48,18.45z"/>
		<polygon points="59.92,18.84 59.92,15.94 59.29,15.94 59.29,17.09 58.19,17.09 58.19,15.94 57.58,15.94 57.58,18.84 58.19,18.84 
			58.19,17.56 59.3,17.56 59.3,18.84 		"/>
		<polygon points="64.92,15.94 64.02,15.94 64.02,18.84 64.6,18.84 64.6,16.43 65.73,18.84 66.59,18.84 66.59,15.94 66.01,15.94 
			66.01,18.22 		"/>
		<path d="M71.94,18.91c0.24,0,0.71-0.05,1.04-0.42c0.23-0.26,0.37-0.71,0.37-1.13c0-0.29-0.07-0.74-0.37-1.09
			c-0.29-0.32-0.72-0.39-1.02-0.39c-1.04,0-1.4,0.78-1.4,1.55c0,0.26,0.04,0.74,0.36,1.08C71.17,18.78,71.55,18.91,71.94,18.91z
			 M71.42,16.56c0.11-0.15,0.3-0.24,0.53-0.24c0.29,0,0.54,0.16,0.66,0.52c0.05,0.18,0.07,0.38,0.07,0.52c0,0.46-0.09,0.68-0.2,0.83
			c-0.11,0.18-0.29,0.27-0.53,0.27c-0.29,0-0.44-0.11-0.53-0.23c-0.17-0.23-0.22-0.54-0.22-0.81C71.2,17.07,71.25,16.77,71.42,16.56
			z"/>
		<polygon points="77.31,15.94 77.31,18.84 79.19,18.84 79.19,18.34 77.95,18.34 77.95,15.94 		"/>
		<path d="M84.17,15.87c-1.05,0-1.4,0.78-1.4,1.55c0,0.26,0.04,0.74,0.36,1.08c0.26,0.28,0.64,0.4,1.02,0.4
			c0.25,0,0.72-0.05,1.04-0.42c0.23-0.26,0.36-0.71,0.36-1.13c0-0.29-0.06-0.74-0.37-1.09C84.9,15.95,84.47,15.87,84.17,15.87z
			 M84.7,18.18c-0.11,0.18-0.29,0.27-0.54,0.27c-0.29,0-0.44-0.11-0.53-0.23c-0.17-0.23-0.21-0.54-0.21-0.81
			c0-0.33,0.04-0.64,0.2-0.85c0.12-0.15,0.3-0.24,0.54-0.24c0.3,0,0.54,0.16,0.66,0.52c0.06,0.18,0.08,0.38,0.08,0.52
			C84.9,17.81,84.8,18.03,84.7,18.18z"/>
		<path d="M90.91,16.31c0.14,0,0.36,0.03,0.49,0.22c0.07,0.11,0.08,0.22,0.08,0.29h0.64c0-0.15-0.01-0.38-0.21-0.6
			c-0.23-0.26-0.61-0.37-0.98-0.37c-0.88,0-1.53,0.55-1.53,1.58c0,0.3,0.06,0.76,0.39,1.08c0.22,0.23,0.57,0.39,1.23,0.39
			c0.58,0,0.88-0.1,1.06-0.16v-1.45H90.9v0.48h0.56v0.61c-0.07,0.02-0.17,0.06-0.47,0.06c-0.35,0-0.54-0.09-0.68-0.25
			c-0.22-0.23-0.24-0.59-0.24-0.78C90.07,16.97,90.21,16.31,90.91,16.31z"/>
		<polygon points="97.3,17.27 96.7,15.95 95.97,15.95 96.95,17.77 96.95,18.84 97.57,18.84 97.57,17.78 98.55,15.95 97.91,15.95 		
			"/>
		<path d="M30.89,2.4c-3.06,0-5.55,2.49-5.55,5.55c0,3.07,2.49,5.56,5.55,5.56c3.07,0,5.56-2.49,5.56-5.56
			C36.45,4.89,33.96,2.4,30.89,2.4z M30.89,11.91c-2.19,0-3.96-1.77-3.96-3.96c0-2.19,1.77-3.97,3.96-3.97
			c2.19,0,3.97,1.77,3.97,3.97C34.85,10.13,33.08,11.91,30.89,11.91z"/>
	</g>
</g>
</svg>
