<?xml version="1.0" encoding="utf-8"?>
<!-- Generator: Adobe Illustrator 23.0.2, SVG Export Plug-In . SVG Version: 6.00 Build 0)  -->
<svg version="1.1" id="Capa_1" xmlns="http://www.w3.org/2000/svg" xmlns:xlink="http://www.w3.org/1999/xlink" x="0px" y="0px"
	 viewBox="0 0 33.55 56.69" style="enable-background:new 0 0 33.55 56.69;" xml:space="preserve">
<g>
	<g>
		<path d="M1.32,51.17v2.18h2.28v0.56H1.32v2.67H0.71v-5.97h3.4v0.55H1.32z"/>
		<path d="M4.91,55.69v-5.45H5.5v5.42c0,0.15,0.04,0.27,0.11,0.33c0.07,0.07,0.19,0.1,0.35,0.1c0.09,0,0.2-0.01,0.33-0.03l0.06,0.5
			c-0.16,0.04-0.34,0.07-0.51,0.07C5.21,56.64,4.91,56.32,4.91,55.69z"/>
		<path d="M10.4,54.54H7.46c0.02,0.52,0.15,0.92,0.38,1.18c0.23,0.27,0.57,0.4,1,0.4c0.41,0,0.79-0.12,1.14-0.35l0.23,0.48
			c-0.17,0.14-0.38,0.24-0.62,0.32c-0.24,0.07-0.5,0.11-0.78,0.11c-0.62,0-1.1-0.2-1.44-0.61c-0.34-0.41-0.52-0.97-0.52-1.69
			c0-0.73,0.16-1.29,0.48-1.7c0.32-0.41,0.76-0.61,1.33-0.61c0.56,0,0.99,0.19,1.29,0.56c0.31,0.37,0.46,0.89,0.46,1.56
			C10.42,54.33,10.41,54.44,10.4,54.54z M7.83,52.97c-0.2,0.24-0.31,0.59-0.35,1.07h2.34c-0.01-0.45-0.11-0.8-0.32-1.05
			c-0.21-0.25-0.49-0.38-0.85-0.38C8.3,52.61,8.03,52.73,7.83,52.97z"/>
		<path d="M13.71,56.59l-1.09-1.76l-1.07,1.76h-0.7l1.45-2.23l-1.39-2.18h0.72l1.02,1.67l1.06-1.67h0.7l-1.43,2.14l1.45,2.26H13.71z
			"/>
		<path d="M20.44,56.04v0.54h-3.77v-0.55l3.04-4.87h-2.94v-0.54h3.64v0.54l-3.04,4.88H20.44z"/>
		<path d="M21.45,56.1c-0.31-0.39-0.47-0.97-0.47-1.72c0-0.75,0.16-1.33,0.47-1.72c0.31-0.39,0.76-0.59,1.35-0.59
			c0.58,0,1.03,0.2,1.34,0.59c0.31,0.39,0.47,0.97,0.47,1.72c0,0.75-0.16,1.33-0.47,1.72c-0.31,0.39-0.76,0.59-1.35,0.59
			C22.21,56.69,21.76,56.5,21.45,56.1z M23.69,55.71c0.2-0.3,0.3-0.74,0.3-1.32s-0.1-1.02-0.3-1.32c-0.2-0.3-0.5-0.45-0.89-0.45
			c-0.4,0-0.7,0.15-0.9,0.45c-0.2,0.3-0.31,0.74-0.31,1.32s0.1,1.02,0.31,1.32c0.2,0.3,0.5,0.45,0.89,0.45
			C23.19,56.16,23.49,56.01,23.69,55.71z"/>
		<path d="M28.61,52.45c0.24,0.25,0.36,0.59,0.36,1.02v3.12h-0.59v-3.07c0-0.28-0.08-0.49-0.24-0.64c-0.16-0.15-0.39-0.22-0.69-0.22
			c-0.22,0-0.42,0.03-0.61,0.1c-0.19,0.07-0.37,0.18-0.54,0.33v3.5H25.7v-4.4h0.55v0.47c0.37-0.38,0.82-0.58,1.35-0.58
			C28.03,52.08,28.36,52.2,28.61,52.45z"/>
		<path d="M33.52,54.54h-2.93c0.02,0.52,0.15,0.92,0.38,1.18c0.23,0.27,0.57,0.4,1,0.4c0.41,0,0.79-0.12,1.14-0.35l0.23,0.48
			c-0.17,0.14-0.38,0.24-0.62,0.32c-0.24,0.07-0.5,0.11-0.78,0.11c-0.62,0-1.1-0.2-1.44-0.61c-0.34-0.41-0.52-0.97-0.52-1.69
			c0-0.73,0.16-1.29,0.48-1.7c0.32-0.41,0.76-0.61,1.33-0.61c0.56,0,0.99,0.19,1.29,0.56c0.31,0.37,0.46,0.89,0.46,1.56
			C33.55,54.33,33.54,54.44,33.52,54.54z M30.96,52.97c-0.2,0.24-0.31,0.59-0.35,1.07h2.34c-0.01-0.45-0.11-0.8-0.32-1.05
			c-0.21-0.25-0.49-0.38-0.85-0.38C31.42,52.61,31.15,52.73,30.96,52.97z"/>
	</g>
	<path d="M19.92,41.93c-3.96,0-7.18-3.22-7.18-7.18c0-2.07,0.88-3.98,2.48-5.38l0.46-0.41V5.56c0-2.31,1.88-4.2,4.19-4.2
		c2.31,0,4.19,1.88,4.19,4.2V28.9l0.48,0.41c1.62,1.38,2.55,3.36,2.55,5.44C27.1,38.71,23.88,41.93,19.92,41.93 M25.43,28.27V5.56
		c0-3.07-2.49-5.56-5.56-5.56s-5.55,2.48-5.55,5.56v22.79c-1.79,1.57-2.94,3.84-2.94,6.41c0,4.72,3.82,8.54,8.54,8.54
		c4.72,0,8.55-3.82,8.55-8.54C28.46,32.14,27.27,29.83,25.43,28.27"/>
	<path d="M19.92,40.57c-3.21,0-5.82-2.61-5.82-5.82c0-1.67,0.72-3.22,2.01-4.35l0.93-0.82V11.49c0-1.56,1.27-2.83,2.83-2.83
		c1.56,0,2.83,1.27,2.83,2.83v18.04l0.96,0.81c1.32,1.12,2.08,2.73,2.08,4.4C25.73,37.95,23.12,40.57,19.92,40.57"/>
	<path d="M12.74,28.78H9.86c-0.22,0-0.4-0.18-0.4-0.4c0-0.22,0.18-0.4,0.4-0.4h2.88c0.22,0,0.4,0.18,0.4,0.4
		C13.14,28.6,12.96,28.78,12.74,28.78"/>
	<path d="M12.74,18.72H9.86c-0.22,0-0.4-0.18-0.4-0.4c0-0.22,0.18-0.4,0.4-0.4h2.88c0.22,0,0.4,0.18,0.4,0.4
		C13.14,18.54,12.96,18.72,12.74,18.72"/>
	<path d="M12.74,8.66H9.86c-0.22,0-0.4-0.18-0.4-0.4c0-0.22,0.18-0.4,0.4-0.4h2.88c0.22,0,0.4,0.18,0.4,0.4
		C13.14,8.48,12.96,8.66,12.74,8.66"/>
	<path d="M12.74,23.85H11.3c-0.22,0-0.4-0.18-0.4-0.4s0.18-0.4,0.4-0.4h1.44c0.22,0,0.4,0.18,0.4,0.4S12.96,23.85,12.74,23.85"/>
	<path d="M12.74,13.79H11.3c-0.22,0-0.4-0.18-0.4-0.4c0-0.22,0.18-0.4,0.4-0.4h1.44c0.22,0,0.4,0.18,0.4,0.4
		C13.14,13.61,12.96,13.79,12.74,13.79"/>
	<path d="M12.74,3.72H11.3c-0.22,0-0.4-0.18-0.4-0.4c0-0.22,0.18-0.4,0.4-0.4h1.44c0.22,0,0.4,0.18,0.4,0.4
		C13.14,3.55,12.96,3.72,12.74,3.72"/>
	<polygon points="2.46,25.21 2.46,7.3 0,7.3 3.85,3.51 7.69,7.3 5.23,7.3 5.23,25.21 7.69,25.21 3.85,29 0,25.21 2.46,25.21 	"/>
</g>
</svg>
