<?xml version="1.0" encoding="utf-8"?>
<!-- Generator: Adobe Illustrator 23.0.2, SVG Export Plug-In . SVG Version: 6.00 Build 0)  -->
<svg version="1.1" id="Capa_1" xmlns="http://www.w3.org/2000/svg" xmlns:xlink="http://www.w3.org/1999/xlink" x="0px" y="0px"
	 viewBox="0 0 66 13" style="enable-background:new 0 0 66 13;" xml:space="preserve">
<g>
	<path d="M0.34,1.04h6.32v1.99H2.42V5.6h4.24v1.99H2.42v4.62H0.34V1.04z"/>
	<path d="M7.81,0.89h2.08v11.32H7.81V0.89z"/>
	<path d="M15.52,12.22c-0.7,0-1.35-0.12-1.93-0.35c-0.58-0.23-1.08-0.55-1.49-0.95c-0.41-0.4-0.73-0.88-0.96-1.42
		c-0.23-0.55-0.34-1.13-0.34-1.75c0-0.63,0.12-1.22,0.36-1.77c0.24-0.55,0.57-1.03,0.99-1.43c0.42-0.4,0.91-0.72,1.48-0.96
		c0.57-0.24,1.18-0.35,1.83-0.35c0.66,0,1.28,0.11,1.84,0.32c0.57,0.22,1.05,0.52,1.46,0.9c0.41,0.39,0.73,0.84,0.96,1.37
		c0.23,0.53,0.34,1.1,0.34,1.72v0.73h-7.28c0.14,0.63,0.45,1.14,0.93,1.53c0.48,0.39,1.09,0.58,1.82,0.58
		c0.58,0,1.09-0.14,1.51-0.43c0.43-0.29,0.75-0.67,0.96-1.15l1.7,0.98c-0.39,0.72-0.93,1.31-1.63,1.75
		C17.37,12,16.52,12.22,15.52,12.22z M15.45,5.06c-0.62,0-1.16,0.14-1.61,0.41c-0.45,0.27-0.77,0.64-0.96,1.09h5.08
		c-0.15-0.49-0.45-0.86-0.89-1.12C16.63,5.19,16.09,5.06,15.45,5.06z"/>
	<path d="M23.13,7.65l-3.24-4.39h2.52l2.04,2.85l2.02-2.85h2.45L25.7,7.68l3.43,4.53H26.6l-2.19-2.98l-2.13,2.98h-2.52L23.13,7.65z"
		/>
	<path d="M29.72,1.04h3.05c0.94,0,1.77,0.14,2.51,0.43c0.73,0.29,1.35,0.68,1.86,1.18c0.51,0.5,0.89,1.09,1.15,1.77
		c0.26,0.68,0.39,1.42,0.39,2.21c0,0.8-0.14,1.54-0.43,2.22c-0.29,0.68-0.69,1.27-1.2,1.77c-0.52,0.49-1.13,0.88-1.84,1.17
		c-0.71,0.29-1.49,0.43-2.34,0.43h-3.14V1.04z M31.8,2.97v7.31h0.81c0.61,0,1.16-0.09,1.65-0.28c0.49-0.18,0.91-0.44,1.25-0.77
		c0.34-0.33,0.61-0.72,0.8-1.16c0.19-0.44,0.28-0.93,0.28-1.45c0-0.54-0.08-1.03-0.24-1.48c-0.16-0.44-0.41-0.83-0.75-1.16
		c-0.34-0.33-0.76-0.58-1.27-0.76c-0.51-0.18-1.11-0.27-1.81-0.27H31.8z"/>
	<path d="M43.94,12.22c-0.64,0-1.25-0.12-1.81-0.35c-0.57-0.23-1.06-0.55-1.48-0.96c-0.42-0.41-0.75-0.88-0.99-1.43
		c-0.24-0.55-0.36-1.13-0.36-1.75c0-0.63,0.12-1.22,0.36-1.76c0.24-0.55,0.57-1.02,0.99-1.43c0.42-0.41,0.91-0.73,1.48-0.96
		c0.57-0.23,1.17-0.35,1.81-0.35c0.64,0,1.24,0.12,1.81,0.35c0.56,0.23,1.05,0.55,1.48,0.96c0.42,0.41,0.75,0.89,0.99,1.43
		c0.24,0.55,0.36,1.13,0.36,1.76c0,0.62-0.12,1.2-0.36,1.75c-0.24,0.55-0.57,1.02-0.99,1.43c-0.42,0.41-0.92,0.73-1.48,0.96
		C45.18,12.11,44.58,12.22,43.94,12.22z M43.94,10.28c0.37,0,0.71-0.07,1.03-0.2c0.32-0.13,0.59-0.32,0.83-0.55
		c0.23-0.23,0.42-0.5,0.55-0.81c0.13-0.31,0.2-0.64,0.2-0.98c0-0.35-0.07-0.69-0.2-1c-0.13-0.31-0.32-0.58-0.55-0.81
		c-0.23-0.23-0.51-0.41-0.83-0.55c-0.32-0.13-0.66-0.2-1.03-0.2c-0.37,0-0.71,0.07-1.03,0.2c-0.32,0.13-0.6,0.32-0.83,0.55
		c-0.23,0.23-0.41,0.5-0.54,0.81c-0.13,0.31-0.2,0.64-0.2,1c0,0.34,0.07,0.67,0.2,0.98c0.13,0.31,0.31,0.58,0.54,0.81
		c0.23,0.23,0.51,0.41,0.83,0.55C43.23,10.21,43.57,10.28,43.94,10.28z"/>
	<path d="M53.9,12.22c-0.64,0-1.25-0.12-1.81-0.35c-0.57-0.23-1.06-0.55-1.48-0.96c-0.42-0.41-0.75-0.88-0.99-1.43
		c-0.24-0.55-0.36-1.13-0.36-1.75c0-0.63,0.12-1.22,0.36-1.76c0.24-0.55,0.57-1.02,0.99-1.43c0.42-0.41,0.91-0.73,1.48-0.96
		c0.57-0.23,1.17-0.35,1.81-0.35c0.64,0,1.24,0.12,1.81,0.35c0.56,0.23,1.05,0.55,1.48,0.96c0.42,0.41,0.75,0.89,0.99,1.43
		c0.24,0.55,0.36,1.13,0.36,1.76c0,0.62-0.12,1.2-0.36,1.75c-0.24,0.55-0.57,1.02-0.99,1.43c-0.42,0.41-0.92,0.73-1.48,0.96
		C55.14,12.11,54.54,12.22,53.9,12.22z M53.9,10.28c0.37,0,0.71-0.07,1.03-0.2c0.32-0.13,0.59-0.32,0.83-0.55
		c0.23-0.23,0.42-0.5,0.55-0.81c0.13-0.31,0.2-0.64,0.2-0.98c0-0.35-0.07-0.69-0.2-1c-0.13-0.31-0.32-0.58-0.55-0.81
		c-0.23-0.23-0.51-0.41-0.83-0.55c-0.32-0.13-0.66-0.2-1.03-0.2c-0.37,0-0.71,0.07-1.03,0.2c-0.32,0.13-0.6,0.32-0.83,0.55
		c-0.23,0.23-0.41,0.5-0.54,0.81c-0.13,0.31-0.2,0.64-0.2,1c0,0.34,0.07,0.67,0.2,0.98c0.13,0.31,0.31,0.58,0.54,0.81
		c0.23,0.23,0.51,0.41,0.83,0.55C53.19,10.21,53.53,10.28,53.9,10.28z"/>
	<path d="M59.44,3.26h2.05v1.33c0.42-0.89,1.18-1.33,2.3-1.33c0.33,0,0.62,0.04,0.88,0.11c0.26,0.07,0.49,0.16,0.7,0.28L64.58,5.6
		c-0.15-0.1-0.32-0.19-0.51-0.25c-0.19-0.07-0.43-0.1-0.73-0.1c-0.6,0-1.06,0.17-1.37,0.51c-0.31,0.34-0.47,0.9-0.47,1.68v4.77
		h-2.07V3.26z"/>
</g>
</svg>
