<?xml version="1.0" encoding="utf-8"?>
<!-- Generator: Adobe Illustrator 23.0.2, SVG Export Plug-In . SVG Version: 6.00 Build 0)  -->
<svg version="1.1" id="Capa_1" xmlns="http://www.w3.org/2000/svg" xmlns:xlink="http://www.w3.org/1999/xlink" x="0px" y="0px"
	 viewBox="0 0 36.81 47.22" style="enable-background:new 0 0 36.81 47.22;" xml:space="preserve">
<style type="text/css">
	.st0{fill:url(#SVGID_1_);}
	.st1{fill:#FFFFFF;}
</style>
<g>
	<g>
		<linearGradient id="SVGID_1_" gradientUnits="userSpaceOnUse" x1="-2.3986" y1="2.8047" x2="39.2116" y2="44.4149">
			<stop  offset="0" style="stop-color:#88827E"/>
			<stop  offset="0.2635" style="stop-color:#FFFFFF"/>
			<stop  offset="0.2968" style="stop-color:#E7E6E5"/>
			<stop  offset="0.3882" style="stop-color:#A9A5A3"/>
			<stop  offset="0.4547" style="stop-color:#837C7A"/>
			<stop  offset="0.4888" style="stop-color:#746D6A"/>
			<stop  offset="0.5297" style="stop-color:#938D89"/>
			<stop  offset="0.5969" style="stop-color:#C0BCB7"/>
			<stop  offset="0.6485" style="stop-color:#DCD9D3"/>
			<stop  offset="0.6779" style="stop-color:#E6E4DE"/>
			<stop  offset="0.7111" style="stop-color:#DAD8D2"/>
			<stop  offset="0.7718" style="stop-color:#BAB7B1"/>
			<stop  offset="0.8526" style="stop-color:#87827D"/>
			<stop  offset="0.8582" style="stop-color:#837E79"/>
			<stop  offset="1" style="stop-color:#9F9C96"/>
		</linearGradient>
		<path class="st0" d="M36.12,47.22H0.69C0.31,47.22,0,46.91,0,46.53V0.69C0,0.31,0.31,0,0.69,0h35.43c0.38,0,0.69,0.31,0.69,0.69
			v45.83C36.81,46.91,36.5,47.22,36.12,47.22z"/>
		<g>
			<g>
				<path d="M26.41,43.08c-0.18,0-0.24,0.18-0.24,0.33c0,0.15,0.07,0.32,0.24,0.32c0.17,0,0.24-0.16,0.24-0.33
					C26.65,43.25,26.57,43.08,26.41,43.08z"/>
				<path d="M17.45,29.46c0.09-0.07,0.14-0.17,0.14-0.32c0-0.09-0.02-0.17-0.07-0.23c-0.05-0.07-0.11-0.11-0.18-0.14
					c-0.08-0.03-0.22-0.04-0.43-0.04H16.7v0.84h0.24C17.19,29.56,17.36,29.53,17.45,29.46z"/>
				<path d="M23.99,35.61c0.03-0.06,0.04-0.13,0.04-0.2c0-0.07-0.01-0.14-0.04-0.2c-0.03-0.06-0.06-0.12-0.11-0.16
					c-0.05-0.05-0.1-0.08-0.16-0.11c-0.06-0.03-0.13-0.04-0.2-0.04c-0.07,0-0.14,0.01-0.2,0.04c-0.06,0.03-0.12,0.06-0.16,0.11
					c-0.05,0.05-0.08,0.1-0.11,0.16c-0.03,0.06-0.04,0.13-0.04,0.2c0,0.07,0.01,0.14,0.04,0.2c0.03,0.06,0.06,0.12,0.11,0.16
					c0.05,0.05,0.1,0.08,0.16,0.11c0.06,0.03,0.13,0.04,0.2,0.04c0.07,0,0.14-0.01,0.2-0.04c0.06-0.03,0.12-0.06,0.16-0.11
					C23.92,35.73,23.96,35.67,23.99,35.61z"/>
				<polygon points="20.76,30.45 21.85,30.45 21.3,29.05 				"/>
				<path d="M26.22,39.37c-0.14,0-0.24,0.01-0.3,0.02v0.93h0.32c0.35,0,0.58-0.19,0.58-0.48C26.81,39.46,26.49,39.38,26.22,39.37z"
					/>
				<path d="M25.1,35.28c0.01-0.03,0.02-0.07,0.02-0.1c0-0.08-0.03-0.15-0.08-0.2c-0.05-0.05-0.13-0.08-0.23-0.08h-0.24v0.55h0.24
					c0.05,0,0.1-0.01,0.14-0.02c0.04-0.02,0.07-0.04,0.1-0.07C25.07,35.34,25.09,35.31,25.1,35.28z"/>
				<path d="M3.92,39.38c-0.17,0-0.29,0.01-0.37,0.03v2.13c0.1,0.01,0.22,0.01,0.31,0.01c0.74,0,1.14-0.41,1.14-1.14
					c0-0.32-0.09-0.57-0.26-0.75C4.56,39.48,4.28,39.38,3.92,39.38z"/>
				<path d="M13.19,39.59c-0.03,0.12-0.06,0.22-0.09,0.32l-0.25,0.74h0.69l-0.25-0.74C13.25,39.8,13.22,39.69,13.19,39.59z"/>
				<path d="M21.5,35.06c-0.05-0.05-0.1-0.08-0.16-0.11c-0.06-0.03-0.13-0.04-0.2-0.04c-0.07,0-0.14,0.01-0.2,0.04
					c-0.06,0.03-0.12,0.06-0.16,0.11c-0.05,0.05-0.08,0.1-0.11,0.16c-0.03,0.06-0.04,0.13-0.04,0.2c0,0.07,0.01,0.14,0.04,0.2
					c0.03,0.06,0.06,0.12,0.11,0.16c0.05,0.05,0.1,0.08,0.16,0.11c0.06,0.03,0.13,0.04,0.2,0.04c0.07,0,0.14-0.01,0.2-0.04
					c0.06-0.03,0.12-0.06,0.16-0.11c0.05-0.05,0.08-0.1,0.11-0.16c0.03-0.06,0.04-0.13,0.04-0.2c0-0.07-0.01-0.14-0.04-0.2
					C21.59,35.16,21.55,35.1,21.5,35.06z"/>
				<path d="M12.17,34.9c-0.28,0-0.5,0.23-0.5,0.51c0,0.28,0.22,0.51,0.5,0.51c0.29,0,0.51-0.23,0.51-0.51
					C12.68,35.14,12.46,34.9,12.17,34.9z"/>
				<path d="M13.66,28.91c-0.05-0.07-0.11-0.11-0.19-0.14c-0.08-0.03-0.22-0.04-0.43-0.04h-0.21v0.84h0.24
					c0.25,0,0.42-0.03,0.51-0.1c0.09-0.07,0.14-0.17,0.14-0.32C13.73,29.05,13.71,28.98,13.66,28.91z"/>
				<polygon points="9.1,29.05 8.55,30.45 9.64,30.45 				"/>
				<path d="M29.86,43.08c-0.18,0-0.24,0.18-0.24,0.33c0,0.15,0.07,0.32,0.24,0.32c0.17,0,0.24-0.16,0.24-0.33
					C30.1,43.25,30.02,43.08,29.86,43.08z"/>
				<path d="M22.05,17.14c0.66,0,1.19-0.33,1.58-0.99c0.48-0.8,0.71-2.12,0.71-3.99c0-1.89-0.21-3.19-0.64-3.91
					c-0.43-0.72-0.98-1.08-1.65-1.08c-0.46,0-0.87,0.15-1.23,0.44c-0.36,0.3-0.63,0.81-0.82,1.53c-0.19,0.72-0.28,1.78-0.28,3.18
					c0,1.82,0.22,3.07,0.65,3.77C20.8,16.79,21.37,17.14,22.05,17.14z"/>
				<path d="M0.52,0.52V46.7h35.77V0.52H0.52z M28.71,27.97h2.25v0.76h-0.74v3.31h-0.79v-3.31h-0.72V27.97z M18.21,6.53
					c0.91-1.3,2.17-1.96,3.78-1.96c1.05,0,1.95,0.26,2.71,0.77c0.76,0.52,1.35,1.3,1.76,2.36c0.41,1.06,0.62,2.53,0.62,4.42
					c0,1.91-0.21,3.4-0.63,4.46c-0.42,1.06-0.99,1.84-1.7,2.34c-0.71,0.5-1.61,0.75-2.69,0.75c-1.08,0-1.99-0.25-2.73-0.75
					c-0.74-0.5-1.31-1.26-1.73-2.29c-0.42-1.02-0.63-2.48-0.63-4.37C16.99,9.63,17.39,7.72,18.21,6.53z M27.5,27.97v4.08h-0.75
					l-1.74-2.67v2.67h-0.78v-4.08h0.74l1.74,2.68v-2.68H27.5z M21.84,34.91v-0.17h0.97v0.17h-0.39v1.19h-0.18v-1.19H21.84z
					 M22.45,32.05l-0.32-0.84h-1.66l-0.33,0.84h-0.81l1.57-4.08h0.79l1.57,4.08H22.45z M21.83,35.42c0,0.09-0.02,0.18-0.05,0.27
					c-0.04,0.08-0.09,0.15-0.15,0.22c-0.06,0.06-0.14,0.11-0.22,0.15c-0.09,0.04-0.18,0.05-0.27,0.05c-0.1,0-0.19-0.02-0.27-0.05
					c-0.08-0.04-0.16-0.08-0.22-0.15c-0.06-0.06-0.11-0.13-0.15-0.22c-0.04-0.08-0.05-0.17-0.05-0.27c0-0.09,0.02-0.18,0.05-0.27
					c0.04-0.08,0.09-0.15,0.15-0.22c0.06-0.06,0.14-0.11,0.22-0.15c0.08-0.04,0.18-0.05,0.27-0.05c0.1,0,0.19,0.02,0.27,0.05
					c0.09,0.04,0.16,0.08,0.22,0.15c0.06,0.06,0.11,0.13,0.15,0.22C21.82,35.23,21.83,35.32,21.83,35.42z M19.58,35.69l-0.48-0.66
					v1.06h-0.18v-1.36h0.18l0.48,0.67l0.49-0.67h0.18v1.36h-0.18v-1.07L19.58,35.69z M15.92,27.97h0.82c0.45,0,0.77,0.04,0.96,0.12
					c0.19,0.08,0.34,0.21,0.46,0.4c0.12,0.19,0.17,0.41,0.17,0.66c0,0.27-0.06,0.49-0.19,0.67c-0.13,0.18-0.32,0.32-0.58,0.41
					l0.97,1.81h-0.85l-0.92-1.73H16.7v1.73h-0.78V27.97z M14.92,34.92v-0.17h0.95v0.17h-0.39v1.16H15.3v-1.16H14.92z M11.31,4.94
					h4.1v14.38h-2.72V7.51H9.73L11.31,4.94z M13.83,32.05l-0.92-1.73h-0.07v1.73h-0.78v-4.08h0.82c0.45,0,0.77,0.04,0.96,0.12
					c0.19,0.08,0.34,0.21,0.46,0.4c0.12,0.19,0.17,0.41,0.17,0.66c0,0.27-0.06,0.49-0.19,0.67c-0.13,0.18-0.32,0.32-0.58,0.41
					l0.97,1.81H13.83z M14.18,34.75v1.33h-0.19l-0.73-1.06v1.06h-0.17v-1.33h0.2L14,35.8v-1.04H14.18z M12.85,35.42
					c0,0.38-0.3,0.68-0.68,0.68c-0.38,0-0.68-0.31-0.68-0.68c0-0.38,0.3-0.68,0.68-0.68C12.55,34.73,12.85,35.04,12.85,35.42z
					 M8.7,27.97h0.79l1.57,4.08h-0.81l-0.32-0.84H8.27l-0.33,0.84H7.13L8.7,27.97z M2.63,27.97l0.59,2.6l0.73-2.6h0.65l0.74,2.6
					l0.58-2.6h0.76l-0.92,4.08H5.01l-0.75-2.64l-0.74,2.64H2.79l-0.92-4.08H2.63z M1.86,35.49h9.11v0.21H1.86V35.49z M5.08,41.54
					c-0.28,0.28-0.72,0.42-1.29,0.42c-0.25,0-0.47-0.01-0.67-0.03l-0.05-0.01v-2.87l0.05-0.01C3.38,39,3.64,38.98,3.9,38.98
					c0.53,0,0.91,0.12,1.18,0.37C5.36,39.6,5.5,39.95,5.5,40.4C5.5,40.87,5.35,41.26,5.08,41.54z M6.3,41.93H5.83V39H6.3V41.93z
					 M9.05,41.79L9.01,41.8c-0.16,0.06-0.5,0.16-0.88,0.16c-0.46,0-0.82-0.13-1.09-0.39c-0.26-0.25-0.41-0.65-0.41-1.09
					c0-0.9,0.64-1.51,1.58-1.51c0.33,0,0.59,0.07,0.73,0.14l0.04,0.02l-0.12,0.4L8.8,39.51c-0.12-0.05-0.3-0.12-0.6-0.12
					c-0.66,0-1.08,0.41-1.08,1.08c0,0.67,0.4,1.08,1.03,1.08c0.18,0,0.34-0.02,0.43-0.06v-0.75H8.01v-0.4h1.04V41.79z M9.95,41.93
					H9.47V39h0.48V41.93z M11.51,41.93h-0.48v-2.51h-0.86V39h2.2v0.42h-0.86V41.93z M13.95,41.93l-0.3-0.89h-0.92l-0.29,0.89h-0.49
					l1-2.93h0.52l1,2.93H13.95z M16.34,41.93h-1.68V39h0.48v2.51h1.2V41.93z M17.09,36.08h-0.18V35.5h-0.64v0.58H16.1v-1.33h0.17
					v0.58h0.64v-0.58h0.18V36.08z M18.16,43.1h-0.28v0.82h-0.23V43.1h-0.28v-0.21h0.79V43.1z M17.52,41.93V39H18v2.93H17.52z
					 M18.16,34.92h-0.63v0.41h0.63v0.17h-0.63v0.41h0.63v0.17h-0.8v-1.33h0.8V34.92z M19.78,43.92h-0.63v-1.03h0.61v0.21h-0.38v0.18
					h0.36v0.21h-0.36v0.22h0.4V43.92z M20.7,41.93h-0.45l-0.91-1.46c-0.18-0.28-0.31-0.52-0.42-0.73c0.01,0.28,0.02,0.56,0.02,0.93
					v1.26h-0.45V39h0.48l0.92,1.45c0.15,0.24,0.28,0.46,0.39,0.68c-0.02-0.29-0.02-0.58-0.02-0.9V39h0.45V41.93z M21.26,43.73
					c0.06,0,0.13-0.01,0.17-0.03l0.06-0.03l0.05,0.2l-0.04,0.02c-0.06,0.03-0.16,0.05-0.27,0.05c-0.31,0-0.51-0.21-0.51-0.52
					c0-0.32,0.22-0.54,0.54-0.54c0.14,0,0.22,0.03,0.24,0.05l0.04,0.02l-0.06,0.2l-0.06-0.03c-0.03-0.01-0.08-0.03-0.16-0.03
					c-0.19,0-0.3,0.12-0.3,0.32C20.97,43.61,21.07,43.73,21.26,43.73z M23.26,43.92h-0.23v-0.43h-0.33v0.43h-0.23v-1.03h0.23v0.39
					h0.33v-0.39h0.23V43.92z M22.31,41.93h-0.48L20.87,39h0.51l0.45,1.43c0.11,0.33,0.19,0.6,0.25,0.86
					c0.07-0.26,0.16-0.53,0.27-0.86L22.85,39h0.51L22.31,41.93z M23.24,36.04c-0.08-0.04-0.16-0.08-0.22-0.15
					c-0.06-0.06-0.11-0.13-0.15-0.22c-0.04-0.08-0.05-0.17-0.05-0.27c0-0.09,0.02-0.18,0.05-0.27c0.04-0.08,0.09-0.15,0.15-0.22
					c0.06-0.06,0.14-0.11,0.22-0.15c0.08-0.04,0.18-0.05,0.27-0.05c0.1,0,0.19,0.02,0.27,0.05c0.09,0.04,0.16,0.08,0.22,0.15
					c0.06,0.06,0.11,0.13,0.15,0.22c0.04,0.08,0.05,0.17,0.05,0.27c0,0.09-0.02,0.18-0.05,0.27c-0.04,0.08-0.09,0.15-0.15,0.22
					c-0.06,0.06-0.14,0.11-0.22,0.15c-0.09,0.04-0.18,0.05-0.27,0.05C23.41,36.1,23.32,36.08,23.24,36.04z M25.06,43.92h-0.21
					l-0.31-0.49c-0.02-0.04-0.05-0.07-0.07-0.11c0,0.05,0,0.1,0,0.15v0.45h-0.22v-1.03h0.22l0.31,0.49
					c0.02,0.03,0.04,0.06,0.05,0.09c0-0.04,0-0.09,0-0.14v-0.44h0.22V43.92z M25.22,41.93h-1.7V39h1.63v0.42H24v0.78h1.1v0.41H24
					v0.9h1.22V41.93z M25.12,36.1l-0.27-0.47h-0.28v0.47h-0.18v-1.36h0.44c0.07,0,0.14,0.01,0.19,0.03
					c0.06,0.02,0.11,0.05,0.15,0.09c0.04,0.04,0.07,0.09,0.1,0.14c0.02,0.05,0.03,0.11,0.03,0.17c0,0.04-0.01,0.09-0.02,0.13
					c-0.01,0.04-0.03,0.08-0.06,0.12c-0.02,0.04-0.05,0.07-0.09,0.09c-0.03,0.03-0.07,0.05-0.11,0.07l0.3,0.51H25.12z M26.4,43.94
					c-0.28,0-0.47-0.22-0.47-0.52c0-0.32,0.2-0.54,0.48-0.54c0.28,0,0.47,0.21,0.47,0.52C26.89,43.77,26.64,43.94,26.4,43.94z
					 M26.92,41.93l-0.02-0.03c-0.04-0.08-0.1-0.28-0.19-0.69c-0.08-0.37-0.21-0.49-0.51-0.5h-0.29v1.22h-0.48v-2.88l0.04-0.01
					c0.18-0.04,0.45-0.06,0.71-0.06c0.4,0,0.67,0.08,0.85,0.24c0.15,0.13,0.24,0.34,0.24,0.58c0,0.32-0.17,0.59-0.46,0.73
					c0.17,0.1,0.28,0.29,0.34,0.56c0.09,0.37,0.16,0.66,0.21,0.76l0.04,0.08H26.92z M28.47,43.92h-0.62v-1.03h0.23v0.82h0.39V43.92z
					 M28.73,41.93h-0.48v-2.51h-0.86V39h2.2v0.42h-0.86V41.93z M29.85,43.94c-0.28,0-0.47-0.22-0.47-0.52c0-0.32,0.2-0.54,0.48-0.54
					c0.28,0,0.47,0.21,0.47,0.52C30.34,43.77,30.09,43.94,29.85,43.94z M31.37,40.2v0.41h-1.1v0.9h1.22v0.42h-1.7V39h1.63v0.42
					h-1.16v0.78H31.37z M32.02,43.87l-0.04,0.01c-0.07,0.02-0.18,0.05-0.3,0.05c-0.16,0-0.29-0.04-0.38-0.14
					c-0.09-0.09-0.15-0.23-0.15-0.38c0-0.32,0.22-0.53,0.56-0.53c0.11,0,0.2,0.02,0.25,0.05L32,42.95l-0.06,0.2l-0.06-0.03
					c-0.04-0.02-0.09-0.03-0.18-0.03c-0.2,0-0.32,0.12-0.32,0.32c0,0.2,0.11,0.32,0.3,0.32c0.04,0,0.08,0,0.1-0.01v-0.18H31.6v-0.21
					h0.42V43.87z M32.23,40.71v1.22h-0.48v-2.88l0.04-0.01c0.18-0.04,0.45-0.06,0.71-0.06c0.4,0,0.67,0.08,0.85,0.24
					c0.15,0.13,0.24,0.34,0.24,0.58c0,0.32-0.17,0.59-0.46,0.73c0.17,0.1,0.28,0.28,0.34,0.56c0.08,0.35,0.16,0.65,0.21,0.76
					l0.04,0.08h-0.5l-0.02-0.03c-0.05-0.08-0.1-0.28-0.19-0.69c-0.08-0.37-0.21-0.49-0.51-0.5H32.23z M33.39,43.49v0.43h-0.23v-0.43
					l-0.33-0.6h0.26l0.15,0.29c0.02,0.03,0.03,0.06,0.04,0.09c0.01-0.02,0.02-0.05,0.04-0.07l0.16-0.3h0.27L33.39,43.49z
					 M34.95,35.7h-9.11v-0.21h9.11V35.7z M33.76,30.28v1.77h-0.78v-1.77l-1.2-2.31h0.83l0.76,1.47l0.76-1.47h0.82L33.76,30.28z"/>
				<path d="M33.12,39.84c0-0.38-0.32-0.47-0.59-0.47c-0.14,0-0.24,0.01-0.3,0.02v0.93h0.32C32.89,40.32,33.12,40.14,33.12,39.84z"
					/>
			</g>
			<g>
				<g>
					<polygon class="st1" points="15.68,21.02 17.69,21.02 17.69,21.71 16.38,21.71 16.38,22.37 17.69,22.37 17.69,23.04 
						16.38,23.04 16.38,24.01 17.69,24.01 17.69,24.69 15.68,24.69 					"/>
					<polygon class="st1" points="13.06,21.02 13.74,22.34 14.42,21.02 15.16,21.02 14.09,23.1 14.09,24.69 13.39,24.69 13.39,23.1 
						12.31,21.02 					"/>
					<path class="st1" d="M23.64,23.06c0.23-0.08,0.41-0.21,0.52-0.37c0.12-0.16,0.17-0.36,0.17-0.61c0-0.23-0.05-0.43-0.16-0.6
						c-0.1-0.17-0.24-0.29-0.41-0.36c-0.17-0.07-0.46-0.11-0.87-0.11h-0.74v3.67h0.7v-1.55h0.06l0.83,1.55h0.76L23.64,23.06z
						 M23.07,22.46h-0.22V21.7h0.19c0.19,0,0.31,0.01,0.38,0.04c0.07,0.03,0.13,0.07,0.17,0.13c0.04,0.06,0.06,0.13,0.06,0.21
						c0,0.14-0.04,0.23-0.13,0.29C23.45,22.43,23.29,22.46,23.07,22.46z"/>
					<path class="st1" d="M20.22,21.02h-0.71l-1.42,3.67h0.73l0.3-0.76h1.5l0.29,0.76h0.72L20.22,21.02z M19.38,23.26L19.87,22
						l0.49,1.26H19.38z"/>
				</g>
			</g>
		</g>
	</g>
</g>
</svg>
