<?xml version="1.0" encoding="utf-8"?>
<!-- Generator: Adobe Illustrator 23.0.2, SVG Export Plug-In . SVG Version: 6.00 Build 0)  -->
<svg version="1.1" id="Capa_1" xmlns="http://www.w3.org/2000/svg" xmlns:xlink="http://www.w3.org/1999/xlink" x="0px" y="0px"
	 viewBox="0 0 51.02 56.69" style="enable-background:new 0 0 51.02 56.69;" xml:space="preserve">
<g>
	<g>
		<path d="M4.7,49.84v5.26H4.18v-4.41L2.63,54H2.06l-1.55-3.31v4.41H0v-5.26h0.65l1.71,3.63l1.69-3.63H4.7z"/>
		<path d="M8.08,51.44c0.25,0.21,0.38,0.51,0.38,0.92v2.75H7.98v-0.47c-0.25,0.37-0.64,0.55-1.17,0.55c-0.38,0-0.68-0.1-0.9-0.3
			c-0.22-0.2-0.32-0.49-0.32-0.85c0-0.46,0.19-0.8,0.57-1.02s0.98-0.33,1.78-0.34v-0.27c0-0.25-0.08-0.44-0.24-0.58
			c-0.16-0.13-0.39-0.2-0.69-0.2c-0.31,0-0.62,0.07-0.92,0.21l-0.14-0.44c0.34-0.17,0.71-0.26,1.11-0.26
			C7.49,51.12,7.83,51.23,8.08,51.44z M7.48,54.58c0.16-0.08,0.32-0.2,0.46-0.36V53.1c-0.62,0-1.08,0.08-1.38,0.22
			c-0.3,0.14-0.44,0.36-0.44,0.66c0,0.23,0.07,0.41,0.2,0.53c0.14,0.12,0.34,0.18,0.6,0.18C7.13,54.7,7.32,54.66,7.48,54.58z"/>
		<path d="M12.46,51.22v3.91c0,0.49-0.15,0.88-0.44,1.15c-0.3,0.28-0.71,0.41-1.23,0.41c-0.19,0-0.38-0.02-0.57-0.06
			c-0.19-0.04-0.35-0.09-0.48-0.16L9.9,56c0.27,0.14,0.57,0.2,0.89,0.2c0.38,0,0.66-0.09,0.86-0.28c0.2-0.18,0.29-0.45,0.29-0.81
			v-0.69c-0.26,0.36-0.63,0.54-1.1,0.54c-0.46,0-0.82-0.17-1.08-0.52c-0.26-0.34-0.39-0.82-0.39-1.44c0-0.6,0.14-1.06,0.41-1.39
			c0.28-0.33,0.66-0.5,1.15-0.5c0.21,0,0.41,0.04,0.59,0.13c0.18,0.09,0.33,0.21,0.46,0.37v-0.41H12.46z M11.5,54.35
			c0.15-0.08,0.3-0.2,0.44-0.36v-1.94c-0.13-0.15-0.28-0.26-0.46-0.33c-0.17-0.08-0.36-0.12-0.55-0.12c-0.33,0-0.59,0.12-0.76,0.36
			C10,52.2,9.91,52.55,9.91,53.02c0,0.47,0.09,0.83,0.27,1.08c0.18,0.25,0.45,0.37,0.8,0.37C11.17,54.46,11.34,54.43,11.5,54.35z"/>
		<path d="M13.68,50.42c-0.07-0.07-0.1-0.16-0.1-0.28c0-0.13,0.03-0.22,0.1-0.29c0.06-0.07,0.16-0.1,0.28-0.1
			c0.12,0,0.21,0.03,0.28,0.1c0.07,0.07,0.1,0.16,0.1,0.28c0,0.13-0.03,0.22-0.1,0.29c-0.06,0.07-0.16,0.1-0.28,0.1
			C13.83,50.52,13.74,50.49,13.68,50.42z M13.69,51.22h0.52v3.88h-0.52V51.22z"/>
		<path d="M15.61,54.65c-0.3-0.36-0.45-0.86-0.45-1.5c0-0.4,0.07-0.76,0.21-1.06c0.14-0.31,0.34-0.54,0.59-0.71
			c0.25-0.17,0.55-0.25,0.88-0.25c0.18,0,0.37,0.03,0.57,0.08c0.19,0.06,0.37,0.13,0.53,0.23l-0.2,0.43
			c-0.31-0.17-0.62-0.25-0.91-0.25c-0.35,0-0.63,0.13-0.83,0.39c-0.2,0.26-0.3,0.63-0.3,1.1c0,0.52,0.1,0.92,0.31,1.19
			c0.21,0.27,0.51,0.4,0.91,0.4c0.3,0,0.59-0.08,0.86-0.25l0.2,0.42c-0.14,0.1-0.3,0.18-0.49,0.24c-0.19,0.06-0.4,0.08-0.61,0.08
			C16.34,55.18,15.91,55,15.61,54.65z"/>
		<path d="M23.55,50.51c0.42,0.45,0.62,1.1,0.62,1.96c0,0.86-0.21,1.52-0.63,1.96c-0.42,0.45-1.03,0.67-1.82,0.67h-1.37v-5.26h1.4
			C22.54,49.84,23.14,50.06,23.55,50.51z M23.14,54.06c0.31-0.36,0.47-0.9,0.47-1.6c0-0.71-0.16-1.24-0.48-1.6
			c-0.32-0.36-0.79-0.54-1.41-0.54h-0.84v4.28h0.86C22.36,54.61,22.82,54.43,23.14,54.06z"/>
		<path d="M25.18,50.42c-0.07-0.07-0.1-0.16-0.1-0.28c0-0.13,0.03-0.22,0.1-0.29c0.06-0.07,0.16-0.1,0.28-0.1s0.21,0.03,0.28,0.1
			c0.07,0.07,0.1,0.16,0.1,0.28c0,0.13-0.03,0.22-0.1,0.29c-0.06,0.07-0.16,0.1-0.28,0.1S25.24,50.49,25.18,50.42z M25.2,51.22h0.52
			v3.88H25.2V51.22z"/>
		<path d="M27.18,55.09c-0.23-0.06-0.43-0.14-0.6-0.25l0.19-0.45c0.35,0.21,0.72,0.32,1.1,0.32c0.29,0,0.51-0.05,0.66-0.16
			c0.15-0.11,0.22-0.27,0.22-0.48c0-0.16-0.05-0.3-0.14-0.39c-0.09-0.1-0.24-0.17-0.44-0.22l-0.52-0.12
			c-0.35-0.08-0.61-0.21-0.78-0.38c-0.17-0.17-0.25-0.4-0.25-0.69c0-0.35,0.12-0.63,0.35-0.83c0.23-0.2,0.56-0.3,0.98-0.3
			c0.21,0,0.42,0.03,0.63,0.08c0.21,0.05,0.39,0.12,0.56,0.21l-0.21,0.45c-0.34-0.17-0.67-0.26-0.99-0.26
			c-0.26,0-0.46,0.05-0.6,0.16c-0.14,0.1-0.2,0.26-0.2,0.45c0,0.15,0.05,0.28,0.14,0.37c0.09,0.1,0.24,0.17,0.44,0.21l0.52,0.12
			c0.35,0.08,0.61,0.21,0.78,0.39c0.17,0.18,0.25,0.42,0.25,0.71c0,0.36-0.12,0.65-0.37,0.85c-0.25,0.2-0.59,0.3-1.03,0.3
			C27.64,55.18,27.4,55.15,27.18,55.09z"/>
		<path d="M32.86,51.67c0.26,0.36,0.38,0.87,0.38,1.52c0,0.63-0.14,1.12-0.41,1.47c-0.27,0.35-0.65,0.53-1.14,0.53
			c-0.2,0-0.38-0.04-0.56-0.12c-0.17-0.08-0.32-0.19-0.45-0.33v1.85h-0.52v-5.08v-0.3h0.49v0.49c0.13-0.19,0.29-0.34,0.48-0.44
			c0.19-0.1,0.41-0.15,0.64-0.15C32.24,51.12,32.6,51.3,32.86,51.67z M32.45,54.33c0.17-0.26,0.25-0.64,0.25-1.14
			c0-0.51-0.09-0.9-0.26-1.16c-0.18-0.26-0.44-0.39-0.78-0.39c-0.19,0-0.36,0.04-0.52,0.11c-0.15,0.08-0.3,0.2-0.44,0.36v2.16
			c0.13,0.14,0.28,0.25,0.45,0.33c0.17,0.08,0.36,0.12,0.55,0.12C32.03,54.71,32.28,54.58,32.45,54.33z"/>
		<path d="M37.02,53.29h-2.59c0.02,0.46,0.13,0.81,0.34,1.04c0.21,0.23,0.5,0.35,0.88,0.35c0.36,0,0.7-0.1,1-0.31l0.2,0.42
			c-0.15,0.12-0.33,0.21-0.55,0.28c-0.22,0.07-0.44,0.1-0.69,0.1c-0.54,0-0.96-0.18-1.27-0.54c-0.3-0.36-0.45-0.85-0.45-1.49
			c0-0.64,0.14-1.14,0.42-1.5c0.28-0.36,0.67-0.54,1.17-0.54c0.49,0,0.87,0.16,1.14,0.49c0.27,0.33,0.41,0.79,0.41,1.37
			C37.05,53.11,37.04,53.21,37.02,53.29z M34.76,51.91c-0.17,0.21-0.27,0.52-0.31,0.94h2.06c0-0.4-0.1-0.71-0.28-0.93
			c-0.18-0.22-0.43-0.33-0.75-0.33C35.18,51.59,34.93,51.7,34.76,51.91z"/>
		<path d="M40.51,51.45c0.21,0.22,0.32,0.52,0.32,0.9v2.75h-0.52v-2.71c0-0.25-0.07-0.43-0.21-0.56c-0.14-0.13-0.34-0.19-0.61-0.19
			c-0.19,0-0.37,0.03-0.54,0.09c-0.16,0.06-0.32,0.16-0.48,0.29v3.08h-0.52v-3.88h0.49v0.41c0.32-0.34,0.72-0.51,1.19-0.51
			C40.01,51.12,40.3,51.23,40.51,51.45z"/>
		<path d="M42.23,55.09c-0.23-0.06-0.43-0.14-0.6-0.25l0.19-0.45c0.35,0.21,0.72,0.32,1.1,0.32c0.29,0,0.51-0.05,0.66-0.16
			c0.15-0.11,0.22-0.27,0.22-0.48c0-0.16-0.05-0.3-0.14-0.39c-0.09-0.1-0.24-0.17-0.44-0.22l-0.52-0.12
			c-0.35-0.08-0.61-0.21-0.78-0.38c-0.17-0.17-0.25-0.4-0.25-0.69c0-0.35,0.12-0.63,0.35-0.83c0.23-0.2,0.56-0.3,0.98-0.3
			c0.21,0,0.42,0.03,0.63,0.08c0.21,0.05,0.39,0.12,0.56,0.21L44,51.86c-0.34-0.17-0.67-0.26-0.99-0.26c-0.26,0-0.46,0.05-0.6,0.16
			c-0.14,0.1-0.2,0.26-0.2,0.45c0,0.15,0.05,0.28,0.14,0.37c0.09,0.1,0.24,0.17,0.44,0.21l0.52,0.12c0.35,0.08,0.61,0.21,0.78,0.39
			c0.17,0.18,0.25,0.42,0.25,0.71c0,0.36-0.12,0.65-0.37,0.85c-0.25,0.2-0.59,0.3-1.03,0.3C42.69,55.18,42.46,55.15,42.23,55.09z"/>
		<path d="M48.06,53.29h-2.59c0.02,0.46,0.13,0.81,0.34,1.04c0.21,0.23,0.5,0.35,0.88,0.35c0.36,0,0.7-0.1,1-0.31l0.2,0.42
			c-0.15,0.12-0.33,0.21-0.55,0.28c-0.22,0.07-0.44,0.1-0.69,0.1c-0.54,0-0.97-0.18-1.27-0.54c-0.3-0.36-0.45-0.85-0.45-1.49
			c0-0.64,0.14-1.14,0.42-1.5c0.28-0.36,0.67-0.54,1.17-0.54c0.49,0,0.87,0.16,1.14,0.49c0.27,0.33,0.41,0.79,0.41,1.37
			C48.08,53.11,48.07,53.21,48.06,53.29z M45.8,51.91c-0.17,0.21-0.27,0.52-0.31,0.94h2.06c0-0.4-0.1-0.71-0.28-0.93
			c-0.18-0.22-0.43-0.33-0.75-0.33C46.21,51.59,45.97,51.7,45.8,51.91z"/>
		<path d="M51.02,51.23l-0.12,0.52c-0.18-0.05-0.35-0.08-0.51-0.08c-0.19,0-0.36,0.04-0.5,0.12c-0.14,0.08-0.27,0.21-0.38,0.38v2.93
			h-0.52v-3.88h0.49v0.54c0.28-0.41,0.63-0.62,1.06-0.62C50.7,51.14,50.86,51.17,51.02,51.23z"/>
	</g>
	<path d="M44.64,17.32c0.98,5.02,0,10.13-2.78,14.44c-3.65,5.66-9.85,9.04-16.59,9.04c-3.78,0-7.47-1.09-10.66-3.15
		c-4.43-2.85-7.48-7.26-8.59-12.41c-1.11-5.15-0.15-10.42,2.7-14.84c3.65-5.66,9.85-9.03,16.59-9.03c3.78,0,7.47,1.09,10.66,3.15
		c3.16,2.04,5.62,4.88,7.17,8.21c0.33-0.33,0.74-0.57,1.18-0.69c-1.66-3.51-4.27-6.5-7.61-8.65C33.3,1.16,29.35,0,25.31,0
		c-7.2,0-13.84,3.61-17.73,9.66C4.53,14.39,3.5,20.03,4.69,25.53c1.19,5.5,4.45,10.21,9.18,13.26c3.41,2.2,7.36,3.37,11.4,3.37
		c7.21,0,13.84-3.61,17.73-9.66c2.95-4.57,4-9.99,3-15.31C45.57,17.35,45.1,17.4,44.64,17.32"/>
	<path d="M14.52,33.65l0.85-0.62l-2.9-1.26l0.36,3.14l0.84-0.62c4.87,5.5,13.17,6.79,19.5,2.96l-0.54-0.9
		C26.75,39.89,19.06,38.72,14.52,33.65"/>
	<path d="M36,8.42l-0.84,0.62l2.89,1.26l-0.36-3.14l-0.84,0.62C31.98,2.29,23.68,1,17.35,4.82l0.55,0.9
		C23.76,2.18,31.46,3.35,36,8.42"/>
	<path d="M27.23,23.8c-1.5,1.07-3.58,0.72-4.65-0.78c-1.07-1.5-0.72-3.58,0.77-4.65c1.5-1.07,3.58-0.72,4.65,0.78
		C29.07,20.64,28.73,22.73,27.23,23.8 M39.64,15.99c-0.01-0.1-0.03-0.2-0.07-0.3c-0.13-0.34-0.4-0.58-0.72-0.7
		c-0.46-0.21-3.39-1.28-8.1,2.65c-0.06-0.11-0.13-0.21-0.2-0.31c-0.79-1.11-1.87-1.89-3.07-2.32l1.24-7.62
		c0.09-0.54-0.21-1.06-0.69-1.27c-0.09-0.04-0.19-0.07-0.3-0.09c-0.36-0.06-0.7,0.06-0.96,0.28c-0.41,0.3-2.8,2.3-1.75,8.33
		c-1.22,0.05-2.44,0.44-3.5,1.2c-0.14,0.1-0.26,0.2-0.39,0.31l-5.97-4.91c-0.42-0.35-1.02-0.36-1.45-0.05
		c-0.08,0.06-0.16,0.13-0.22,0.21c-0.22,0.27-0.3,0.61-0.25,0.93c0,0.01,0,0.03,0.01,0.04v0c0,0.03,0,0.07,0.01,0.12
		c0,0.01,0,0.01,0,0.02c0.01,0.05,0.02,0.11,0.03,0.17c0,0,0,0.01,0,0.01c0.02,0.06,0.03,0.14,0.06,0.22c0,0,0,0.01,0.01,0.01
		c0.02,0.08,0.05,0.17,0.09,0.26c0,0.01,0.01,0.02,0.01,0.03c0.03,0.09,0.08,0.19,0.13,0.3c0,0.01,0.01,0.01,0.01,0.02
		c0.16,0.34,0.38,0.73,0.72,1.14c0,0,0,0,0,0.01c0.87,1.09,2.43,2.36,5.26,3.4c-0.67,1.27-0.9,2.73-0.65,4.14l-7.23,2.72
		c-0.52,0.19-0.82,0.71-0.77,1.23c0.01,0.1,0.03,0.2,0.07,0.3c0.13,0.34,0.4,0.59,0.72,0.7c0.46,0.21,3.38,1.28,8.1-2.64
		c0.07,0.11,0.13,0.22,0.2,0.33c0.79,1.11,1.87,1.88,3.05,2.31l-1.25,7.62c-0.09,0.54,0.2,1.06,0.68,1.28
		c0.09,0.04,0.19,0.07,0.3,0.09c0.36,0.06,0.71-0.06,0.97-0.28c0.41-0.29,2.8-2.29,1.76-8.33c1.22-0.05,2.44-0.44,3.51-1.2
		c0.14-0.1,0.27-0.21,0.4-0.32l5.97,4.9c0.43,0.35,1.02,0.36,1.45,0.05c0.08-0.06,0.16-0.13,0.22-0.21
		c0.23-0.28,0.31-0.64,0.24-0.97c-0.05-0.51-0.58-3.57-6.33-5.69c0.67-1.26,0.89-2.73,0.64-4.14l7.23-2.74
		C39.39,17.02,39.69,16.51,39.64,15.99"/>
	<path d="M45.08,12.48c-0.88,0-1.66,0.53-2,1.34c-0.45,1.1,0.08,2.36,1.18,2.81c0.26,0.11,0.53,0.16,0.81,0.16
		c0.88,0,1.66-0.52,2-1.34c0.22-0.53,0.21-1.12-0.01-1.65c-0.22-0.53-0.64-0.94-1.17-1.16C45.63,12.53,45.36,12.48,45.08,12.48
		 M45.08,17.92c-0.43,0-0.84-0.08-1.24-0.24c-1.68-0.69-2.49-2.61-1.8-4.29c0.51-1.24,1.71-2.05,3.05-2.05
		c0.43,0,0.84,0.08,1.24,0.25c0.81,0.33,1.45,0.96,1.79,1.77c0.34,0.81,0.35,1.7,0.01,2.52C47.62,17.12,46.42,17.92,45.08,17.92"/>
	<path d="M45.06,4.69c-0.63,0-1.19,0.38-1.43,0.96c-0.32,0.79,0.06,1.69,0.85,2.01c0.19,0.08,0.38,0.11,0.58,0.11
		c0.63,0,1.19-0.38,1.43-0.96c0.15-0.38,0.15-0.8-0.01-1.18c-0.16-0.38-0.46-0.68-0.84-0.83C45.46,4.73,45.26,4.69,45.06,4.69
		 M45.06,8.53c-0.3,0-0.59-0.06-0.87-0.17c-1.18-0.48-1.74-1.83-1.26-3c0.36-0.87,1.19-1.43,2.13-1.43c0.3,0,0.59,0.06,0.87,0.17
		c0.57,0.23,1.01,0.67,1.25,1.24c0.24,0.57,0.24,1.19,0.01,1.76C46.84,7.97,46,8.53,45.06,8.53"/>
	<path d="M49.48,11.13c-0.24-0.57-0.68-1.01-1.25-1.24c-0.28-0.11-0.57-0.17-0.87-0.17c-0.94,0-1.78,0.56-2.13,1.43
		c-0.1,0.25-0.15,0.5-0.17,0.76c0.25,0,0.5,0.03,0.75,0.1c0-0.19,0.04-0.39,0.11-0.58c0.24-0.58,0.8-0.96,1.43-0.96
		c0.2,0,0.39,0.04,0.58,0.11c0.38,0.16,0.68,0.45,0.84,0.83c0.16,0.38,0.16,0.8,0,1.18c-0.21,0.51-0.67,0.87-1.21,0.95
		c0.1,0.23,0.17,0.48,0.2,0.73c0.76-0.14,1.41-0.65,1.71-1.39C49.72,12.32,49.71,11.69,49.48,11.13"/>
</g>
</svg>
