<?xml version="1.0" encoding="utf-8"?>
<!-- Generator: Adobe Illustrator 23.0.2, SVG Export Plug-In . SVG Version: 6.00 Build 0)  -->
<svg version="1.1" id="Capa_1" xmlns="http://www.w3.org/2000/svg" xmlns:xlink="http://www.w3.org/1999/xlink" x="0px" y="0px"
	 viewBox="0 0 41.16 58.19" style="enable-background:new 0 0 41.16 58.19;" xml:space="preserve">
<g>
	<g>
		<path d="M26.97,5.4c0-0.3-0.28-0.54-0.64-0.54h-5.56h-5.56c-0.36,0-0.64,0.24-0.64,0.54v1.22c0,0.3,0.28,0.54,0.64,0.54h5.56h5.56
			c0.36,0,0.64-0.24,0.64-0.54V5.4z M26.32,6.5h-5.55h-5.55v-1h5.55h5.55V6.5z"/>
		<path d="M19.24,15.8h1.53h1.6c0.07,0,0.13-0.04,0.17-0.1l1.45-2.5c0.03-0.06,0.03-0.14,0-0.2c-0.03-0.06-0.1-0.1-0.17-0.1h-3.04
			h-2.98c-0.07,0-0.13,0.04-0.17,0.1c-0.04,0.06-0.04,0.13,0,0.19l1.45,2.5C19.11,15.77,19.17,15.8,19.24,15.8z M18.13,13.3h2.64
			h2.71l-1.22,2.11h-1.48h-1.42l-1.13-1.95L18.13,13.3z"/>
		<path d="M22.37,23.26h-1.6h-1.53c-0.07,0-0.14,0.04-0.17,0.1l-1.56,2.71c-0.03,0.06-0.03,0.13,0,0.2l1.56,2.7
			c0.03,0.06,0.1,0.1,0.17,0.1h1.53h1.6c0.07,0,0.13-0.04,0.17-0.1l1.56-2.7c0.04-0.06,0.04-0.14,0-0.2l-1.56-2.71
			C22.5,23.3,22.44,23.26,22.37,23.26z M23.7,26.17l-1.45,2.51h-1.49h-1.42l-1.44-2.51l1.44-2.52h1.42h1.49L23.7,26.17z"/>
		<path d="M23.01,20.7l-0.76,1.31h-1.49h-1.42l-0.74-1.28c-0.15,0-0.31-0.01-0.46-0.02l0.92,1.59c0.03,0.06,0.1,0.1,0.17,0.1h1.53
			h1.6c0.07,0,0.13-0.04,0.17-0.1l0.94-1.62l0.38-0.66l0.25-0.43c0.04-0.06,0.04-0.13,0-0.19l-0.5-0.86l-0.36-0.63l-0.7-1.22
			c-0.03-0.06-0.1-0.1-0.17-0.1h-1.6h-1.53c-0.07,0-0.14,0.04-0.17,0.1l-0.72,1.25c0.15,0,0.29,0.01,0.44,0.01l0.56-0.97h1.42h1.49
			l0.54,0.94l0.36,0.63l0.54,0.95l-0.32,0.55L23.01,20.7z"/>
		<path d="M17.65,17.93l0.87-1.49c0.03-0.06,0.03-0.14,0-0.2l-1.57-2.71c-0.04-0.06-0.1-0.1-0.17-0.1h-2.01
			c-0.11,0-0.2,0.09-0.2,0.19v4.12c0.13,0.01,0.26,0.02,0.39,0.03v-3.96h1.7l1.45,2.52l-0.91,1.58
			C17.36,17.92,17.5,17.92,17.65,17.93z"/>
		<path d="M14.58,20.53v5.17c0,0.11,0.09,0.2,0.2,0.2h2.01c0.07,0,0.13-0.04,0.17-0.1l1.57-2.71c0.03-0.06,0.03-0.14,0-0.19
			l-1.28-2.21c-0.15-0.01-0.31-0.01-0.46-0.02L18.12,23l-1.45,2.51h-1.7v-4.95C14.84,20.55,14.71,20.54,14.58,20.53z"/>
		<path d="M17.43,31.64l1.09-1.88c0.03-0.06,0.03-0.14,0-0.2l-1.57-2.71c-0.04-0.06-0.1-0.1-0.17-0.1h-2.01
			c-0.11,0-0.2,0.09-0.2,0.19v4.85c0.13-0.01,0.26-0.02,0.39-0.03v-4.63h1.7l1.45,2.51l-1.16,2C17.12,31.65,17.27,31.64,17.43,31.64
			z"/>
		<path d="M14.58,34.59v4.44c0,0.11,0.09,0.2,0.2,0.2h2.01c0.07,0,0.13-0.04,0.17-0.1l1.57-2.7c0.03-0.06,0.03-0.13,0-0.2
			l-1.05-1.81c-0.15,0.01-0.29,0.01-0.44,0.02l1.09,1.89l-1.45,2.51h-1.7v-4.28C14.84,34.57,14.71,34.57,14.58,34.59z"/>
		<path d="M17.79,39.67h2.98h3.04c0,0,0,0,0,0c0.11,0,0.2-0.09,0.2-0.2c0-0.05-0.02-0.1-0.05-0.13l-1.43-2.47
			c-0.03-0.06-0.1-0.1-0.17-0.1h-1.6h-1.53c-0.07,0-0.14,0.04-0.17,0.1l-1.45,2.5c-0.04,0.06-0.04,0.14,0,0.2
			C17.66,39.63,17.72,39.67,17.79,39.67z M19.35,37.17h1.42h1.49l1.13,1.96l0.09,0.16h-2.71h-2.64L19.35,37.17z"/>
		<path d="M24.75,39.22h2.01c0.11,0,0.2-0.09,0.2-0.2v-4.37v-0.64v-0.4c0-0.03-0.01-0.06-0.03-0.09c-0.03-0.06-0.1-0.1-0.17-0.1
			h-2.01c-0.07,0-0.13,0.04-0.17,0.1l-0.18,0.31l0,0l-0.36,0.62l-1.03,1.78c-0.03,0.06-0.03,0.13,0,0.2l1.57,2.7
			C24.62,39.19,24.68,39.22,24.75,39.22z M24.48,34.48l0.36-0.62l0,0l0.03-0.05h1.7v0.17v0v0.64v4.21h-1.7l-1.45-2.51L24.48,34.48z"
			/>
		<path d="M26.96,31.87v-4.92c0-0.11-0.09-0.19-0.2-0.19h-2.01c-0.07,0-0.13,0.04-0.17,0.1l-1.57,2.71c-0.04,0.06-0.03,0.13,0,0.2
			l1.11,1.92l0.38,0.66l0,0l0.07,0.13c0.04,0.06,0.1,0.1,0.17,0.1h2.01c0.05,0,0.1-0.02,0.13-0.05c0.01,0,0.03,0,0.04,0v0
			c-0.01,0-0.02,0-0.03,0c0.04-0.04,0.06-0.08,0.06-0.14V31.87z M23.41,29.66l1.45-2.51h1.7v4.69v0.33h-1.7L24.6,31.7L23.41,29.66z"
			/>
		<path d="M26.96,20.46v-0.18c0-0.11-0.09-0.19-0.2-0.19h-2.01c-0.07,0-0.13,0.04-0.17,0.1l-0.26,0.46l-1.3,2.25
			c-0.03,0.06-0.03,0.14,0,0.19l1.57,2.71c0.04,0.06,0.1,0.1,0.17,0.1h2.01c0.11,0,0.2-0.09,0.2-0.2V20.46z M26.57,25.51h-1.7
			L23.41,23l1.37-2.38l0.08-0.14h1.7v0.01V25.51z"/>
		<path d="M26.96,17.68v-4.06c0-0.11-0.09-0.19-0.2-0.19h-2.01c-0.07,0-0.13,0.04-0.17,0.1l-1.57,2.71c-0.03,0.06-0.03,0.13,0,0.2
			l0.85,1.46l0.36,0.62l0.36,0.62c0.04,0.06,0.1,0.1,0.17,0.1h2.01c0.07,0,0.14-0.04,0.17-0.1c0.02-0.03,0.03-0.06,0.03-0.09V17.68z
			 M26.57,18.84h-1.7l-0.21-0.36l-0.36-0.62l-0.89-1.53l1.45-2.52h1.7v3.89v0.64V18.84z"/>
		<path d="M26.27,0h-5.5h-5.5c-1.66,0-3.02,1.51-3.02,3.36v14.17c0.45,0.05,0.88,0.1,1.29,0.14V3.36c0-1.14,0.77-2.07,1.73-2.07h5.5
			h5.5c0.95,0,1.73,0.93,1.73,2.07v28.6v2.79v4.4c0,1.14-0.77,2.07-1.73,2.07h-5.5h-5.5c-0.95,0-1.73-0.93-1.73-2.07v-4.48
			c-0.43,0.04-0.85,0.08-1.29,0.13v4.35c0,1.85,1.35,3.36,3.02,3.36h5.5h5.5c1.66,0,3.01-1.51,3.01-3.36V3.36
			C29.28,1.51,27.93,0,26.27,0z"/>
		<path d="M23.16,33.77L22.8,34.4l-0.54,0.94h-1.49h-1.42l-0.56-0.97c-0.15,0-0.29,0.01-0.44,0.01l0.72,1.25
			c0.03,0.06,0.1,0.1,0.17,0.1h1.53h1.6c0.07,0,0.13-0.04,0.17-0.1l0.7-1.22l0.36-0.62l0-0.01l0.49-0.85c0.04-0.06,0.04-0.13,0-0.19
			l-0.25-0.44l0,0l-0.38-0.65l-0.93-1.62c-0.03-0.06-0.1-0.1-0.17-0.1h-1.6h-1.53c-0.07,0-0.14,0.04-0.17,0.1l-0.91,1.59
			c0.15,0,0.31-0.01,0.46-0.01l0.74-1.28h1.42h1.49l0.76,1.31l0.37,0.65l0,0l0.32,0.55L23.16,33.77L23.16,33.77z"/>
		<path d="M13.55,25.5v-5.05c-0.42-0.04-0.85-0.08-1.29-0.13v3.88C12.82,24.48,13.27,24.94,13.55,25.5z"/>
		<path d="M12.26,29.31v2.71c0.43-0.05,0.85-0.09,1.29-0.13v-3.88C13.27,28.57,12.82,29.03,12.26,29.31z"/>
		<path d="M3.95,23.73c0.15-0.66-0.25-1.32-0.91-1.47c-0.66-0.15-1.32,0.25-1.47,0.91s0.26,1.32,0.91,1.47
			C3.13,24.8,3.79,24.39,3.95,23.73z"/>
		<path d="M7.68,30.02c0-0.42-0.34-0.75-0.75-0.75c-0.42,0-0.75,0.34-0.75,0.75c0,0.42,0.34,0.75,0.75,0.75
			C7.35,30.77,7.68,30.43,7.68,30.02z"/>
		<path d="M10.98,24.64c-1.17,0-2.11,0.95-2.11,2.11c0,1.17,0.95,2.11,2.11,2.11s2.11-0.95,2.11-2.11
			C13.09,25.59,12.15,24.64,10.98,24.64z"/>
		<g>
			<path d="M38.32,29.84H38.3c-0.06,0.46-0.19,0.82-0.88,0.88v0.02c0.68,0.07,0.81,0.43,0.88,0.88h0.02
				c0.06-0.46,0.19-0.82,0.88-0.88v-0.02C38.51,30.66,38.38,30.3,38.32,29.84z"/>
			<path d="M39.2,22.66h-0.02c-0.06,0.46-0.19,0.82-0.88,0.88v0.02c0.68,0.07,0.81,0.43,0.88,0.88h0.02
				c0.06-0.46,0.19-0.82,0.88-0.88v-0.02C39.4,23.48,39.27,23.12,39.2,22.66z"/>
			<path d="M33.74,24.68H33.7c-0.11,0.81-0.35,1.46-1.56,1.58v0.04c1.22,0.12,1.45,0.76,1.56,1.58h0.04
				c0.11-0.81,0.35-1.46,1.56-1.58v-0.04C34.08,26.14,33.85,25.49,33.74,24.68z"/>
		</g>
		<path d="M30.13,18.23c3.46-0.44,6.94-1.15,10.35-2.1c0.05-0.01,0.1-0.02,0.15-0.02c0.3,0,0.54,0.24,0.54,0.54
			c0,0.24-0.16,0.46-0.39,0.52c-3.5,0.97-7.08,1.69-10.64,2.15V18.23z"/>
		<path d="M40.63,36.34c-0.05,0-0.1-0.01-0.15-0.02c-3.4-0.97-6.88-1.7-10.35-2.16v-1.13c3.56,0.45,7.14,1.17,10.64,2.15
			c0.23,0.06,0.39,0.28,0.39,0.52v0.12c0,0.15-0.06,0.28-0.16,0.38C40.9,36.28,40.77,36.34,40.63,36.34L40.63,36.34z"/>
		<path d="M20.35,19.91c-0.63,0-1.3-0.01-2.1-0.03l-0.46-0.02c-1.38-0.05-2.73-0.13-4.01-0.24l-0.22-0.02
			c-0.43-0.04-0.86-0.08-1.28-0.13c-0.35-0.04-0.7-0.08-1.06-0.12C7.6,18.9,3.95,18.17,0.39,17.18C0.16,17.12,0,16.9,0,16.66
			c0-0.29,0.24-0.53,0.54-0.53c0.05,0,0.1,0.01,0.15,0.02c3.45,0.96,6.98,1.67,10.49,2.11c0.35,0.04,0.71,0.09,1.06,0.13
			c0.43,0.05,0.86,0.09,1.29,0.13l0.22,0.02c0.18,0.02,0.37,0.03,0.55,0.04l0.66,0.05c0.63,0.05,1.26,0.09,1.89,0.12l0.44,0.02
			c0.18,0.01,0.36,0.01,0.54,0.02l0.61,0.02c0.63,0.02,1.26,0.02,1.9,0.02l0.23,0v1.08L20.35,19.91z"/>
		<path d="M0.51,36.21C0.23,36.21,0,35.98,0,35.69v-0.05c0-0.23,0.15-0.43,0.37-0.5l0.04-0.01c0.46-0.13,0.89-0.24,1.33-0.35
			l0.45-0.12c0.14-0.04,0.27-0.07,0.41-0.11c0.46-0.11,0.92-0.21,1.37-0.32l0.38-0.09c0.14-0.03,0.28-0.06,0.42-0.09
			c0.47-0.1,0.93-0.19,1.4-0.28l0.36-0.07c0.14-0.03,0.28-0.06,0.42-0.08c0.48-0.09,0.95-0.16,1.43-0.24l0.33-0.05
			c0.15-0.02,0.29-0.05,0.44-0.07c0.49-0.07,0.98-0.14,1.46-0.2l0.26-0.04c0.12-0.02,0.23-0.03,0.35-0.05l0.19-0.02l0.23-0.03
			l1.12-0.12l1.02-0.1l0.83-0.06c0.39-0.03,0.79-0.06,1.18-0.08l0.38-0.02c0.29-0.02,0.59-0.03,0.88-0.05l1.19-0.04
			c0.28-0.01,0.57-0.01,0.85-0.02l0.22,0c0.34-0.01,0.69-0.01,1.03-0.01l0.21,0v1.08l-0.14,0c-0.36,0-0.72,0-1.08,0.01l-0.29,0
			c-0.13,0-0.25,0.01-0.38,0.01l-1.28,0.04l-1.65,0.09c-0.18,0.01-0.36,0.02-0.54,0.04l-1.12,0.08l-1.09,0.1l-0.23,0.02l-0.71,0.08
			c-0.22,0.03-0.43,0.05-0.63,0.08c-0.21,0.03-0.41,0.05-0.62,0.08l-0.42,0.06c-0.4,0.05-0.79,0.11-1.19,0.17
			C9,34.39,8.82,34.42,8.64,34.45l-0.41,0.07c-0.4,0.07-0.79,0.13-1.19,0.2c-0.17,0.03-0.33,0.06-0.5,0.1l-0.44,0.09
			c-0.4,0.08-0.8,0.15-1.19,0.24c-0.16,0.03-0.32,0.07-0.48,0.11l-0.47,0.11c-0.39,0.09-0.78,0.18-1.17,0.27
			c-0.15,0.04-0.3,0.08-0.45,0.12l-0.47,0.12c-0.4,0.1-0.79,0.2-1.19,0.31C0.61,36.2,0.56,36.21,0.51,36.21L0.51,36.21z"/>
	</g>
	<g>
		<path d="M7.12,51.17v5.39H6.6v-4.52l-1.47,3.39H4.56l-1.47-3.39v4.52H2.57v-5.39h0.65l1.63,3.75l1.62-3.75H7.12z"/>
		<path d="M10.52,52.81c0.24,0.21,0.35,0.5,0.35,0.87v2.88h-0.47v-0.5c-0.25,0.38-0.63,0.57-1.13,0.57c-0.37,0-0.66-0.1-0.87-0.31
			c-0.21-0.21-0.31-0.5-0.31-0.86c0-0.47,0.18-0.82,0.55-1.04c0.36-0.22,0.94-0.34,1.72-0.34v-0.35c0-0.24-0.07-0.43-0.22-0.56
			c-0.15-0.13-0.36-0.19-0.65-0.19c-0.31,0-0.61,0.07-0.89,0.22l-0.13-0.43c0.15-0.08,0.32-0.15,0.51-0.2
			c0.19-0.05,0.38-0.07,0.57-0.07C9.96,52.5,10.29,52.6,10.52,52.81z M9.92,56.05c0.16-0.08,0.3-0.2,0.44-0.36V54.5
			c-0.6,0-1.03,0.08-1.31,0.23c-0.28,0.15-0.42,0.38-0.42,0.69c0,0.24,0.07,0.43,0.2,0.55c0.13,0.13,0.32,0.19,0.58,0.19
			C9.59,56.17,9.77,56.13,9.92,56.05z"/>
		<path d="M14.82,52.58v4.07c0,0.48-0.14,0.86-0.42,1.13c-0.28,0.27-0.67,0.41-1.16,0.41c-0.19,0-0.38-0.02-0.56-0.06
			c-0.18-0.04-0.33-0.09-0.46-0.16l0.16-0.46c0.27,0.14,0.55,0.21,0.86,0.21c0.35,0,0.61-0.09,0.79-0.27
			c0.18-0.18,0.27-0.44,0.27-0.79v-0.77c-0.26,0.35-0.61,0.53-1.04,0.53c-0.44,0-0.79-0.18-1.03-0.52
			c-0.25-0.35-0.37-0.84-0.37-1.46c0-0.61,0.13-1.09,0.39-1.43c0.26-0.34,0.63-0.51,1.1-0.51c0.2,0,0.39,0.04,0.56,0.13
			c0.18,0.09,0.32,0.21,0.44,0.37v-0.41H14.82z M13.89,55.81c0.15-0.08,0.29-0.2,0.42-0.36v-2.02c-0.13-0.14-0.28-0.26-0.44-0.33
			c-0.16-0.08-0.33-0.12-0.51-0.12c-0.31,0-0.55,0.12-0.71,0.37c-0.16,0.25-0.24,0.61-0.24,1.09c0,0.49,0.08,0.86,0.25,1.12
			c0.17,0.25,0.42,0.38,0.74,0.38C13.57,55.93,13.74,55.89,13.89,55.81z"/>
		<path d="M16.11,51.76c-0.06-0.07-0.1-0.16-0.1-0.29c0-0.12,0.03-0.22,0.1-0.29s0.15-0.1,0.27-0.1c0.11,0,0.2,0.03,0.27,0.1
			s0.1,0.16,0.1,0.29c0,0.12-0.03,0.22-0.1,0.29c-0.06,0.07-0.15,0.1-0.27,0.1C16.27,51.86,16.18,51.83,16.11,51.76z M16.12,52.58
			h0.52v3.97h-0.52V52.58z"/>
		<path d="M18.09,56.09c-0.29-0.37-0.44-0.88-0.44-1.53c0-0.41,0.07-0.77,0.2-1.08c0.13-0.31,0.32-0.55,0.57-0.73
			c0.25-0.17,0.53-0.26,0.85-0.26c0.36,0,0.71,0.11,1.05,0.32l-0.22,0.41c-0.31-0.17-0.59-0.25-0.85-0.25
			c-0.33,0-0.59,0.14-0.78,0.41c-0.19,0.27-0.28,0.65-0.28,1.14c0,0.54,0.1,0.95,0.29,1.23c0.2,0.28,0.49,0.42,0.87,0.42
			c0.3,0,0.57-0.08,0.83-0.25l0.19,0.4c-0.13,0.1-0.29,0.19-0.47,0.24c-0.19,0.06-0.38,0.09-0.58,0.09
			C18.79,56.64,18.38,56.46,18.09,56.09z"/>
		<path d="M23.33,51.65v2h1.92v0.48h-1.92v2.43H22.8v-5.39h2.89v0.48H23.33z"/>
		<path d="M26.48,51.76c-0.06-0.07-0.1-0.16-0.1-0.29c0-0.12,0.03-0.22,0.1-0.29c0.06-0.07,0.15-0.1,0.27-0.1
			c0.11,0,0.2,0.03,0.27,0.1c0.06,0.07,0.1,0.16,0.1,0.29c0,0.12-0.03,0.22-0.1,0.29c-0.06,0.07-0.15,0.1-0.27,0.1
			C26.63,51.86,26.54,51.83,26.48,51.76z M26.49,52.58h0.52v3.97h-0.52V52.58z"/>
		<path d="M28.5,56.39c-0.14-0.14-0.21-0.34-0.21-0.6v-4.96h0.52v4.94c0,0.13,0.03,0.23,0.09,0.29c0.06,0.06,0.15,0.09,0.28,0.09
			c0.09,0,0.18-0.01,0.28-0.03l0.05,0.43c-0.14,0.04-0.29,0.06-0.43,0.06C28.83,56.6,28.64,56.53,28.5,56.39z"/>
		<path d="M30.78,56.29c-0.19-0.21-0.29-0.52-0.29-0.93v-2.34h-0.65v-0.43h0.65v-1.19h0.52v1.19h1.12v0.43h-1.12v2.27
			c0,0.29,0.06,0.51,0.17,0.65c0.11,0.14,0.29,0.21,0.53,0.21c0.15,0,0.29-0.02,0.39-0.07l0.08,0.44c-0.13,0.06-0.32,0.09-0.55,0.09
			C31.26,56.6,30.98,56.5,30.78,56.29z"/>
		<path d="M35.62,54.71h-2.47c0.02,0.48,0.13,0.84,0.32,1.08c0.2,0.25,0.48,0.37,0.84,0.37c0.35,0,0.66-0.1,0.95-0.31l0.2,0.41
			c-0.15,0.12-0.33,0.22-0.53,0.29c-0.21,0.07-0.42,0.1-0.64,0.1c-0.53,0-0.94-0.18-1.23-0.55c-0.29-0.36-0.44-0.87-0.44-1.52
			s0.14-1.16,0.41-1.53c0.27-0.37,0.65-0.55,1.13-0.55c0.47,0,0.83,0.17,1.09,0.5s0.39,0.8,0.39,1.4
			C35.64,54.51,35.64,54.61,35.62,54.71z M33.46,53.29c-0.17,0.22-0.27,0.55-0.3,0.99h1.96c0-0.41-0.09-0.73-0.26-0.97
			c-0.17-0.23-0.41-0.35-0.71-0.35C33.85,52.96,33.62,53.07,33.46,53.29z"/>
		<path d="M38.59,52.61l-0.11,0.51c-0.19-0.05-0.36-0.08-0.51-0.08c-0.34,0-0.61,0.17-0.82,0.51v3.02h-0.52v-3.97h0.47v0.54
			c0.27-0.41,0.61-0.62,1.03-0.62C38.3,52.51,38.46,52.54,38.59,52.61z"/>
	</g>
</g>
</svg>
