<?xml version="1.0" encoding="utf-8"?>
<!-- Generator: Adobe Illustrator 23.0.2, SVG Export Plug-In . SVG Version: 6.00 Build 0)  -->
<svg version="1.1" id="Capa_1" xmlns="http://www.w3.org/2000/svg" xmlns:xlink="http://www.w3.org/1999/xlink" x="0px" y="0px"
	 viewBox="0 0 37.1 47.18" style="enable-background:new 0 0 37.1 47.18;" xml:space="preserve">
<style type="text/css">
	.st0{clip-path:url(#SVGID_2_);fill:url(#SVGID_3_);}
	.st1{clip-path:url(#SVGID_5_);fill:url(#SVGID_6_);}
	.st2{clip-path:url(#SVGID_8_);fill:url(#SVGID_9_);}
	.st3{fill:#FFFFFF;}
	.st4{fill:url(#SVGID_10_);}
	.st5{fill:url(#SVGID_11_);}
	.st6{fill:url(#SVGID_12_);}
	.st7{fill:url(#SVGID_13_);}
	.st8{fill:url(#SVGID_14_);}
	.st9{fill:url(#SVGID_15_);}
	.st10{fill:url(#SVGID_16_);}
	.st11{fill:url(#SVGID_17_);}
	.st12{fill:url(#SVGID_18_);}
	.st13{fill:url(#SVGID_19_);}
	.st14{fill:url(#SVGID_20_);}
	.st15{fill:url(#SVGID_21_);}
</style>
<g>
	<g>
		<g>
			<defs>
				<path id="SVGID_1_" d="M1.09-0.04c-0.41,0-0.74,0.33-0.74,0.74v45.74c0,0.41,0.33,0.74,0.74,0.74h35.41
					c0.41,0,0.74-0.33,0.74-0.74V0.7c0-0.41-0.33-0.74-0.74-0.74H1.09z"/>
			</defs>
			<clipPath id="SVGID_2_">
				<use xlink:href="#SVGID_1_"  style="overflow:visible;"/>
			</clipPath>
			
				<linearGradient id="SVGID_3_" gradientUnits="userSpaceOnUse" x1="-1095.2123" y1="151.4641" x2="-1094.4039" y2="151.4641" gradientTransform="matrix(45.6357 0 0 -45.6357 49981.1328 6935.7383)">
				<stop  offset="0" style="stop-color:#FBB59E"/>
				<stop  offset="0.2" style="stop-color:#FCFCA8"/>
				<stop  offset="0.4" style="stop-color:#BADEAF"/>
				<stop  offset="0.6" style="stop-color:#CCE7EF"/>
				<stop  offset="0.8" style="stop-color:#CCBDDA"/>
				<stop  offset="0.8834" style="stop-color:#DDC2DD"/>
				<stop  offset="1" style="stop-color:#FCCBE3"/>
			</linearGradient>
			<rect x="0.36" y="-0.04" class="st0" width="36.89" height="47.22"/>
		</g>
		<path d="M1.09,46.59c-0.08,0-0.15-0.07-0.15-0.15V0.7c0-0.08,0.07-0.15,0.15-0.15h35.41c0.08,0,0.15,0.07,0.15,0.15v45.74
			c0,0.08-0.07,0.15-0.15,0.15H1.09z"/>
		<g>
			<defs>
				<polygon id="SVGID_4_" points="8.21,5.09 5.94,8.77 10.18,8.77 10.18,25.66 14.07,25.66 14.07,5.09 				"/>
			</defs>
			<clipPath id="SVGID_5_">
				<use xlink:href="#SVGID_4_"  style="overflow:visible;"/>
			</clipPath>
			
				<linearGradient id="SVGID_6_" gradientUnits="userSpaceOnUse" x1="-1099.9244" y1="168.6324" x2="-1099.1162" y2="168.6324" gradientTransform="matrix(16.7428 35.4175 35.4175 -16.7428 12448.1055 41784.375)">
				<stop  offset="0" style="stop-color:#FBB59E"/>
				<stop  offset="0.2" style="stop-color:#FCFCA8"/>
				<stop  offset="0.4" style="stop-color:#BADEAF"/>
				<stop  offset="0.6" style="stop-color:#CCE7EF"/>
				<stop  offset="0.8" style="stop-color:#CCBDDA"/>
				<stop  offset="0.8834" style="stop-color:#DDC2DD"/>
				<stop  offset="1" style="stop-color:#FCCBE3"/>
			</linearGradient>
			<polygon class="st1" points="12.58,1.96 22.01,21.9 7.43,28.79 -2,8.85 			"/>
		</g>
		<g>
			<defs>
				<path id="SVGID_7_" d="M21.16,21.05c-0.62-0.99-0.93-2.79-0.93-5.39c0-1.99,0.13-3.51,0.4-4.54c0.27-1.03,0.66-1.76,1.17-2.19
					c0.51-0.43,1.1-0.64,1.76-0.64c0.97,0,1.76,0.51,2.37,1.54c0.61,1.03,0.91,2.89,0.91,5.59c0,2.66-0.34,4.57-1.02,5.7
					c-0.56,0.94-1.31,1.41-2.26,1.41C22.58,22.54,21.78,22.04,21.16,21.05 M18.07,7.37c-1.16,1.7-1.75,4.43-1.75,8.2
					c0,2.71,0.3,4.79,0.89,6.25c0.6,1.46,1.42,2.56,2.48,3.27c1.05,0.72,2.35,1.08,3.9,1.08c1.55,0,2.83-0.36,3.84-1.07
					c1.02-0.71,1.82-1.83,2.43-3.35c0.6-1.52,0.9-3.64,0.9-6.37c0-2.7-0.29-4.81-0.88-6.32c-0.59-1.51-1.43-2.64-2.52-3.38
					c-1.09-0.74-2.38-1.11-3.88-1.11C21.17,4.58,19.36,5.51,18.07,7.37"/>
			</defs>
			<clipPath id="SVGID_8_">
				<use xlink:href="#SVGID_7_"  style="overflow:visible;"/>
			</clipPath>
			
				<linearGradient id="SVGID_9_" gradientUnits="userSpaceOnUse" x1="-1099.9139" y1="168.6127" x2="-1099.1058" y2="168.6127" gradientTransform="matrix(16.7436 35.4191 35.4191 -16.7436 12460.3066 41780.3516)">
				<stop  offset="0" style="stop-color:#FBB59E"/>
				<stop  offset="0.2" style="stop-color:#FCFCA8"/>
				<stop  offset="0.4" style="stop-color:#BADEAF"/>
				<stop  offset="0.6" style="stop-color:#CCE7EF"/>
				<stop  offset="0.8" style="stop-color:#CCBDDA"/>
				<stop  offset="0.8834" style="stop-color:#DDC2DD"/>
				<stop  offset="1" style="stop-color:#FCCBE3"/>
			</linearGradient>
			<polygon class="st2" points="28.12,-1 39.1,22.23 18.96,31.75 7.98,8.52 			"/>
		</g>
		<rect x="2.17" y="43.95" class="st3" width="1.98" height="0.26"/>
		<rect x="33.18" y="43.95" class="st3" width="1.98" height="0.26"/>
		<g>
			<linearGradient id="SVGID_10_" gradientUnits="userSpaceOnUse" x1="40.5911" y1="31.1985" x2="5.6293" y2="31.1985">
				<stop  offset="0" style="stop-color:#FBB59E"/>
				<stop  offset="0.2" style="stop-color:#FCFCA8"/>
				<stop  offset="0.4" style="stop-color:#BADEAF"/>
				<stop  offset="0.6" style="stop-color:#CCE7EF"/>
				<stop  offset="0.8" style="stop-color:#CCBDDA"/>
				<stop  offset="0.8834" style="stop-color:#DDC2DD"/>
				<stop  offset="1" style="stop-color:#FCCBE3"/>
			</linearGradient>
			<path class="st4" d="M11.85,29.04h0.81l1.53,4.31h-0.84l-0.27-0.77h-1.67l-0.27,0.77h-0.84L11.85,29.04z M11.69,31.82h1.13
				l-0.57-1.63L11.69,31.82z"/>
			<linearGradient id="SVGID_11_" gradientUnits="userSpaceOnUse" x1="40.591" y1="30.6526" x2="5.6295" y2="30.6526">
				<stop  offset="0" style="stop-color:#FBB59E"/>
				<stop  offset="0.2" style="stop-color:#FCFCA8"/>
				<stop  offset="0.4" style="stop-color:#BADEAF"/>
				<stop  offset="0.6" style="stop-color:#CCE7EF"/>
				<stop  offset="0.8" style="stop-color:#CCBDDA"/>
				<stop  offset="0.8834" style="stop-color:#DDC2DD"/>
				<stop  offset="1" style="stop-color:#FCCBE3"/>
			</linearGradient>
			<path class="st5" d="M15.12,29.04h0.91l1.87,2.93v-2.93h0.8v4.31h-0.85l-1.92-3.03v3.03h-0.8V29.04z M16.51,27.95
				c0.19,0,0.33,0.07,0.46,0.14c0.11,0.08,0.21,0.15,0.31,0.15c0.11,0,0.17-0.09,0.17-0.27h0.46c0,0.48-0.21,0.8-0.62,0.8
				c-0.23,0-0.38-0.11-0.51-0.18c-0.09-0.05-0.16-0.1-0.25-0.1c-0.11,0-0.15,0.08-0.15,0.26H15.9
				C15.9,28.27,16.13,27.95,16.51,27.95z"/>
			<linearGradient id="SVGID_12_" gradientUnits="userSpaceOnUse" x1="40.5911" y1="31.1985" x2="5.6295" y2="31.1985">
				<stop  offset="0" style="stop-color:#FBB59E"/>
				<stop  offset="0.2" style="stop-color:#FCFCA8"/>
				<stop  offset="0.4" style="stop-color:#BADEAF"/>
				<stop  offset="0.6" style="stop-color:#CCE7EF"/>
				<stop  offset="0.8" style="stop-color:#CCBDDA"/>
				<stop  offset="0.8834" style="stop-color:#DDC2DD"/>
				<stop  offset="1" style="stop-color:#FCCBE3"/>
			</linearGradient>
			<path class="st6" d="M19.67,31.2c0-1.22,0.98-2.21,2.2-2.21c1.23,0,2.21,0.99,2.21,2.21c0,1.23-0.98,2.21-2.21,2.21
				C20.65,33.41,19.67,32.43,19.67,31.2z M23.28,31.2c0-0.79-0.63-1.42-1.41-1.42c-0.78,0-1.41,0.64-1.41,1.42
				c0,0.79,0.62,1.42,1.41,1.42C22.66,32.62,23.28,31.98,23.28,31.2z"/>
			<linearGradient id="SVGID_13_" gradientUnits="userSpaceOnUse" x1="40.5912" y1="31.1985" x2="5.6295" y2="31.1985">
				<stop  offset="0" style="stop-color:#FBB59E"/>
				<stop  offset="0.2" style="stop-color:#FCFCA8"/>
				<stop  offset="0.4" style="stop-color:#BADEAF"/>
				<stop  offset="0.6" style="stop-color:#CCE7EF"/>
				<stop  offset="0.8" style="stop-color:#CCBDDA"/>
				<stop  offset="0.8834" style="stop-color:#DDC2DD"/>
				<stop  offset="1" style="stop-color:#FCCBE3"/>
			</linearGradient>
			<path class="st7" d="M24.79,32.64l0.73-0.58c0.22,0.37,0.56,0.58,0.95,0.58c0.42,0,0.66-0.28,0.66-0.58
				c0-0.37-0.44-0.48-0.9-0.62C25.64,31.26,25,31.04,25,30.22c0-0.69,0.6-1.23,1.43-1.23c0.7,0,1.1,0.27,1.45,0.63l-0.66,0.5
				c-0.18-0.27-0.44-0.41-0.78-0.41c-0.39,0-0.6,0.21-0.6,0.49c0,0.34,0.41,0.45,0.88,0.61c0.58,0.19,1.25,0.45,1.25,1.28
				c0,0.68-0.54,1.34-1.49,1.34C25.69,33.41,25.17,33.08,24.79,32.64z"/>
		</g>
		<g>
			<linearGradient id="SVGID_14_" gradientUnits="userSpaceOnUse" x1="2.9362" y1="38.2881" x2="40.5863" y2="38.2881">
				<stop  offset="0" style="stop-color:#FBB59E"/>
				<stop  offset="0.2" style="stop-color:#FCFCA8"/>
				<stop  offset="0.4" style="stop-color:#BADEAF"/>
				<stop  offset="0.6" style="stop-color:#CCE7EF"/>
				<stop  offset="0.8" style="stop-color:#CCBDDA"/>
				<stop  offset="0.8834" style="stop-color:#DDC2DD"/>
				<stop  offset="1" style="stop-color:#FCCBE3"/>
			</linearGradient>
			<path class="st8" d="M2.84,38.29c0-1.23,0.93-2.21,2.2-2.21c0.89,0,1.59,0.45,1.96,1.1L6.29,37.6c-0.27-0.49-0.68-0.75-1.25-0.75
				c-0.8,0-1.41,0.65-1.41,1.44c0,0.8,0.6,1.43,1.44,1.43c0.64,0,1.09-0.37,1.24-0.93H4.95v-0.77h2.24v0.32
				c0,1.16-0.82,2.16-2.11,2.16C3.73,40.5,2.84,39.48,2.84,38.29z"/>
			<linearGradient id="SVGID_15_" gradientUnits="userSpaceOnUse" x1="2.9361" y1="38.2877" x2="40.586" y2="38.2877">
				<stop  offset="0" style="stop-color:#FBB59E"/>
				<stop  offset="0.2" style="stop-color:#FCFCA8"/>
				<stop  offset="0.4" style="stop-color:#BADEAF"/>
				<stop  offset="0.6" style="stop-color:#CCE7EF"/>
				<stop  offset="0.8" style="stop-color:#CCBDDA"/>
				<stop  offset="0.8834" style="stop-color:#DDC2DD"/>
				<stop  offset="1" style="stop-color:#FCCBE3"/>
			</linearGradient>
			<path class="st9" d="M9.21,36.13h0.81l1.54,4.31h-0.84l-0.27-0.77H8.78l-0.27,0.77H7.67L9.21,36.13z M9.05,38.91h1.13l-0.57-1.64
				L9.05,38.91z"/>
			<linearGradient id="SVGID_16_" gradientUnits="userSpaceOnUse" x1="2.9359" y1="38.2877" x2="40.5866" y2="38.2877">
				<stop  offset="0" style="stop-color:#FBB59E"/>
				<stop  offset="0.2" style="stop-color:#FCFCA8"/>
				<stop  offset="0.4" style="stop-color:#BADEAF"/>
				<stop  offset="0.6" style="stop-color:#CCE7EF"/>
				<stop  offset="0.8" style="stop-color:#CCBDDA"/>
				<stop  offset="0.8834" style="stop-color:#DDC2DD"/>
				<stop  offset="1" style="stop-color:#FCCBE3"/>
			</linearGradient>
			<path class="st10" d="M12.48,40.44v-4.31h1.38c1.02,0,1.61,0.61,1.61,1.5c0,0.52-0.26,1-0.73,1.26l0.86,1.55h-0.91L14,39.13
				h-0.72v1.32H12.48z M13.79,38.39c0.66,0,0.88-0.36,0.88-0.79c0-0.44-0.27-0.72-0.88-0.72h-0.51v1.51H13.79z"/>
			<linearGradient id="SVGID_17_" gradientUnits="userSpaceOnUse" x1="2.9362" y1="38.2877" x2="40.5859" y2="38.2877">
				<stop  offset="0" style="stop-color:#FBB59E"/>
				<stop  offset="0.2" style="stop-color:#FCFCA8"/>
				<stop  offset="0.4" style="stop-color:#BADEAF"/>
				<stop  offset="0.6" style="stop-color:#CCE7EF"/>
				<stop  offset="0.8" style="stop-color:#CCBDDA"/>
				<stop  offset="0.8834" style="stop-color:#DDC2DD"/>
				<stop  offset="1" style="stop-color:#FCCBE3"/>
			</linearGradient>
			<path class="st11" d="M17.9,36.13h0.81l1.54,4.31H19.4l-0.27-0.77h-1.67l-0.27,0.77h-0.84L17.9,36.13z M17.74,38.91h1.13
				l-0.57-1.64L17.74,38.91z"/>
			<linearGradient id="SVGID_18_" gradientUnits="userSpaceOnUse" x1="2.936" y1="38.2877" x2="40.5861" y2="38.2877">
				<stop  offset="0" style="stop-color:#FBB59E"/>
				<stop  offset="0.2" style="stop-color:#FCFCA8"/>
				<stop  offset="0.4" style="stop-color:#BADEAF"/>
				<stop  offset="0.6" style="stop-color:#CCE7EF"/>
				<stop  offset="0.8" style="stop-color:#CCBDDA"/>
				<stop  offset="0.8834" style="stop-color:#DDC2DD"/>
				<stop  offset="1" style="stop-color:#FCCBE3"/>
			</linearGradient>
			<path class="st12" d="M21.17,36.13h0.91l1.87,2.93v-2.93h0.8v4.31h-0.86l-1.92-3.03v3.03h-0.8V36.13z"/>
			<linearGradient id="SVGID_19_" gradientUnits="userSpaceOnUse" x1="2.9362" y1="38.2877" x2="40.586" y2="38.2877">
				<stop  offset="0" style="stop-color:#FBB59E"/>
				<stop  offset="0.2" style="stop-color:#FCFCA8"/>
				<stop  offset="0.4" style="stop-color:#BADEAF"/>
				<stop  offset="0.6" style="stop-color:#CCE7EF"/>
				<stop  offset="0.8" style="stop-color:#CCBDDA"/>
				<stop  offset="0.8834" style="stop-color:#DDC2DD"/>
				<stop  offset="1" style="stop-color:#FCCBE3"/>
			</linearGradient>
			<path class="st13" d="M26.89,36.9h-1.15v-0.77h3.11v0.77H27.7v3.54h-0.8V36.9z"/>
			<linearGradient id="SVGID_20_" gradientUnits="userSpaceOnUse" x1="2.9356" y1="37.638" x2="40.5863" y2="37.638">
				<stop  offset="0" style="stop-color:#FBB59E"/>
				<stop  offset="0.2" style="stop-color:#FCFCA8"/>
				<stop  offset="0.4" style="stop-color:#BADEAF"/>
				<stop  offset="0.6" style="stop-color:#CCE7EF"/>
				<stop  offset="0.8" style="stop-color:#CCBDDA"/>
				<stop  offset="0.8834" style="stop-color:#DDC2DD"/>
				<stop  offset="1" style="stop-color:#FCCBE3"/>
			</linearGradient>
			<path class="st14" d="M29.88,36.13h0.8v4.31h-0.8V36.13z M30.69,34.83h0.74l-0.88,1h-0.54L30.69,34.83z"/>
			<linearGradient id="SVGID_21_" gradientUnits="userSpaceOnUse" x1="2.9357" y1="38.2877" x2="40.5861" y2="38.2877">
				<stop  offset="0" style="stop-color:#FBB59E"/>
				<stop  offset="0.2" style="stop-color:#FCFCA8"/>
				<stop  offset="0.4" style="stop-color:#BADEAF"/>
				<stop  offset="0.6" style="stop-color:#CCE7EF"/>
				<stop  offset="0.8" style="stop-color:#CCBDDA"/>
				<stop  offset="0.8834" style="stop-color:#DDC2DD"/>
				<stop  offset="1" style="stop-color:#FCCBE3"/>
			</linearGradient>
			<path class="st15" d="M33.17,36.13h0.81l1.54,4.31h-0.84l-0.27-0.77h-1.67l-0.27,0.77h-0.84L33.17,36.13z M33.01,38.91h1.13
				l-0.57-1.64L33.01,38.91z"/>
		</g>
		<g>
			<path class="st3" d="M5.81,43h0.94v0.2H6.02v0.49h0.74v0.2H6.02v0.49h0.74v0.2H5.81V43z"/>
			<path class="st3" d="M6.99,43h0.24l0.84,1.23V43h0.21v1.57H8.06L7.2,43.32v1.25H6.99V43z"/>
			<path class="st3" d="M9.07,43h0.21v1.37h0.66v0.2H9.07V43z"/>
			<path class="st3" d="M10.7,43h0.22l0.58,1.57h-0.22l-0.13-0.36h-0.68l-0.13,0.36h-0.22L10.7,43z M10.54,44.01h0.53l-0.27-0.72
				L10.54,44.01z"/>
			<path class="st3" d="M12.17,43.79c0-0.46,0.36-0.81,0.81-0.81c0.3,0,0.55,0.16,0.69,0.39l-0.18,0.11
				c-0.1-0.18-0.28-0.31-0.51-0.31c-0.34,0-0.6,0.27-0.6,0.61c0,0.33,0.26,0.6,0.59,0.6c0.25,0,0.43-0.13,0.53-0.33l0.19,0.1
				c-0.13,0.26-0.39,0.44-0.71,0.44C12.52,44.59,12.17,44.23,12.17,43.79z"/>
			<path class="st3" d="M13.87,43h0.94v0.2h-0.74v0.49h0.74v0.2h-0.74v0.49h0.74v0.2h-0.94V43z"/>
			<path class="st3" d="M15.05,43h0.5c0.32,0,0.55,0.22,0.55,0.51c0,0.21-0.13,0.39-0.32,0.47l0.34,0.59h-0.23l-0.31-0.55h-0.32
				v0.55h-0.2V43z M15.25,43.2v0.64h0.27c0.24,0,0.36-0.17,0.36-0.32c0-0.18-0.12-0.31-0.36-0.31H15.25z"/>
			<path class="st3" d="M16.83,43h0.22l0.58,1.57h-0.22l-0.13-0.36H16.6l-0.13,0.36h-0.22L16.83,43z M16.67,44.01h0.53l-0.27-0.72
				L16.67,44.01z M17.09,42.53h0.22L17,42.88h-0.16L17.09,42.53z"/>
			<path class="st3" d="M17.81,43h0.21l0.56,0.77l0.56-0.76V43h0.21v1.57h-0.21v-1.23l-0.57,0.77l-0.55-0.76v1.22h-0.21V43z"/>
			<path class="st3" d="M19.62,43h0.21v1.57h-0.21V43z"/>
			<path class="st3" d="M20.06,43.79c0-0.46,0.36-0.81,0.81-0.81c0.3,0,0.55,0.16,0.69,0.39l-0.18,0.11
				c-0.1-0.18-0.28-0.31-0.51-0.31c-0.34,0-0.6,0.27-0.6,0.61c0,0.33,0.26,0.6,0.59,0.6c0.25,0,0.43-0.13,0.53-0.33l0.19,0.1
				c-0.13,0.26-0.39,0.44-0.71,0.44C20.4,44.59,20.06,44.23,20.06,43.79z"/>
			<path class="st3" d="M22.24,43h0.22l0.58,1.57h-0.22l-0.13-0.36h-0.68l-0.13,0.36h-0.22L22.24,43z M22.08,44.01h0.53l-0.27-0.72
				L22.08,44.01z"/>
			<path class="st3" d="M23.76,43h0.94v0.2h-0.74v0.49h0.74v0.2h-0.74v0.49h0.74v0.2h-0.94V43z"/>
			<path class="st3" d="M24.94,43h0.24l0.84,1.23V43h0.21v1.57H26l-0.86-1.25v1.25h-0.21V43z"/>
			<path class="st3" d="M26.99,43h0.22l0.58,1.57h-0.22l-0.13-0.36h-0.68l-0.13,0.36h-0.22L26.99,43z M26.84,44.01h0.53l-0.27-0.72
				L26.84,44.01z"/>
			<path class="st3" d="M27.98,43h0.21l0.56,0.77l0.56-0.76V43h0.21v1.57h-0.21v-1.23l-0.57,0.77l-0.55-0.76v1.22h-0.21V43z"/>
			<path class="st3" d="M29.77,43h0.94v0.2h-0.74v0.49h0.74v0.2h-0.74v0.49h0.74v0.2h-0.94V43z"/>
			<path class="st3" d="M30.95,43h0.21v1.37h0.66v0.2h-0.87V43z"/>
		</g>
	</g>
</g>
</svg>
