<?xml version="1.0" encoding="utf-8"?>
<!-- Generator: Adobe Illustrator 23.0.2, SVG Export Plug-In . SVG Version: 6.00 Build 0)  -->
<svg version="1.1" id="Capa_1" xmlns="http://www.w3.org/2000/svg" xmlns:xlink="http://www.w3.org/1999/xlink" x="0px" y="0px"
	 viewBox="0 0 58.26 12.53" style="enable-background:new 0 0 58.26 12.53;" xml:space="preserve">
<g>
	<path d="M12.53,6.27C12.53,2.81,9.72,0,6.27,0C2.81,0,0,2.81,0,6.27c0,3.46,2.81,6.27,6.27,6.27c1.36,0,2.68-0.45,3.76-1.26
		l1.05,1.05h2.44l-2.26-2.26C12.08,8.97,12.53,7.64,12.53,6.27z M7.62,6.44H5.18l3.61,3.6c-0.75,0.51-1.62,0.77-2.53,0.77
		c-2.5,0-4.54-2.04-4.54-4.54c0-2.51,2.04-4.54,4.54-4.54s4.54,2.04,4.54,4.54c0,0.93-0.27,1.8-0.79,2.56L7.62,6.44z"/>
	<g>
		<g>
			<path d="M17.08,9.04V2.16h1.98c1.31,0,2.28,0.4,2.99,1.21c0.6,0.73,0.93,1.77,0.93,2.93c0,1.33-0.37,2.37-1.07,3.07l1.16,1.16
				c1.04-0.96,1.6-2.41,1.6-4.26c0-1.54-0.41-2.81-1.23-3.78c-1.26-1.62-3.13-1.82-4.62-1.82h-3.46v8.38H17.08z"/>
			<path d="M27.82,5.04V3.66h-1.41v8.24h1.5V7.44c0-1.68,0.78-2.53,2.33-2.53h0.06v-1.5c-1.12,0.03-1.95,0.53-2.39,1.44L27.82,5.04z
				"/>
			<rect x="31.72" y="0.66" width="1.5" height="1.59"/>
			<rect x="31.72" y="3.66" width="1.5" height="8.24"/>
			<polygon points="38.42,9.97 36.11,3.66 34.54,3.66 37.69,11.9 39.22,11.9 42.37,3.66 40.81,3.66 38.46,10.09 			"/>
			<path d="M47.32,3.41c-2.44,0-4.35,1.92-4.35,4.38c0,2.14,1.63,4.35,4.37,4.35c0.86,0,1.67-0.24,2.35-0.7
				c0.71-0.46,1.26-1.13,1.64-1.98h-1.56c-0.49,0.91-1.35,1.41-2.43,1.41c-1.33,0-2.78-0.91-2.85-2.59l0-0.05h7.13
				c0.13-1.4-0.3-2.65-1.25-3.61C49.57,3.85,48.48,3.41,47.32,3.41z M44.51,7.09l0-0.05c0.08-1.16,1.15-2.36,2.8-2.36l0.06,0
				c1.55,0,2.67,1.22,2.75,2.36l0,0.05H44.51z"/>
		</g>
		<g>
			<path d="M52.46,1.19l-0.83,0V0.65l2.3,0v0.54l-0.83,0v2.94h-0.64L52.46,1.19z M54.4,0.65l0.82,0l1.12,2.61l1.1-2.61l0.82,0
				l0,3.48h-0.6l0-2.73l-1.11,2.73h-0.42l-1.11-2.71l0,2.71H54.4V0.65z"/>
		</g>
	</g>
	<g>
		<g>
			<g>
				<path d="M15.3,11.9h-0.48v-0.29c-0.09,0.17-0.28,0.36-0.67,0.35c-0.71,0-0.84-0.54-0.84-0.92v-1.3h0.51v1.17
					c0,0.32,0.11,0.57,0.47,0.56c0.37,0,0.49-0.24,0.49-0.55V9.75h0.51V11.9z"/>
				<path d="M15.97,9.75h0.51v2.16h-0.51V9.75z"/>
				<path d="M18.12,11.96c0.53,0,0.97-0.34,1.1-0.84h-0.51c-0.05,0.11-0.21,0.37-0.59,0.37c-0.37,0-0.64-0.28-0.64-0.67
					c0-0.18,0.06-0.36,0.18-0.48c0.13-0.13,0.28-0.19,0.45-0.19c0,0,0.01,0,0.01,0c0.27,0,0.49,0.15,0.59,0.39h0.51
					c-0.13-0.51-0.58-0.85-1.12-0.85c-0.63,0-1.13,0.5-1.13,1.14C16.97,11.46,17.48,11.96,18.12,11.96z"/>
				<polygon points="20.69,10.7 21.61,9.8 21.03,9.8 20.22,10.57 20.22,9.09 19.71,9.09 19.71,11.9 20.22,11.9 20.22,10.83 
					21.29,11.9 21.88,11.9 				"/>
			</g>
		</g>
	</g>
</g>
</svg>
