<?xml version="1.0" encoding="utf-8"?>
<!-- Generator: Adobe Illustrator 23.0.2, SVG Export Plug-In . SVG Version: 6.00 Build 0)  -->
<svg version="1.1" id="Capa_1" xmlns="http://www.w3.org/2000/svg" xmlns:xlink="http://www.w3.org/1999/xlink" x="0px" y="0px"
	 viewBox="0 0 47.22 35.11" style="enable-background:new 0 0 47.22 35.11;" xml:space="preserve">
<style type="text/css">
	.st0{fill:url(#SVGID_1_);}
	.st1{fill:#040405;}
	.st2{fill:#FFFFFF;}
</style>
<g>
	<g>
		
			<linearGradient id="SVGID_1_" gradientUnits="userSpaceOnUse" x1="-870.8284" y1="464.8773" x2="-830.0694" y2="505.6363" gradientTransform="matrix(0 -1 1 0 -461.6471 -832.8936)">
			<stop  offset="0" style="stop-color:#88827E"/>
			<stop  offset="0.2635" style="stop-color:#FFFFFF"/>
			<stop  offset="0.2968" style="stop-color:#E7E6E5"/>
			<stop  offset="0.3882" style="stop-color:#A9A5A3"/>
			<stop  offset="0.4547" style="stop-color:#837C7A"/>
			<stop  offset="0.4888" style="stop-color:#746D6A"/>
			<stop  offset="0.5297" style="stop-color:#938D89"/>
			<stop  offset="0.5969" style="stop-color:#C0BCB7"/>
			<stop  offset="0.6485" style="stop-color:#DCD9D3"/>
			<stop  offset="0.6779" style="stop-color:#E6E4DE"/>
			<stop  offset="0.7111" style="stop-color:#DAD8D2"/>
			<stop  offset="0.7718" style="stop-color:#BAB7B1"/>
			<stop  offset="0.8526" style="stop-color:#87827D"/>
			<stop  offset="0.8582" style="stop-color:#837E79"/>
			<stop  offset="1" style="stop-color:#9F9C96"/>
		</linearGradient>
		<path class="st0" d="M47.22,0.69v33.72c0,0.38-0.31,0.69-0.69,0.69H0.69C0.31,35.11,0,34.8,0,34.42V0.69C0,0.31,0.31,0,0.69,0
			h45.83C46.91,0,47.22,0.31,47.22,0.69z"/>
		<g>
			<path class="st1" d="M17.59,27.59c-0.04,0.13-0.07,0.25-0.11,0.36l-0.29,0.85h0.79l-0.29-0.84
				C17.65,27.84,17.62,27.71,17.59,27.59z"/>
			<path class="st1" d="M32.41,27.35c-0.16,0-0.27,0.01-0.35,0.03v1.06h0.36c0.4,0,0.66-0.21,0.66-0.55
				C33.09,27.45,32.72,27.36,32.41,27.35z"/>
			<path class="st1" d="M32.63,31.57c-0.2,0-0.27,0.2-0.27,0.37c0,0.17,0.08,0.36,0.27,0.36c0.19,0,0.27-0.19,0.27-0.37
				C32.9,31.76,32.81,31.57,32.63,31.57z"/>
			<path class="st1" d="M22.52,18.16c0.1-0.07,0.15-0.18,0.15-0.34c0-0.09-0.02-0.18-0.07-0.25c-0.05-0.07-0.11-0.12-0.19-0.15
				c-0.08-0.03-0.23-0.05-0.45-0.05h-0.22v0.88h0.26C22.24,18.27,22.42,18.23,22.52,18.16z"/>
			<polygon class="st1" points="26,19.2 27.15,19.2 26.58,17.73 			"/>
			<path class="st1" d="M26.47,13.11c0.56,0,1-0.28,1.32-0.83c0.4-0.67,0.6-1.78,0.6-3.34c0-1.58-0.18-2.68-0.54-3.28
				c-0.36-0.6-0.82-0.9-1.39-0.9c-0.39,0-0.73,0.12-1.03,0.37c-0.3,0.25-0.53,0.68-0.69,1.28c-0.16,0.61-0.24,1.49-0.24,2.66
				c0,1.52,0.18,2.58,0.54,3.16C25.43,12.82,25.9,13.11,26.47,13.11z"/>
			<path class="st1" d="M18.52,17.58c-0.05-0.07-0.11-0.12-0.2-0.15c-0.08-0.03-0.23-0.05-0.45-0.05h-0.22v0.88h0.26
				c0.26,0,0.44-0.03,0.54-0.1c0.1-0.07,0.15-0.18,0.15-0.34C18.6,17.73,18.57,17.65,18.52,17.58z"/>
			<polygon class="st1" points="13.71,17.73 13.13,19.2 14.28,19.2 			"/>
			<path class="st1" d="M40.26,27.89c0-0.44-0.37-0.53-0.67-0.54c-0.16,0-0.27,0.01-0.34,0.03v1.06h0.36
				C40,28.43,40.26,28.22,40.26,27.89z"/>
			<path class="st1" d="M27.82,23.3c-0.04-0.02-0.09-0.03-0.2-0.03h-0.24v0.53h0.3c0.16,0,0.26-0.1,0.26-0.27
				C27.94,23.42,27.89,23.34,27.82,23.3z"/>
			<path class="st1" d="M32.65,24.39c0.3,0,0.54-0.25,0.54-0.58c0-0.32-0.24-0.56-0.54-0.56c-0.3,0-0.54,0.24-0.54,0.56
				C32.11,24.14,32.35,24.39,32.65,24.39z"/>
			<path class="st1" d="M13.23,23.25c-0.3,0-0.54,0.24-0.54,0.56c0,0.33,0.24,0.58,0.54,0.58c0.3,0,0.54-0.25,0.54-0.58
				C13.77,23.49,13.53,23.25,13.23,23.25z"/>
			<path class="st1" d="M34.36,23.3c-0.04-0.02-0.09-0.03-0.2-0.03h-0.24v0.53h0.3c0.16,0,0.26-0.1,0.26-0.27
				C34.47,23.42,34.43,23.34,34.36,23.3z"/>
			<path d="M0.52,0.52v34.07H46.7V0.52H0.52z M39.3,18.13l0.8-1.55h0.87l-1.26,2.44v1.86h-0.82v-1.86l-1.26-2.44h0.88L39.3,18.13z
				 M34.39,17.39v-0.81h2.38v0.81h-0.78v3.49h-0.83v-3.49H34.39z M34.46,23.99l0.31,0.57h-0.23l-0.31-0.58h-0.31v0.58h-0.21v-1.47
				h0.45c0.15,0,0.22,0.01,0.27,0.03c0.15,0.06,0.25,0.2,0.25,0.4c0,0.19-0.1,0.34-0.26,0.4v0C34.42,23.92,34.44,23.94,34.46,23.99z
				 M30.78,23.48c0-0.23,0.2-0.41,0.47-0.41c0.27,0,0.42,0.15,0.42,0.15l-0.09,0.17c0,0-0.13-0.13-0.32-0.13
				c-0.16,0-0.27,0.1-0.27,0.21c0,0.3,0.71,0.22,0.71,0.7c0,0.23-0.17,0.41-0.47,0.41c-0.31,0-0.49-0.19-0.49-0.19l0.12-0.16
				c0,0,0.16,0.16,0.37,0.16c0.14,0,0.25-0.08,0.25-0.22C31.49,23.86,30.78,23.93,30.78,23.48z M30.48,18.06v2.82h-0.82v-4.3h0.79
				l1.84,2.83v-2.83h0.82v4.3h-0.79L30.48,18.06z M29.64,23.48c0-0.23,0.2-0.41,0.47-0.41c0.27,0,0.42,0.15,0.42,0.15l-0.09,0.17
				c0,0-0.14-0.13-0.32-0.13c-0.16,0-0.27,0.1-0.27,0.21c0,0.3,0.71,0.22,0.71,0.7c0,0.23-0.17,0.41-0.47,0.41
				c-0.31,0-0.49-0.19-0.49-0.19l0.12-0.16c0,0,0.16,0.16,0.37,0.16c0.14,0,0.25-0.08,0.25-0.22
				C30.35,23.86,29.64,23.93,29.64,23.48z M32.65,23.07c0.42,0,0.75,0.33,0.75,0.75c0,0.43-0.33,0.77-0.75,0.77
				c-0.42,0-0.75-0.34-0.75-0.77C31.9,23.39,32.23,23.07,32.65,23.07z M23.25,4.22c0.76-1.09,1.82-1.64,3.17-1.64
				c0.88,0,1.64,0.22,2.27,0.65c0.64,0.43,1.13,1.09,1.47,1.98c0.35,0.89,0.52,2.12,0.52,3.71c0,1.6-0.18,2.85-0.53,3.74
				c-0.35,0.89-0.83,1.54-1.42,1.96c-0.6,0.42-1.35,0.63-2.25,0.63c-0.91,0-1.67-0.21-2.29-0.63c-0.62-0.42-1.1-1.06-1.45-1.92
				c-0.35-0.86-0.52-2.08-0.52-3.66C22.23,6.82,22.57,5.21,23.25,4.22z M27.93,23.99l0.31,0.57h-0.23l-0.31-0.58h-0.31v0.58h-0.21
				v-1.47h0.45c0.15,0,0.22,0.01,0.27,0.03c0.15,0.06,0.25,0.2,0.25,0.4c0,0.19-0.1,0.34-0.26,0.4v0
				C27.88,23.92,27.9,23.94,27.93,23.99z M27.79,20.88L27.45,20H25.7l-0.35,0.89H24.5l1.66-4.3h0.83l1.65,4.3H27.79z M26.92,23.55
				c0,0.28-0.19,0.47-0.46,0.47h-0.33v0.54h-0.21v-1.47h0.54C26.73,23.09,26.92,23.27,26.92,23.55z M25.28,23.42
				c0,0-0.04,0.14-0.08,0.22l-0.29,0.66h-0.18l-0.29-0.66c-0.03-0.08-0.08-0.22-0.08-0.22h0c0,0,0,0.13,0,0.22l-0.07,0.92h-0.21
				l0.12-1.47h0.22l0.34,0.79c0.03,0.08,0.07,0.2,0.07,0.2h0c0,0,0.04-0.12,0.07-0.2l0.34-0.79h0.22l0.12,1.47h-0.2l-0.07-0.92
				C25.28,23.54,25.28,23.42,25.28,23.42L25.28,23.42z M28.51,23.09h0.85v0.18h-0.65v0.46h0.53v0.18h-0.53v0.47h0.68v0.18h-0.89
				V23.09z M22.78,16.71c0.2,0.08,0.36,0.23,0.49,0.42c0.12,0.2,0.18,0.43,0.18,0.7c0,0.28-0.07,0.52-0.2,0.71
				c-0.14,0.19-0.34,0.33-0.61,0.43l1.02,1.91h-0.89l-0.97-1.82h-0.07v1.82H20.9v-4.3h0.87C22.24,16.59,22.58,16.63,22.78,16.71z
				 M17.47,2.88h3.43v12.05h-2.28v-9.9h-2.48L17.47,2.88z M17.85,23.91v0.64h-0.21v-1.47h0.21v0.64h0.76v-0.64h0.21v1.47h-0.21
				v-0.64H17.85z M18.7,20.88l-0.97-1.82h-0.07v1.82h-0.82v-4.3h0.87c0.47,0,0.81,0.04,1.01,0.13c0.2,0.08,0.36,0.23,0.49,0.42
				c0.12,0.2,0.18,0.43,0.18,0.7c0,0.28-0.07,0.52-0.2,0.71c-0.14,0.19-0.34,0.33-0.61,0.43l1.02,1.91H18.7z M16.21,23.27v-0.18
				h1.21v0.18h-0.5v1.29h-0.21v-1.29H16.21z M13.29,16.59h0.83l1.65,4.3h-0.85L14.59,20h-1.75l-0.35,0.89h-0.85L13.29,16.59z
				 M14.5,23.61v0.95h-0.21v-1.47h0.2l0.65,0.95c0.05,0.08,0.12,0.21,0.12,0.21h0c0,0-0.01-0.13-0.01-0.21v-0.95h0.21v1.47h-0.2
				l-0.66-0.95c-0.05-0.08-0.12-0.21-0.12-0.21h0C14.48,23.39,14.5,23.52,14.5,23.61z M6.89,16.59l0.62,2.74l0.77-2.74h0.68
				l0.78,2.74l0.62-2.74h0.81l-0.97,4.3H9.4l-0.79-2.78l-0.78,2.78H7.06l-0.97-4.3H6.89z M1.53,23.9h10.42v0.24H1.53V23.9z
				 M8.36,29.81c-0.31,0.31-0.82,0.48-1.46,0.48c-0.28,0-0.53-0.01-0.76-0.04l-0.06-0.01v-3.26l0.05-0.01
				c0.3-0.04,0.59-0.07,0.89-0.07c0.6,0,1.04,0.14,1.34,0.42c0.31,0.29,0.47,0.69,0.47,1.2C8.84,29.06,8.67,29.5,8.36,29.81z
				 M9.76,30.26H9.22v-3.33h0.54V30.26z M12.88,30.1l-0.04,0.02c-0.19,0.07-0.57,0.18-1.01,0.18c-0.53,0-0.93-0.14-1.24-0.44
				c-0.3-0.29-0.47-0.74-0.47-1.24c0.01-1.03,0.73-1.72,1.8-1.72c0.37,0,0.67,0.08,0.83,0.15l0.05,0.02l-0.14,0.46L12.6,27.5
				c-0.14-0.06-0.34-0.13-0.68-0.13c-0.76,0-1.23,0.47-1.23,1.23c0,0.76,0.45,1.23,1.17,1.23c0.2,0,0.38-0.02,0.49-0.06v-0.85H11.7
				v-0.46h1.18V30.1z M13.9,30.26h-0.54v-3.33h0.54V30.26z M13.23,24.58c-0.42,0-0.75-0.34-0.75-0.77c0-0.42,0.33-0.75,0.75-0.75
				c0.42,0,0.75,0.33,0.75,0.75C13.98,24.25,13.65,24.58,13.23,24.58z M15.68,30.26h-0.55v-2.85h-0.97v-0.48h2.5v0.48h-0.98V30.26z
				 M18.45,30.26l-0.34-1.01h-1.05l-0.33,1.01h-0.56l1.13-3.33h0.59l1.14,3.33H18.45z M19.22,23.09h0.85v0.18h-0.65v0.46h0.53v0.18
				h-0.53v0.47h0.68v0.18h-0.89V23.09z M21.18,30.26h-1.91v-3.33h0.54v2.86h1.37V30.26z M21.6,24.58c-0.44,0-0.75-0.34-0.75-0.77
				c0-0.43,0.32-0.75,0.75-0.75c0.35,0,0.53,0.19,0.53,0.19l-0.1,0.15c0,0-0.17-0.16-0.42-0.16c-0.33,0-0.54,0.25-0.54,0.56
				c0,0.31,0.22,0.58,0.54,0.58c0.28,0,0.45-0.19,0.45-0.19l0.11,0.15C22.17,24.35,21.97,24.58,21.6,24.58z M23.24,31.59h-0.32v0.93
				h-0.26v-0.93h-0.32v-0.24h0.9V31.59z M22.52,30.26v-3.33h0.54v3.33H22.52z M23.06,24.58c-0.42,0-0.75-0.34-0.75-0.77
				c0-0.42,0.33-0.75,0.75-0.75c0.42,0,0.75,0.33,0.75,0.75C23.82,24.25,23.49,24.58,23.06,24.58z M25.08,32.53h-0.72v-1.18h0.69
				v0.24h-0.43v0.21h0.41v0.24h-0.41v0.25h0.45V32.53z M26.13,30.26h-0.52l-1.04-1.66c-0.2-0.32-0.36-0.59-0.48-0.83
				c0.01,0.32,0.02,0.64,0.02,1.06v1.43H23.6v-3.33h0.55l1.05,1.65c0.17,0.27,0.32,0.53,0.45,0.77c-0.02-0.33-0.03-0.66-0.03-1.02
				v-1.4h0.52V30.26z M26.77,32.3c0.07,0,0.15-0.01,0.19-0.04l0.07-0.03l0.06,0.23l-0.05,0.02c-0.07,0.04-0.18,0.06-0.31,0.06
				c-0.35,0-0.58-0.23-0.58-0.59c0-0.36,0.25-0.61,0.61-0.61c0.16,0,0.25,0.04,0.28,0.05l0.05,0.02l-0.07,0.23l-0.07-0.03
				c-0.03-0.01-0.09-0.04-0.18-0.04c-0.22,0-0.35,0.14-0.35,0.37C26.43,32.17,26.56,32.3,26.77,32.3z M29.04,32.53h-0.26v-0.49H28.4
				v0.49h-0.26v-1.18h0.26v0.44h0.38v-0.44h0.26V32.53z M27.96,30.26h-0.55l-1.09-3.33h0.58l0.51,1.62
				c0.12,0.38,0.21,0.69,0.29,0.98c0.08-0.29,0.18-0.61,0.31-0.97l0.56-1.63h0.58L27.96,30.26z M31.09,32.53h-0.24l-0.35-0.56
				c-0.03-0.04-0.05-0.08-0.07-0.12c0,0.05,0,0.11,0,0.17v0.51h-0.25v-1.18h0.25l0.36,0.56c0.02,0.03,0.04,0.07,0.06,0.1
				c0-0.05,0-0.1,0-0.16v-0.5h0.25V32.53z M31.27,30.26h-1.93v-3.33h1.86v0.47h-1.32v0.89h1.25v0.47h-1.25v1.03h1.39V30.26z
				 M32.62,32.54c-0.31,0-0.53-0.25-0.53-0.6c0-0.36,0.23-0.61,0.55-0.61c0.32,0,0.54,0.24,0.54,0.59
				C33.17,32.35,32.89,32.54,32.62,32.54z M33.21,30.26l-0.02-0.03c-0.05-0.09-0.11-0.32-0.22-0.78c-0.09-0.42-0.24-0.56-0.58-0.57
				h-0.32v1.39h-0.54v-3.28l0.05-0.01c0.21-0.04,0.51-0.07,0.81-0.07c0.46,0,0.76,0.09,0.97,0.28c0.17,0.15,0.27,0.39,0.27,0.66
				c0,0.37-0.19,0.67-0.53,0.83c0.19,0.11,0.32,0.33,0.39,0.64c0.1,0.42,0.18,0.75,0.24,0.86l0.05,0.09H33.21z M34.97,32.53h-0.71
				v-1.18h0.26v0.94h0.45V32.53z M35.26,30.26h-0.55v-2.85h-0.98v-0.48h2.5v0.48h-0.98V30.26z M36.54,32.54
				c-0.32,0-0.54-0.25-0.54-0.6c0-0.36,0.23-0.61,0.55-0.61c0.32,0,0.54,0.24,0.54,0.59C37.09,32.35,36.82,32.54,36.54,32.54z
				 M38.27,28.29v0.47h-1.25v1.03h1.39v0.47h-1.93v-3.33h1.86v0.47h-1.32v0.89H38.27z M39,32.46l-0.04,0.02
				c-0.08,0.03-0.2,0.06-0.34,0.06c-0.18,0-0.33-0.05-0.44-0.16c-0.11-0.1-0.17-0.26-0.17-0.44c0-0.36,0.26-0.61,0.63-0.61
				c0.13,0,0.23,0.03,0.29,0.05l0.05,0.02l-0.07,0.23l-0.07-0.03c-0.04-0.02-0.1-0.04-0.21-0.04c-0.22,0-0.36,0.13-0.36,0.36
				c0,0.23,0.13,0.36,0.34,0.36c0.05,0,0.09,0,0.12-0.01v-0.2h-0.21v-0.24H39V32.46z M39.24,28.87v1.39H38.7v-3.28l0.05-0.01
				c0.21-0.04,0.51-0.07,0.81-0.07c0.46,0,0.76,0.09,0.97,0.28c0.17,0.15,0.27,0.39,0.27,0.66c0,0.37-0.19,0.67-0.52,0.83
				c0.19,0.11,0.32,0.32,0.39,0.64c0.09,0.4,0.18,0.74,0.24,0.86l0.05,0.09h-0.57l-0.02-0.03c-0.05-0.09-0.12-0.32-0.22-0.78
				c-0.09-0.42-0.24-0.56-0.58-0.57H39.24z M40.57,32.03v0.49H40.3v-0.49l-0.38-0.68h0.3l0.17,0.32c0.02,0.04,0.03,0.07,0.05,0.1
				c0.01-0.03,0.03-0.05,0.04-0.08l0.18-0.34h0.3L40.57,32.03z M45.69,24.13H35.27V23.9h10.42V24.13z"/>
			<path class="st1" d="M23.06,23.25c-0.3,0-0.54,0.24-0.54,0.56c0,0.33,0.24,0.58,0.54,0.58c0.3,0,0.54-0.25,0.54-0.58
				C23.6,23.49,23.36,23.25,23.06,23.25z"/>
			<path class="st1" d="M26.13,23.27v0.57h0.3c0.18,0,0.29-0.11,0.29-0.29c0-0.18-0.11-0.28-0.28-0.28H26.13z"/>
			<path class="st1" d="M36.55,31.57c-0.2,0-0.27,0.2-0.27,0.37c0,0.17,0.08,0.36,0.27,0.36c0.19,0,0.27-0.19,0.27-0.37
				C36.82,31.76,36.74,31.57,36.55,31.57z"/>
			<path class="st1" d="M7.04,27.36c-0.19,0-0.33,0.02-0.42,0.03v2.42c0.11,0.01,0.25,0.02,0.36,0.02c0.84,0,1.3-0.46,1.3-1.3
				c0-0.37-0.1-0.65-0.3-0.85C7.77,27.47,7.46,27.36,7.04,27.36z"/>
		</g>
		<g>
			<polygon class="st2" points="32.69,2.88 33.81,2.88 33.81,3.27 33.08,3.27 33.08,3.64 33.81,3.64 33.81,4.01 33.08,4.01 
				33.08,4.55 33.81,4.55 33.81,4.94 32.69,4.94 			"/>
			<polygon class="st2" points="31.22,2.88 31.6,3.62 31.98,2.88 32.4,2.88 31.8,4.05 31.8,4.94 31.41,4.94 31.41,4.05 30.8,2.88 
							"/>
			<path class="st2" d="M37.14,4.02c0.13-0.05,0.23-0.12,0.29-0.21c0.07-0.09,0.1-0.2,0.1-0.34c0-0.13-0.03-0.24-0.09-0.33
				c-0.06-0.09-0.14-0.16-0.23-0.2c-0.1-0.04-0.26-0.06-0.48-0.06h-0.41v2.05h0.39V4.07h0.04l0.46,0.87h0.43L37.14,4.02z
				 M36.82,3.69H36.7V3.26h0.11c0.1,0,0.18,0.01,0.21,0.02c0.04,0.01,0.07,0.04,0.09,0.07c0.02,0.03,0.03,0.07,0.03,0.12
				c0,0.08-0.02,0.13-0.07,0.16C37.03,3.67,36.95,3.69,36.82,3.69z"/>
			<path class="st2" d="M35.23,2.88h-0.4l-0.79,2.05h0.41l0.17-0.42h0.84l0.16,0.42h0.41L35.23,2.88z M34.76,4.13l0.28-0.7l0.27,0.7
				H34.76z"/>
		</g>
	</g>
</g>
</svg>
