<?xml version="1.0" encoding="utf-8"?>
<!-- Generator: Adobe Illustrator 23.0.2, SVG Export Plug-In . SVG Version: 6.00 Build 0)  -->
<svg version="1.1" id="Capa_1" xmlns="http://www.w3.org/2000/svg" xmlns:xlink="http://www.w3.org/1999/xlink" x="0px" y="0px"
	 viewBox="0 0 87.51 17.44" style="enable-background:new 0 0 87.51 17.44;" xml:space="preserve">
<g>
	<polygon points="50.83,15.86 50.31,15.86 50.31,15.55 51.72,15.55 51.72,15.86 51.2,15.86 51.2,17.39 50.83,17.39 	"/>
	<polygon points="53.86,15.55 55.03,15.55 55.03,15.85 54.23,15.85 54.23,16.29 54.97,16.29 54.97,16.59 54.23,16.59 54.23,17.09 
		55.05,17.09 55.05,17.39 53.86,17.39 	"/>
	<g>
		<path d="M58.25,16.15c-0.01-0.07-0.03-0.33-0.28-0.33c-0.28,0-0.39,0.31-0.39,0.69c0,0.11,0,0.63,0.36,0.63
			c0.16,0,0.31-0.1,0.32-0.35h0.39c0,0.11-0.02,0.28-0.15,0.43c-0.16,0.17-0.35,0.21-0.51,0.21c-0.6,0-0.79-0.47-0.79-0.93
			c0-0.58,0.31-0.97,0.79-0.97c0.38,0,0.65,0.25,0.65,0.61H58.25z"/>
	</g>
	<polygon points="60.79,15.55 61.17,15.55 61.17,16.29 61.82,16.29 61.82,15.55 62.2,15.55 62.2,17.39 61.83,17.39 61.83,16.59 
		61.17,16.59 61.17,17.39 60.79,17.39 	"/>
	<polygon points="64.34,15.55 64.88,15.55 65.53,17 65.53,15.55 65.88,15.55 65.88,17.39 65.37,17.39 64.69,15.86 64.69,17.39 
		64.34,17.39 	"/>
	<g>
		<path d="M68.54,17c0.05,0.08,0.14,0.15,0.32,0.15c0.15,0,0.25-0.05,0.32-0.17c0.06-0.09,0.12-0.23,0.12-0.53
			c0-0.09-0.01-0.22-0.04-0.33c-0.07-0.23-0.22-0.33-0.4-0.33c-0.14,0-0.25,0.06-0.32,0.15c-0.1,0.13-0.13,0.32-0.13,0.54
			C68.41,16.66,68.44,16.86,68.54,17 M68.86,15.51c0.18,0,0.44,0.04,0.61,0.25c0.18,0.22,0.22,0.51,0.22,0.69
			c0,0.27-0.07,0.55-0.22,0.72c-0.19,0.23-0.47,0.27-0.62,0.27c-0.23,0-0.46-0.08-0.61-0.25c-0.19-0.22-0.21-0.52-0.21-0.69
			C68.02,16.01,68.23,15.51,68.86,15.51"/>
	</g>
	<polygon points="71.83,15.55 72.21,15.55 72.21,17.08 72.95,17.08 72.95,17.39 71.83,17.39 	"/>
	<g>
		<path d="M75.62,17c0.05,0.08,0.14,0.15,0.31,0.15c0.15,0,0.26-0.05,0.32-0.17c0.06-0.09,0.12-0.23,0.12-0.53
			c0-0.09-0.01-0.22-0.04-0.33c-0.08-0.23-0.22-0.33-0.4-0.33c-0.14,0-0.25,0.06-0.32,0.15c-0.1,0.13-0.13,0.32-0.13,0.54
			C75.49,16.66,75.51,16.86,75.62,17 M75.93,15.51c0.18,0,0.44,0.04,0.62,0.25c0.18,0.22,0.22,0.51,0.22,0.69
			c0,0.27-0.08,0.55-0.22,0.72c-0.2,0.23-0.48,0.27-0.62,0.27c-0.23,0-0.46-0.08-0.62-0.25c-0.19-0.22-0.22-0.52-0.22-0.69
			C75.1,16.01,75.31,15.51,75.93,15.51"/>
		<path d="M80.15,16.12c0-0.05,0-0.11-0.05-0.18c-0.07-0.12-0.21-0.14-0.29-0.14c-0.42,0-0.5,0.42-0.5,0.7
			c0,0.13,0.02,0.35,0.15,0.49c0.09,0.1,0.2,0.16,0.41,0.16c0.18,0,0.24-0.02,0.28-0.04v-0.39H79.8v-0.31h0.71v0.92
			c-0.11,0.04-0.28,0.1-0.63,0.1c-0.4,0-0.6-0.1-0.74-0.25c-0.19-0.2-0.23-0.49-0.23-0.69c0-0.65,0.39-1.01,0.91-1.01
			c0.23,0,0.45,0.07,0.59,0.23c0.12,0.14,0.12,0.29,0.12,0.39H80.15z"/>
	</g>
	<polygon points="83.11,15.55 83.47,16.4 83.84,15.55 84.21,15.55 83.63,16.72 83.63,17.39 83.26,17.39 83.26,16.72 82.68,15.55 	
		"/>
	<g>
		<path d="M1.82,8.86c0.13,1.83,1.34,2.2,1.95,2.2c1.03,0,1.91-0.86,1.91-1.95c0-1.36-1.09-1.67-2.57-2.25
			C2.21,6.54,0.2,5.82,0.2,3.53C0.19,1.24,2.03,0,3.83,0c1.48,0,3.33,0.86,3.47,3.38H5.5c-0.12-0.66-0.4-1.72-1.73-1.72
			c-0.94,0-1.75,0.68-1.75,1.72c0,1.19,0.86,1.49,2.71,2.22C6.17,6.24,7.51,7.02,7.51,9c0,1.99-1.26,3.71-3.72,3.71
			c-2.29,0-3.75-1.49-3.78-3.85H1.82z"/>
		<path d="M16.49,7.96c0-1.47-0.98-3.14-2.96-3.14c-0.84,0-1.57,0.35-2.1,0.93c-0.51,0.56-0.83,1.36-0.83,2.25
			c0,0.89,0.31,1.67,0.84,2.23c0.53,0.56,1.28,0.91,2.1,0.91c1.71,0,2.94-1.41,2.94-3.16V7.96z M9.06,3.48h1.54v1.57
			c0.64-1.07,1.73-1.84,3.24-1.84c2.91,0,4.28,2.58,4.28,4.82c0,2.55-1.73,4.72-4.27,4.72c-1.76,0-2.8-1.03-3.18-1.75v1.49v3.28
			H9.06V3.48z"/>
		<path d="M20.91,8.01c0.01,1.34,0.9,3.13,2.96,3.13c1.29,0,2.22-0.76,2.63-1.79c0.19-0.41,0.28-0.88,0.29-1.34
			c0.02-0.46-0.06-0.93-0.25-1.34c-0.4-1.04-1.36-1.85-2.71-1.85c-1.78,0-2.93,1.49-2.93,3.18V8.01z M28.4,12.48h-1.62v-1.57
			c-0.59,1.21-1.81,1.84-3.15,1.84c-2.73,0-4.35-2.25-4.35-4.77c0-2.75,1.89-4.77,4.35-4.77c1.68,0,2.76,0.99,3.15,1.86V3.48h1.62
			V12.48z"/>
		<path d="M38.88,9.32c-0.51,1.95-2.18,3.42-4.3,3.42c-2.77,0-4.53-2.27-4.53-4.77c0-2.67,1.92-4.77,4.45-4.77
			c2.02,0,3.85,1.33,4.38,3.49h-1.67c-0.44-1.21-1.49-1.88-2.65-1.88C33.71,4.8,33.09,5.1,32.5,5.69c-0.5,0.53-0.82,1.37-0.82,2.28
			c0,1.85,1.27,3.16,2.9,3.16c1.42-0.02,2.3-0.93,2.65-1.82H38.88z"/>
		<path d="M47.13,7.18c-0.08-1.19-1.2-2.53-2.8-2.5c-1.65,0-2.72,1.27-2.8,2.5H47.13z M41.5,8.52c0.08,1.82,1.57,2.75,2.85,2.75
			c1.14,0,1.98-0.58,2.45-1.52h1.68c-0.41,0.99-1,1.74-1.71,2.23c-0.72,0.51-1.56,0.76-2.42,0.76c-2.77,0-4.48-2.37-4.48-4.75
			c0-2.58,1.9-4.78,4.47-4.78c1.21,0,2.32,0.48,3.13,1.33c1,1.07,1.42,2.48,1.28,3.99H41.5z"/>
	</g>
	<polygon points="50.31,12.48 50.31,0.23 54.25,0.23 56.42,8.13 58.52,0.23 62.48,0.23 62.48,12.48 59.77,12.48 59.86,3.31 
		57.36,12.48 55.42,12.48 52.93,3.31 53.02,12.48 	"/>
	<g>
		<path d="M66.63,7.93c0,0.84,0.59,2.3,2.15,2.3c0.92,0,1.48-0.46,1.81-1.03c0.22-0.36,0.33-0.76,0.36-1.17
			c0.03-0.41-0.05-0.83-0.22-1.21c-0.28-0.63-0.87-1.27-1.96-1.27c-1.48,0-2.14,1.32-2.14,2.37V7.93z M73.53,12.48h-2.59v-0.99
			c-0.47,0.89-1.54,1.31-2.56,1.31c-2.74,0-4.34-2.28-4.34-4.91c0-3.01,2.04-4.9,4.34-4.9c1.42,0,2.21,0.73,2.56,1.29V3.29h2.59
			V12.48z"/>
	</g>
	<polygon points="77.78,7.56 74.87,3.29 77.97,3.29 79.37,5.71 80.75,3.29 83.82,3.29 80.91,7.56 84.26,12.48 81.09,12.48 
		79.37,9.63 77.61,12.48 74.49,12.48 	"/>
	<polygon points="84.56,1.77 84.07,1.77 84.07,1.45 85.4,1.45 85.4,1.77 84.91,1.77 84.91,3.29 84.56,3.29 	"/>
	<polygon points="85.7,1.45 86.04,1.45 86.6,2.22 87.19,1.45 87.51,1.45 87.51,3.29 87.17,3.29 87.17,2 86.6,2.76 86.05,2.01 
		86.05,3.29 85.7,3.29 	"/>
</g>
</svg>
