<?xml version="1.0" encoding="utf-8"?>
<!-- Generator: Adobe Illustrator 23.0.2, SVG Export Plug-In . SVG Version: 6.00 Build 0)  -->
<svg version="1.1" id="Capa_1" xmlns="http://www.w3.org/2000/svg" xmlns:xlink="http://www.w3.org/1999/xlink" x="0px" y="0px"
	 viewBox="0 0 121.35 15.43" style="enable-background:new 0 0 121.35 15.43;" xml:space="preserve">
<g>
	<polygon points="5.84,3.24 5.84,12.64 3.16,12.64 3.16,3.24 0,3.24 0.06,0.85 8.96,0.85 9.02,3.24 	"/>
	<polygon points="17.93,3.11 19.21,9.36 19.45,10.6 19.49,10.6 19.68,9.34 20.75,3.11 23.14,3.11 21,12.64 18.01,12.64 16.95,6.95 
		16.74,5.68 16.69,5.68 16.47,6.95 15.35,12.64 12.36,12.64 10.08,3.11 12.53,3.11 13.68,9.33 13.9,10.58 13.95,10.58 14.15,9.33 
		15.38,3.11 	"/>
	<g>
		<path d="M24.96,12.64V3.17l2.5-0.11v9.58H24.96z M26.22,2.09c-0.95,0-1.4-0.27-1.4-1.04c0-0.67,0.45-1.05,1.4-1.05
			c0.96,0,1.38,0.36,1.38,1.05C27.6,1.74,27.17,2.09,26.22,2.09"/>
		<path d="M35.69,12.64V6.57c0-1.05-0.54-1.48-1.55-1.48c-0.61,0-1.28,0.27-1.6,0.72v6.83h-2.46V3.16l1.76-0.11l0.36,0.82
			c0.71-0.62,1.64-0.95,2.63-0.95c2.01,0,3.29,1.27,3.29,3.65v6.07H35.69z"/>
		<path d="M51.71,2.64c-0.62-0.28-1.53-0.49-2.47-0.49c-2.49,0-3.54,1.1-3.54,4.48c0,3.61,1.07,4.75,3.59,4.75
			c0.96,0,1.78-0.22,2.47-0.56l0.2,1.35c-0.73,0.38-1.84,0.7-2.88,0.7c-3.5,0-5.09-1.94-5.09-6.23c0-4.06,1.6-5.99,5.16-5.99
			c0.97,0,2.11,0.25,2.76,0.55L51.71,2.64z"/>
		<path d="M57.22,11.59c1.81,0,2.5-0.93,2.5-3.6c0-2.69-0.69-3.6-2.5-3.6c-1.84,0-2.55,0.91-2.55,3.6
			C54.67,10.68,55.38,11.59,57.22,11.59 M57.22,12.85c-2.83,0-4.1-1.39-4.1-4.86c0-3.48,1.28-4.88,4.1-4.88
			c2.83,0,4.03,1.4,4.03,4.88C61.25,11.46,60.03,12.85,57.22,12.85"/>
		<path d="M66.98,11.59c1.81,0,2.5-0.93,2.5-3.6c0-2.69-0.69-3.6-2.5-3.6c-1.84,0-2.55,0.91-2.55,3.6
			C64.43,10.68,65.14,11.59,66.98,11.59 M66.98,12.85c-2.83,0-4.09-1.39-4.09-4.86c0-3.48,1.28-4.88,4.09-4.88
			c2.83,0,4.04,1.4,4.04,4.88C71.01,11.46,69.8,12.85,66.98,12.85"/>
	</g>
	<polygon points="72.85,12.64 72.85,0.24 74.35,0.14 74.35,12.64 	"/>
	<g>
		<path d="M76.79,12.64V3.32l1.49-0.08v9.41H76.79z M77.55,1.7c-0.64,0-0.96-0.2-0.96-0.8c0-0.52,0.32-0.8,0.96-0.8
			c0.64,0,0.96,0.28,0.96,0.8C78.5,1.45,78.19,1.7,77.55,1.7"/>
		<path d="M86.57,12.64V6.45c0-1.38-0.74-1.97-2.13-1.97c-0.8,0-1.75,0.38-2.19,1.06v7.1h-1.5V3.3l1.07-0.08l0.26,0.99h0.04
			C82.77,3.5,83.8,3.1,84.85,3.1c1.99,0,3.19,1.12,3.19,3.35v6.19H86.57z"/>
		<path d="M93.76,4.5c-1.76,0-2.47,0.85-2.47,3.45c0,2.5,0.77,3.33,2.47,3.33c1.3,0,2.13-0.69,2.22-1.3V5.6
			C95.68,5,94.8,4.5,93.76,4.5 M97.46,11.72c0,2.63-1.08,3.71-3.7,3.71c-1.15,0-2.28-0.19-3.18-0.56l0.14-1.27
			c0.82,0.4,1.76,0.58,2.79,0.58c1.67,0,2.47-0.6,2.47-2.23v-0.36h-0.04c-0.6,0.64-1.45,0.99-2.51,0.99c-2.25,0-3.68-1.29-3.68-4.62
			c0-3.34,1.29-4.83,3.73-4.83c1.18,0,2.2,0.42,2.8,1.21h0.03l0.21-1.05h0.94V11.72z"/>
		<path d="M103.73,1.56h-0.87V3.4h0.87c0.67,0,0.97-0.19,0.97-0.92C104.7,1.78,104.42,1.56,103.73,1.56 M103.73,4.21h-0.87v1.86
			h-0.98V0.72h1.85c1.41,0,1.99,0.56,1.99,1.77C105.71,3.6,105.14,4.21,103.73,4.21"/>
	</g>
	<polygon points="106.6,0.49 106.6,6.07 107.51,6.07 107.51,0.43 	"/>
	<g>
		<path d="M112.08,4.6c0,1-0.57,1.54-1.74,1.54c-1.17,0-1.74-0.56-1.74-1.54V1.78h0.9v2.8c0,0.49,0.27,0.75,0.85,0.75
			c0.56,0,0.83-0.25,0.83-0.75v-2.8h0.9V4.6z"/>
		<path d="M114.22,6.15c-0.51,0-0.97-0.11-1.33-0.32l0.11-0.77c0.33,0.22,0.83,0.33,1.22,0.33c0.52,0,0.75-0.23,0.75-0.54
			c0-0.81-2.1-0.39-2.1-1.87c0-0.75,0.52-1.27,1.57-1.27c0.43,0,0.84,0.08,1.19,0.24l-0.08,0.75c-0.36-0.15-0.8-0.22-1.13-0.22
			c-0.42,0-0.68,0.17-0.68,0.46c0,0.75,2.06,0.34,2.06,1.82C115.8,5.6,115.33,6.15,114.22,6.15"/>
	</g>
	<polygon points="118.24,0.7 118.24,2.62 117.93,2.62 117.93,0.7 117.28,0.7 117.28,0.42 118.89,0.42 118.89,0.7 	"/>
	<polygon points="119.57,0.42 120.2,1.98 120.28,2.19 120.29,2.19 120.38,1.98 121.01,0.42 121.35,0.42 121.35,2.62 121.07,2.62 
		121.07,1.16 121.08,0.92 121.07,0.92 120.99,1.14 120.39,2.62 120.18,2.62 119.58,1.16 119.5,0.94 119.49,0.94 119.5,1.18 
		119.5,2.62 119.23,2.62 119.23,0.42 	"/>
</g>
</svg>
