<?xml version="1.0" encoding="utf-8"?>
<!-- Generator: Adobe Illustrator 23.0.2, SVG Export Plug-In . SVG Version: 6.00 Build 0)  -->
<svg version="1.1" id="Capa_1" xmlns="http://www.w3.org/2000/svg" xmlns:xlink="http://www.w3.org/1999/xlink" x="0px" y="0px"
	 viewBox="0 0 37.18 56.69" style="enable-background:new 0 0 37.18 56.69;" xml:space="preserve">
<g>
	<g>
		<path d="M10.56,51.28L9.19,56.6H8.58l-1.03-4.46L6.53,56.6H5.91l-1.36-5.32h0.58l1.09,4.65l1.03-4.64h0.6l1.04,4.63l1.09-4.63
			H10.56z"/>
		<path d="M11.31,56.17c-0.28-0.35-0.42-0.86-0.42-1.53c0-0.67,0.14-1.18,0.42-1.53c0.28-0.35,0.68-0.52,1.2-0.52
			c0.52,0,0.92,0.18,1.2,0.52c0.28,0.35,0.42,0.86,0.42,1.53c0,0.67-0.14,1.18-0.42,1.53c-0.28,0.35-0.68,0.52-1.2,0.52
			C11.98,56.69,11.58,56.52,11.31,56.17z M13.3,55.82c0.18-0.27,0.27-0.66,0.27-1.18s-0.09-0.91-0.27-1.18
			c-0.18-0.27-0.45-0.4-0.79-0.4c-0.35,0-0.62,0.13-0.8,0.4c-0.18,0.27-0.27,0.66-0.27,1.18s0.09,0.91,0.27,1.18
			c0.18,0.27,0.45,0.4,0.79,0.4C12.85,56.22,13.12,56.08,13.3,55.82z"/>
		<path d="M17.81,53.13c0.26,0.37,0.39,0.88,0.39,1.53c0,0.64-0.14,1.13-0.41,1.49c-0.28,0.36-0.66,0.54-1.15,0.54
			c-0.21,0-0.41-0.04-0.59-0.13c-0.18-0.09-0.34-0.21-0.46-0.36v0.4h-0.49v-3.62v-2.03h0.53v2.18c0.26-0.36,0.63-0.54,1.1-0.54
			C17.19,52.58,17.55,52.76,17.81,53.13z M17.39,55.82c0.17-0.26,0.26-0.64,0.26-1.15c0-0.52-0.09-0.91-0.27-1.17
			c-0.18-0.26-0.44-0.4-0.79-0.4c-0.19,0-0.36,0.04-0.52,0.11c-0.16,0.08-0.31,0.2-0.45,0.36v2.18c0.13,0.14,0.28,0.25,0.46,0.33
			c0.18,0.08,0.36,0.12,0.56,0.12C16.97,56.21,17.22,56.08,17.39,55.82z"/>
		<path d="M21.88,53.13c0.26,0.37,0.39,0.88,0.39,1.53c0,0.64-0.14,1.13-0.41,1.49c-0.28,0.36-0.66,0.54-1.15,0.54
			c-0.21,0-0.41-0.04-0.59-0.13c-0.18-0.09-0.34-0.21-0.46-0.36v0.4h-0.49v-3.62v-2.03h0.53v2.18c0.26-0.36,0.63-0.54,1.1-0.54
			C21.26,52.58,21.62,52.76,21.88,53.13z M21.46,55.82c0.17-0.26,0.26-0.64,0.26-1.15c0-0.52-0.09-0.91-0.27-1.17
			c-0.18-0.26-0.44-0.4-0.79-0.4c-0.19,0-0.36,0.04-0.52,0.11c-0.16,0.08-0.31,0.2-0.45,0.36v2.18c0.13,0.14,0.28,0.25,0.46,0.33
			c0.18,0.08,0.36,0.12,0.56,0.12C21.04,56.21,21.29,56.08,21.46,55.82z"/>
		<path d="M23.21,55.8v-4.85h0.53v4.83c0,0.14,0.03,0.24,0.1,0.3c0.06,0.06,0.17,0.09,0.31,0.09c0.08,0,0.18-0.01,0.29-0.03
			l0.05,0.45c-0.15,0.04-0.3,0.06-0.46,0.06C23.49,56.64,23.21,56.36,23.21,55.8z"/>
		<path d="M28.1,54.78h-2.61c0.02,0.46,0.13,0.82,0.34,1.05c0.21,0.24,0.51,0.36,0.89,0.36c0.37,0,0.7-0.1,1.01-0.31l0.21,0.43
			c-0.15,0.12-0.34,0.22-0.55,0.28c-0.22,0.07-0.45,0.1-0.69,0.1c-0.55,0-0.98-0.18-1.28-0.54s-0.46-0.86-0.46-1.51
			c0-0.65,0.14-1.15,0.43-1.51c0.28-0.36,0.68-0.54,1.18-0.54c0.49,0,0.88,0.17,1.15,0.5c0.27,0.33,0.41,0.8,0.41,1.39
			C28.13,54.59,28.12,54.69,28.1,54.78z M25.82,53.38c-0.17,0.21-0.28,0.53-0.31,0.95h2.09c0-0.4-0.1-0.71-0.28-0.94
			c-0.18-0.22-0.44-0.33-0.76-0.33C26.23,53.06,25.99,53.16,25.82,53.38z"/>
	</g>
	<g>
		<path d="M21.72,32.53c0.23-0.47,0.74-1.68,0.86-3.15c0.01-0.09,0.26-2.12-0.11-3.25c-0.02-0.06-0.29-1.08-0.8-1.88
			c0.31-0.36,1.29-1.55,1.47-2.55c0.04-0.23,0.09-0.5,0.12-0.8l-0.73,0.71c-0.14,0.75-0.88,1.71-1.23,2.13
			c-0.09-0.07-0.19-0.14-0.29-0.21c0,0,0,0,0,0l0,0c-0.08-0.05-0.16-0.11-0.25-0.17l-5.36,5.25c0.57,0.43,1.11,0.81,1.52,1.09
			c1.23,0.88,2.76,1.98,3.77,2.76l0,0c0.18,0.15,0.33,0.28,0.43,0.38l0.29,0.28l0,0c1.23,1.32,1.66,2.94,1.86,3.7
			c0.3,1.14-0.01,3.93-0.14,4.96c-5.65-2.43-8.97-5.7-9.87-6.66c-0.91-0.97-1.47-1.76-1.8-2.63L11,32.92
			c0.37,0.85,0.95,1.65,1.83,2.59c0.94,1,4.46,4.47,10.45,6.96l0.36,0.15l0.06-0.39c0.02-0.17,0.58-4.08,0.18-5.6
			C23.65,35.8,23.17,33.98,21.72,32.53"/>
		<path d="M12.66,10.94c-0.38,0.5-1.29,1.74-1.6,2.68c-0.25,0.76-0.64,2.99,0.49,4.2c0.3,0.32,0.82,0.72,1.43,1.15
			c-0.42,0.51-1.28,1.66-1.43,2.86c-0.13,0.99-0.18,2.16,0.21,3.18l4.64-4.55c-0.11-0.07-0.22-0.14-0.34-0.21
			c-0.33-0.21-0.69-0.43-1.06-0.67l-1.4-0.91c-0.7-0.48-1.3-0.93-1.61-1.26c-0.93-0.99-0.56-2.98-0.35-3.6
			c0.27-0.81,1.09-1.95,1.47-2.45c1.06,0.96,2.12,1.82,2.82,2.3c0,0,0.01,0,0.01,0.01c0.37,0.26,0.87,0.59,1.41,0.96
			c0.94,0.63,2.01,1.36,2.93,2.04l3.27-3.2c0.03-1.06-0.26-2.3-1.18-3.68c-0.06-0.1-1.64-2.42-4.46-4.03
			c-2.87-1.64-7.1-4.57-7.8-5.31L9.69,0L9.57,0.58C9.53,0.8,8.52,5.92,9.74,7.74C10.33,8.62,11.47,9.82,12.66,10.94"/>
		<rect x="-6.15" y="20.58" transform="matrix(0.714 -0.7001 0.7001 0.714 -10.0131 19.276)" width="49.49" height="2.63"/>
	</g>
</g>
</svg>
