<?xml version="1.0" encoding="utf-8"?>
<!-- Generator: Adobe Illustrator 23.0.2, SVG Export Plug-In . SVG Version: 6.00 Build 0)  -->
<svg version="1.1" id="Capa_1" xmlns="http://www.w3.org/2000/svg" xmlns:xlink="http://www.w3.org/1999/xlink" x="0px" y="0px"
	 viewBox="0 0 64.04 17.01" style="enable-background:new 0 0 64.04 17.01;" xml:space="preserve">
<style type="text/css">
	.st0{fill:#3F3F3F;}
	.st1{clip-path:url(#SVGID_15_);fill:url(#SVGID_16_);}
	.st2{clip-path:url(#SVGID_19_);fill:url(#SVGID_20_);}
	.st3{clip-path:url(#SVGID_23_);fill:url(#SVGID_24_);}
	.st4{clip-path:url(#SVGID_27_);fill:url(#SVGID_28_);}
	.st5{clip-path:url(#SVGID_31_);fill:url(#SVGID_32_);}
	.st6{clip-path:url(#SVGID_35_);fill:url(#SVGID_36_);}
</style>
<g>
	<g>
		<g>
			<g>
				<defs>
					<path id="SVGID_1_" d="M27.29,9.81c-0.52-0.56-0.78-1.26-0.78-2.08c0-0.84,0.26-1.53,0.78-2.09c0.52-0.56,1.17-0.84,1.94-0.84
						c0.77,0,1.42,0.28,1.93,0.84c0.53,0.57,0.79,1.26,0.79,2.09c0,0.82-0.26,1.52-0.79,2.08c-0.51,0.56-1.16,0.84-1.94,0.84
						C28.45,10.64,27.81,10.37,27.29,9.81 M25.52,0h-1.1v12.35h2.04v-0.98c0.88,0.86,1.91,1.29,3.12,1.29
						c1.28,0,2.37-0.47,3.27-1.44c0.9-0.96,1.35-2.12,1.35-3.49c0-1.37-0.45-2.54-1.35-3.5c-0.89-0.96-1.98-1.45-3.26-1.45
						c-1.11,0-2.1,0.37-2.94,1.12V0H25.52z"/>
				</defs>
				<clipPath id="SVGID_2_">
					<use xlink:href="#SVGID_1_"  style="overflow:visible;"/>
				</clipPath>
			</g>
			<g>
				<defs>
					<path id="SVGID_3_" d="M38.91,9.81c-0.52-0.56-0.78-1.26-0.78-2.08c0-0.84,0.26-1.53,0.78-2.09c0.52-0.55,1.16-0.84,1.95-0.84
						c0.77,0,1.41,0.29,1.94,0.84c0.52,0.56,0.78,1.26,0.78,2.09c0,0.83-0.26,1.53-0.78,2.08c-0.52,0.56-1.18,0.84-1.95,0.84
						C40.07,10.64,39.42,10.37,38.91,9.81 M37.14,0h-1.1v12.35h2.04v-0.98c0.87,0.86,1.91,1.29,3.12,1.29
						c1.28,0,2.37-0.49,3.26-1.44c0.9-0.96,1.36-2.12,1.36-3.49c0-1.37-0.46-2.53-1.36-3.5c-0.89-0.96-1.98-1.45-3.26-1.45
						c-1.11,0-2.1,0.37-2.94,1.12V0H37.14z"/>
				</defs>
				<clipPath id="SVGID_4_">
					<use xlink:href="#SVGID_3_"  style="overflow:visible;"/>
				</clipPath>
			</g>
			<g>
				<defs>
					<polygon id="SVGID_5_" points="48.71,0.31 47.6,0.31 47.6,12.66 48.72,12.66 49.83,12.66 49.83,0.31 					"/>
				</defs>
				<clipPath id="SVGID_6_">
					<use xlink:href="#SVGID_5_"  style="overflow:visible;"/>
				</clipPath>
			</g>
			<g>
				<defs>
					<path id="SVGID_7_" d="M54.63,5.66c0.5-0.57,1.12-0.85,1.86-0.85c0.74,0,1.35,0.28,1.86,0.85c0.33,0.35,0.55,0.78,0.66,1.28
						h-5.04C54.09,6.44,54.31,6.01,54.63,5.66 M53.07,4.23c-0.94,0.96-1.41,2.13-1.41,3.5c0,1.38,0.47,2.54,1.41,3.49
						c0.95,0.96,2.08,1.44,3.43,1.44c1.08,0,2.03-0.29,2.86-0.87c0.82-0.58,1.39-1.39,1.69-2.36h-2.35
						c-0.19,0.37-0.47,0.65-0.86,0.87c-0.39,0.22-0.82,0.33-1.29,0.33c-0.75,0-1.38-0.28-1.88-0.83c-0.3-0.33-0.5-0.7-0.63-1.1h7.22
						c0.06-0.32,0.08-0.65,0.08-0.98c0-1.37-0.47-2.53-1.41-3.5c-0.95-0.96-2.08-1.45-3.43-1.45C55.15,2.78,54.01,3.26,53.07,4.23"
						/>
				</defs>
				<clipPath id="SVGID_8_">
					<use xlink:href="#SVGID_7_"  style="overflow:visible;"/>
				</clipPath>
			</g>
			<g>
				<defs>
					<path id="SVGID_9_" d="M10,2.94v6.2c0,0.92-0.52,1.49-1.4,1.49c-0.86,0-1.37-0.56-1.37-1.49V3.93H5v5.22
						c0,0.92-0.53,1.49-1.4,1.49c-0.86,0-1.37-0.56-1.37-1.49v-6.2H0v6.27c0,2,1.51,3.45,3.6,3.45c0.97,0,1.85-0.32,2.52-0.91
						c0.64,0.59,1.53,0.91,2.49,0.91c2.09,0,3.61-1.45,3.61-3.45V2.94H10z"/>
				</defs>
				<clipPath id="SVGID_10_">
					<use xlink:href="#SVGID_9_"  style="overflow:visible;"/>
				</clipPath>
			</g>
			<g>
				<defs>
					<path id="SVGID_11_" d="M15.57,7.83L15.57,7.83c0-1.72,1.22-2.96,2.72-2.96c1.51,0,2.71,1.24,2.71,2.95
						c0,1.69-1.2,2.94-2.71,2.94C16.79,10.76,15.57,9.52,15.57,7.83 M13.38,7.79v0.03c0,2.48,1.72,5.09,4.91,5.09
						c3.2,0,4.93-2.61,4.93-5.09c0-2.47-1.73-5.08-4.93-5.08C15.1,2.74,13.38,5.35,13.38,7.79"/>
				</defs>
				<clipPath id="SVGID_12_">
					<use xlink:href="#SVGID_11_"  style="overflow:visible;"/>
				</clipPath>
			</g>
		</g>
	</g>
	<g>
		<g>
			<polygon class="st0" points="21.02,15.32 21.6,15.32 21.6,16.97 22.02,16.97 22.02,15.32 22.61,15.32 22.61,14.99 21.02,14.99 
							"/>
			<polygon class="st0" points="26.57,15.31 26.57,14.99 25.24,14.99 25.24,16.97 26.6,16.97 26.6,16.64 25.67,16.64 25.67,16.11 
				26.51,16.11 26.51,15.78 25.67,15.78 25.67,15.31 			"/>
			<path class="st0" d="M30.06,16.69c-0.41,0-0.41-0.55-0.41-0.68c0-0.4,0.12-0.73,0.44-0.73c0.3,0,0.31,0.28,0.33,0.35h0.43
				c0-0.4-0.3-0.65-0.73-0.65c-0.56,0-0.91,0.41-0.91,1.03c0,0.5,0.22,0.99,0.9,0.99c0.18,0,0.4-0.04,0.58-0.22
				c0.15-0.16,0.16-0.35,0.17-0.47h-0.44C30.4,16.59,30.24,16.69,30.06,16.69"/>
			<polygon class="st0" points="35.12,16.97 35.12,14.99 34.69,14.99 34.69,15.78 33.94,15.78 33.94,14.99 33.52,14.99 33.52,16.97 
				33.94,16.97 33.94,16.1 34.7,16.1 34.7,16.97 			"/>
			<polygon class="st0" points="38.52,14.99 37.91,14.99 37.91,16.97 38.31,16.97 38.31,15.33 39.07,16.97 39.65,16.97 39.65,14.99 
				39.26,14.99 39.26,16.54 			"/>
			<path class="st0" d="M43.3,17.01c0.16,0,0.48-0.03,0.7-0.28c0.16-0.18,0.24-0.49,0.24-0.77c0-0.19-0.04-0.5-0.25-0.74
				c-0.2-0.22-0.48-0.27-0.69-0.27c-0.71,0-0.95,0.54-0.95,1.07c0,0.18,0.03,0.51,0.23,0.73C42.77,16.93,43.03,17.01,43.3,17.01
				 M42.94,15.43c0.08-0.11,0.21-0.17,0.37-0.17c0.2,0,0.36,0.11,0.44,0.35c0.04,0.11,0.05,0.26,0.05,0.36
				c0,0.31-0.07,0.47-0.14,0.56c-0.07,0.12-0.19,0.19-0.36,0.19c-0.2,0-0.3-0.08-0.36-0.17c-0.11-0.15-0.15-0.36-0.15-0.55
				C42.79,15.77,42.82,15.55,42.94,15.43"/>
			<polygon class="st0" points="46.95,14.99 46.95,16.97 48.23,16.97 48.23,16.63 47.38,16.63 47.38,14.99 			"/>
			<path class="st0" d="M51.61,14.94c-0.71,0-0.95,0.54-0.95,1.07c0,0.18,0.03,0.51,0.25,0.73c0.18,0.19,0.44,0.27,0.7,0.27
				c0.16,0,0.48-0.03,0.7-0.28c0.17-0.18,0.25-0.49,0.25-0.77c0-0.19-0.04-0.5-0.25-0.74C52.1,15,51.82,14.94,51.61,14.94
				 M51.97,16.52c-0.07,0.12-0.19,0.19-0.36,0.19c-0.2,0-0.3-0.08-0.36-0.17c-0.12-0.15-0.15-0.36-0.15-0.55
				c0-0.23,0.04-0.44,0.15-0.57c0.08-0.11,0.2-0.17,0.36-0.17c0.2,0,0.37,0.11,0.45,0.35c0.04,0.11,0.05,0.26,0.05,0.36
				C52.11,16.27,52.04,16.42,51.97,16.52"/>
			<path class="st0" d="M56.2,15.25c0.1,0,0.25,0.02,0.33,0.14c0.05,0.08,0.05,0.15,0.05,0.21h0.44c0-0.11-0.01-0.26-0.14-0.42
				c-0.15-0.17-0.41-0.24-0.67-0.24c-0.6,0-1.04,0.37-1.04,1.07c0,0.2,0.05,0.52,0.27,0.73c0.15,0.17,0.38,0.27,0.83,0.27
				c0.4,0,0.6-0.07,0.73-0.1v-1h-0.82v0.34h0.39v0.42c-0.05,0.02-0.12,0.04-0.33,0.04c-0.23,0-0.37-0.06-0.46-0.17
				c-0.14-0.15-0.17-0.39-0.17-0.53C55.62,15.69,55.72,15.25,56.2,15.25"/>
			<polygon class="st0" points="60.55,15.89 60.13,15 59.64,15 60.31,16.24 60.31,16.97 60.73,16.97 60.73,16.24 61.4,15 60.96,15 
							"/>
			<path class="st0" d="M13.19,8.22c0,0.04,0.03,0.08,0.04,0.13c0-0.01,0-0.03,0-0.03C13.22,8.28,13.2,8.26,13.19,8.22"/>
		</g>
		<g>
			<g>
				<defs>
					<path id="SVGID_13_" d="M27.29,9.81c-0.52-0.56-0.78-1.26-0.78-2.08c0-0.84,0.26-1.53,0.78-2.09c0.52-0.56,1.17-0.84,1.94-0.84
						c0.77,0,1.42,0.28,1.93,0.84c0.53,0.57,0.79,1.26,0.79,2.09c0,0.82-0.26,1.52-0.79,2.08c-0.51,0.56-1.16,0.84-1.94,0.84
						C28.45,10.64,27.81,10.37,27.29,9.81 M25.52,0h-1.1v12.35h2.04v-0.98c0.88,0.86,1.91,1.29,3.12,1.29
						c1.28,0,2.37-0.47,3.27-1.44c0.9-0.96,1.35-2.12,1.35-3.49c0-1.37-0.45-2.54-1.35-3.5c-0.89-0.96-1.98-1.45-3.26-1.45
						c-1.11,0-2.1,0.37-2.94,1.12V0H25.52z"/>
				</defs>
				<linearGradient id="SVGID_14_" gradientUnits="userSpaceOnUse" x1="29.3027" y1="12.6627" x2="29.3027" y2="0">
					<stop  offset="0" style="stop-color:#0F218B"/>
					<stop  offset="1" style="stop-color:#076FAF"/>
				</linearGradient>
				<use xlink:href="#SVGID_13_"  style="overflow:visible;fill:url(#SVGID_14_);"/>
				<clipPath id="SVGID_15_">
					<use xlink:href="#SVGID_13_"  style="overflow:visible;"/>
				</clipPath>
				<linearGradient id="SVGID_16_" gradientUnits="userSpaceOnUse" x1="29.3027" y1="12.6627" x2="29.3027" y2="0">
					<stop  offset="0" style="stop-color:#0F218B"/>
					<stop  offset="1" style="stop-color:#076FAF"/>
				</linearGradient>
				<rect x="24.41" class="st1" width="9.78" height="12.66"/>
			</g>
			<g>
				<defs>
					<path id="SVGID_17_" d="M38.91,9.81c-0.52-0.56-0.78-1.26-0.78-2.08c0-0.84,0.26-1.53,0.78-2.09c0.52-0.55,1.16-0.84,1.95-0.84
						c0.77,0,1.41,0.29,1.94,0.84c0.52,0.56,0.78,1.26,0.78,2.09c0,0.83-0.26,1.53-0.78,2.08c-0.52,0.56-1.18,0.84-1.95,0.84
						C40.07,10.64,39.42,10.37,38.91,9.81 M37.14,0h-1.1v12.35h2.04v-0.98c0.87,0.86,1.91,1.29,3.12,1.29
						c1.28,0,2.37-0.49,3.26-1.44c0.9-0.96,1.36-2.12,1.36-3.49c0-1.37-0.46-2.53-1.36-3.5c-0.89-0.96-1.98-1.45-3.26-1.45
						c-1.11,0-2.1,0.37-2.94,1.12V0H37.14z"/>
				</defs>
				<linearGradient id="SVGID_18_" gradientUnits="userSpaceOnUse" x1="40.9219" y1="12.6603" x2="40.9219" y2="0">
					<stop  offset="0" style="stop-color:#0F218B"/>
					<stop  offset="1" style="stop-color:#076FAF"/>
				</linearGradient>
				<use xlink:href="#SVGID_17_"  style="overflow:visible;fill:url(#SVGID_18_);"/>
				<clipPath id="SVGID_19_">
					<use xlink:href="#SVGID_17_"  style="overflow:visible;"/>
				</clipPath>
				<linearGradient id="SVGID_20_" gradientUnits="userSpaceOnUse" x1="40.9219" y1="12.6603" x2="40.9219" y2="0">
					<stop  offset="0" style="stop-color:#0F218B"/>
					<stop  offset="1" style="stop-color:#076FAF"/>
				</linearGradient>
				<rect x="36.03" class="st2" width="9.78" height="12.66"/>
			</g>
			<g>
				<defs>
					<polygon id="SVGID_21_" points="48.71,0.31 47.6,0.31 47.6,12.66 48.72,12.66 49.83,12.66 49.83,0.31 					"/>
				</defs>
				<linearGradient id="SVGID_22_" gradientUnits="userSpaceOnUse" x1="48.7187" y1="12.6603" x2="48.7187" y2="0.3104">
					<stop  offset="0" style="stop-color:#0F218B"/>
					<stop  offset="1" style="stop-color:#076FAF"/>
				</linearGradient>
				<use xlink:href="#SVGID_21_"  style="overflow:visible;fill:url(#SVGID_22_);"/>
				<clipPath id="SVGID_23_">
					<use xlink:href="#SVGID_21_"  style="overflow:visible;"/>
				</clipPath>
				<linearGradient id="SVGID_24_" gradientUnits="userSpaceOnUse" x1="48.7187" y1="12.6603" x2="48.7187" y2="0.3104">
					<stop  offset="0" style="stop-color:#0F218B"/>
					<stop  offset="1" style="stop-color:#076FAF"/>
				</linearGradient>
				<rect x="47.6" y="0.31" class="st3" width="2.23" height="12.35"/>
			</g>
			<g>
				<defs>
					<path id="SVGID_25_" d="M54.63,5.66c0.5-0.57,1.12-0.85,1.86-0.85c0.74,0,1.35,0.28,1.86,0.85c0.33,0.35,0.55,0.78,0.66,1.28
						h-5.04C54.09,6.44,54.31,6.01,54.63,5.66 M53.07,4.23c-0.94,0.96-1.41,2.13-1.41,3.5c0,1.38,0.47,2.54,1.41,3.49
						c0.95,0.96,2.08,1.44,3.43,1.44c1.08,0,2.03-0.29,2.86-0.87c0.82-0.58,1.39-1.39,1.69-2.36h-2.35
						c-0.19,0.37-0.47,0.65-0.86,0.87c-0.39,0.22-0.82,0.33-1.29,0.33c-0.75,0-1.38-0.28-1.88-0.83c-0.3-0.33-0.5-0.7-0.63-1.1h7.22
						c0.06-0.32,0.08-0.65,0.08-0.98c0-1.37-0.47-2.53-1.41-3.5c-0.95-0.96-2.08-1.45-3.43-1.45C55.15,2.78,54.01,3.26,53.07,4.23"
						/>
				</defs>
				<linearGradient id="SVGID_26_" gradientUnits="userSpaceOnUse" x1="56.4984" y1="12.6603" x2="56.4984" y2="2.776">
					<stop  offset="0" style="stop-color:#0F218B"/>
					<stop  offset="1" style="stop-color:#076FAF"/>
				</linearGradient>
				<use xlink:href="#SVGID_25_"  style="overflow:visible;fill:url(#SVGID_26_);"/>
				<clipPath id="SVGID_27_">
					<use xlink:href="#SVGID_25_"  style="overflow:visible;"/>
				</clipPath>
				<linearGradient id="SVGID_28_" gradientUnits="userSpaceOnUse" x1="56.4984" y1="12.6603" x2="56.4984" y2="2.776">
					<stop  offset="0" style="stop-color:#0F218B"/>
					<stop  offset="1" style="stop-color:#076FAF"/>
				</linearGradient>
				<rect x="51.66" y="2.78" class="st4" width="9.67" height="9.88"/>
			</g>
			<g>
				<defs>
					<path id="SVGID_29_" d="M10,2.94v6.2c0,0.92-0.52,1.49-1.4,1.49c-0.86,0-1.37-0.56-1.37-1.49V3.93H5v5.22
						c0,0.92-0.53,1.49-1.4,1.49c-0.86,0-1.37-0.56-1.37-1.49v-6.2H0v6.27c0,2,1.51,3.45,3.6,3.45c0.97,0,1.85-0.32,2.52-0.91
						c0.64,0.59,1.53,0.91,2.49,0.91c2.09,0,3.61-1.45,3.61-3.45V2.94H10z"/>
				</defs>
				<linearGradient id="SVGID_30_" gradientUnits="userSpaceOnUse" x1="6.1034" y1="12.6627" x2="6.1034" y2="2.9424">
					<stop  offset="0" style="stop-color:#0F218B"/>
					<stop  offset="1" style="stop-color:#076FAF"/>
				</linearGradient>
				<use xlink:href="#SVGID_29_"  style="overflow:visible;fill:url(#SVGID_30_);"/>
				<clipPath id="SVGID_31_">
					<use xlink:href="#SVGID_29_"  style="overflow:visible;"/>
				</clipPath>
				<linearGradient id="SVGID_32_" gradientUnits="userSpaceOnUse" x1="6.1034" y1="12.6627" x2="6.1034" y2="2.9424">
					<stop  offset="0" style="stop-color:#0F218B"/>
					<stop  offset="1" style="stop-color:#076FAF"/>
				</linearGradient>
				<rect y="2.94" class="st5" width="12.21" height="9.72"/>
			</g>
			<g>
				<defs>
					<path id="SVGID_33_" d="M15.57,7.83L15.57,7.83c0-1.72,1.22-2.96,2.72-2.96c1.51,0,2.71,1.24,2.71,2.95
						c0,1.69-1.2,2.94-2.71,2.94C16.79,10.76,15.57,9.52,15.57,7.83 M13.38,7.79v0.03c0,2.48,1.72,5.09,4.91,5.09
						c3.2,0,4.93-2.61,4.93-5.09c0-2.47-1.73-5.08-4.93-5.08C15.1,2.74,13.38,5.35,13.38,7.79"/>
				</defs>
				<linearGradient id="SVGID_34_" gradientUnits="userSpaceOnUse" x1="18.2934" y1="12.9135" x2="18.2934" y2="2.7373">
					<stop  offset="0" style="stop-color:#0F218B"/>
					<stop  offset="1" style="stop-color:#076FAF"/>
				</linearGradient>
				<use xlink:href="#SVGID_33_"  style="overflow:visible;fill:url(#SVGID_34_);"/>
				<clipPath id="SVGID_35_">
					<use xlink:href="#SVGID_33_"  style="overflow:visible;"/>
				</clipPath>
				<linearGradient id="SVGID_36_" gradientUnits="userSpaceOnUse" x1="18.2934" y1="12.9135" x2="18.2934" y2="2.7373">
					<stop  offset="0" style="stop-color:#0F218B"/>
					<stop  offset="1" style="stop-color:#076FAF"/>
				</linearGradient>
				<rect x="13.38" y="2.74" class="st6" width="9.83" height="10.18"/>
			</g>
		</g>
		<g>
			<path class="st0" d="M13.19,8.22c0,0.04,0.03,0.08,0.04,0.13c0-0.01,0-0.03,0-0.03C13.22,8.28,13.2,8.26,13.19,8.22"/>
			<polygon class="st0" points="61.05,2.92 61.05,1.36 60.49,1.36 60.49,1.04 61.99,1.04 61.99,1.36 61.43,1.36 61.43,2.92 			"/>
			<polygon class="st0" points="62.22,2.92 62.22,1.04 62.79,1.04 63.13,2.32 63.47,1.04 64.04,1.04 64.04,2.92 63.69,2.92 
				63.69,1.44 63.32,2.92 62.95,2.92 62.57,1.44 62.57,2.92 			"/>
		</g>
	</g>
	<g>
		<g>
			<g>
				<defs>
					<path id="SVGID_37_" d="M27.29,9.81c-0.52-0.56-0.78-1.26-0.78-2.08c0-0.84,0.26-1.53,0.78-2.09c0.52-0.56,1.17-0.84,1.94-0.84
						c0.77,0,1.42,0.28,1.93,0.84c0.53,0.57,0.79,1.26,0.79,2.09c0,0.82-0.26,1.52-0.79,2.08c-0.51,0.56-1.16,0.84-1.94,0.84
						C28.45,10.64,27.81,10.37,27.29,9.81 M25.52,0h-1.1v12.35h2.04v-0.98c0.88,0.86,1.91,1.29,3.12,1.29
						c1.28,0,2.37-0.47,3.27-1.44c0.9-0.96,1.35-2.12,1.35-3.49c0-1.37-0.45-2.54-1.35-3.5c-0.89-0.96-1.98-1.45-3.26-1.45
						c-1.11,0-2.1,0.37-2.94,1.12V0H25.52z"/>
				</defs>
				<clipPath id="SVGID_38_">
					<use xlink:href="#SVGID_37_"  style="overflow:visible;"/>
				</clipPath>
			</g>
			<g>
				<defs>
					<path id="SVGID_39_" d="M38.91,9.81c-0.52-0.56-0.78-1.26-0.78-2.08c0-0.84,0.26-1.53,0.78-2.09c0.52-0.55,1.16-0.84,1.95-0.84
						c0.77,0,1.41,0.29,1.94,0.84c0.52,0.56,0.78,1.26,0.78,2.09c0,0.83-0.26,1.53-0.78,2.08c-0.52,0.56-1.18,0.84-1.95,0.84
						C40.07,10.64,39.42,10.37,38.91,9.81 M37.14,0h-1.1v12.35h2.04v-0.98c0.87,0.86,1.91,1.29,3.12,1.29
						c1.28,0,2.37-0.49,3.26-1.44c0.9-0.96,1.36-2.12,1.36-3.49c0-1.37-0.46-2.53-1.36-3.5c-0.89-0.96-1.98-1.45-3.26-1.45
						c-1.11,0-2.1,0.37-2.94,1.12V0H37.14z"/>
				</defs>
				<clipPath id="SVGID_40_">
					<use xlink:href="#SVGID_39_"  style="overflow:visible;"/>
				</clipPath>
			</g>
			<g>
				<defs>
					<polygon id="SVGID_41_" points="48.71,0.31 47.6,0.31 47.6,12.66 48.72,12.66 49.83,12.66 49.83,0.31 					"/>
				</defs>
				<clipPath id="SVGID_42_">
					<use xlink:href="#SVGID_41_"  style="overflow:visible;"/>
				</clipPath>
			</g>
			<g>
				<defs>
					<path id="SVGID_43_" d="M54.63,5.66c0.5-0.57,1.12-0.85,1.86-0.85c0.74,0,1.35,0.28,1.86,0.85c0.33,0.35,0.55,0.78,0.66,1.28
						h-5.04C54.09,6.44,54.31,6.01,54.63,5.66 M53.07,4.23c-0.94,0.96-1.41,2.13-1.41,3.5c0,1.38,0.47,2.54,1.41,3.49
						c0.95,0.96,2.08,1.44,3.43,1.44c1.08,0,2.03-0.29,2.86-0.87c0.82-0.58,1.39-1.39,1.69-2.36h-2.35
						c-0.19,0.37-0.47,0.65-0.86,0.87c-0.39,0.22-0.82,0.33-1.29,0.33c-0.75,0-1.38-0.28-1.88-0.83c-0.3-0.33-0.5-0.7-0.63-1.1h7.22
						c0.06-0.32,0.08-0.65,0.08-0.98c0-1.37-0.47-2.53-1.41-3.5c-0.95-0.96-2.08-1.45-3.43-1.45C55.15,2.78,54.01,3.26,53.07,4.23"
						/>
				</defs>
				<clipPath id="SVGID_44_">
					<use xlink:href="#SVGID_43_"  style="overflow:visible;"/>
				</clipPath>
			</g>
			<g>
				<defs>
					<path id="SVGID_45_" d="M10,2.94v6.2c0,0.92-0.52,1.49-1.4,1.49c-0.86,0-1.37-0.56-1.37-1.49V3.93H5v5.22
						c0,0.92-0.53,1.49-1.4,1.49c-0.86,0-1.37-0.56-1.37-1.49v-6.2H0v6.27c0,2,1.51,3.45,3.6,3.45c0.97,0,1.85-0.32,2.52-0.91
						c0.64,0.59,1.53,0.91,2.49,0.91c2.09,0,3.61-1.45,3.61-3.45V2.94H10z"/>
				</defs>
				<clipPath id="SVGID_46_">
					<use xlink:href="#SVGID_45_"  style="overflow:visible;"/>
				</clipPath>
			</g>
			<g>
				<defs>
					<path id="SVGID_47_" d="M15.57,7.83L15.57,7.83c0-1.72,1.22-2.96,2.72-2.96c1.51,0,2.71,1.24,2.71,2.95
						c0,1.69-1.2,2.94-2.71,2.94C16.79,10.76,15.57,9.52,15.57,7.83 M13.38,7.79v0.03c0,2.48,1.72,5.09,4.91,5.09
						c3.2,0,4.93-2.61,4.93-5.09c0-2.47-1.73-5.08-4.93-5.08C15.1,2.74,13.38,5.35,13.38,7.79"/>
				</defs>
				<clipPath id="SVGID_48_">
					<use xlink:href="#SVGID_47_"  style="overflow:visible;"/>
				</clipPath>
			</g>
		</g>
	</g>
</g>
</svg>
