<?xml version="1.0" encoding="utf-8"?>
<!-- Generator: Adobe Illustrator 23.0.2, SVG Export Plug-In . SVG Version: 6.00 Build 0)  -->
<svg version="1.1" id="Capa_1" xmlns="http://www.w3.org/2000/svg" xmlns:xlink="http://www.w3.org/1999/xlink" x="0px" y="0px"
	 viewBox="0 0 60 60" style="enable-background:new 0 0 60 60;" xml:space="preserve">
<style type="text/css">
	.st0{fill:#FFFFFF;}
</style>
<g>
	<path class="st0" d="M6.11,56.92v0.76H1.75v-7.67h4.23v0.76H2.61v2.59h2.51v0.77H2.61v2.77H6.11z"/>
	<path class="st0" d="M7.68,57.43c-0.21-0.2-0.31-0.5-0.31-0.89v-7.01h0.84v6.94c0,0.19,0.04,0.33,0.13,0.41
		c0.08,0.08,0.22,0.12,0.39,0.12c0.13,0,0.26-0.01,0.39-0.04l0.07,0.7c-0.21,0.06-0.43,0.08-0.65,0.08
		C8.17,57.73,7.89,57.63,7.68,57.43z"/>
	<path class="st0" d="M14.24,55.06h-3.47c0.03,0.64,0.18,1.13,0.45,1.46c0.27,0.33,0.66,0.5,1.16,0.5c0.49,0,0.94-0.14,1.33-0.42
		l0.32,0.65c-0.22,0.18-0.48,0.31-0.77,0.41c-0.3,0.1-0.61,0.14-0.93,0.14c-0.75,0-1.34-0.26-1.77-0.78s-0.63-1.24-0.63-2.18
		s0.2-1.66,0.59-2.18c0.39-0.52,0.94-0.78,1.64-0.78c0.67,0,1.19,0.24,1.57,0.71s0.56,1.15,0.56,2.01
		C14.27,54.77,14.26,54.92,14.24,55.06z M10.77,54.41h2.66c0-0.56-0.12-1-0.35-1.32c-0.23-0.31-0.55-0.47-0.96-0.47
		C11.31,52.62,10.86,53.22,10.77,54.41z"/>
	<path class="st0" d="M15.85,57.02c-0.42-0.52-0.63-1.24-0.63-2.18c0-0.59,0.1-1.1,0.29-1.55c0.19-0.45,0.47-0.8,0.82-1.04
		c0.35-0.25,0.76-0.37,1.23-0.37c0.53,0,1.03,0.16,1.51,0.47L18.74,53c-0.44-0.24-0.84-0.36-1.2-0.36c-0.46,0-0.82,0.19-1.07,0.57
		c-0.25,0.38-0.38,0.9-0.38,1.57c0,0.73,0.13,1.29,0.4,1.67s0.66,0.57,1.19,0.57c0.41,0,0.8-0.11,1.17-0.34l0.3,0.64
		c-0.19,0.16-0.42,0.27-0.68,0.35c-0.26,0.08-0.55,0.12-0.84,0.12C16.86,57.8,16.27,57.54,15.85,57.02z"/>
	<path class="st0" d="M20.91,57.3c-0.28-0.3-0.42-0.74-0.42-1.32V52.7h-0.9V52h0.91v-1.67h0.83V52h1.59v0.7h-1.59v3.15
		c0,0.4,0.08,0.7,0.23,0.88c0.16,0.18,0.4,0.28,0.73,0.28c0.22,0,0.41-0.03,0.56-0.1l0.14,0.71c-0.21,0.08-0.49,0.13-0.83,0.13
		C21.61,57.74,21.19,57.6,20.91,57.3z"/>
	<path class="st0" d="M26.89,52.04l-0.17,0.8c-0.24-0.07-0.48-0.11-0.72-0.11s-0.45,0.05-0.63,0.16c-0.18,0.11-0.35,0.28-0.5,0.52
		v4.26h-0.84V52h0.75v0.8c0.36-0.61,0.84-0.91,1.45-0.91C26.48,51.9,26.7,51.94,26.89,52.04z"/>
	<path class="st0" d="M27.91,57.05c-0.38-0.5-0.57-1.24-0.57-2.21c0-0.97,0.19-1.7,0.58-2.21c0.38-0.5,0.93-0.76,1.65-0.76
		c0.71,0,1.26,0.25,1.64,0.76c0.38,0.5,0.57,1.24,0.57,2.21c0,0.97-0.19,1.7-0.58,2.21c-0.38,0.5-0.93,0.76-1.65,0.76
		C28.84,57.81,28.29,57.56,27.91,57.05z M30.91,54.84c0-0.73-0.11-1.29-0.34-1.66c-0.23-0.37-0.56-0.56-1.01-0.56
		c-0.9,0-1.36,0.74-1.36,2.22c0,0.73,0.11,1.29,0.34,1.66c0.23,0.37,0.56,0.56,1.01,0.56C30.45,57.07,30.91,56.33,30.91,54.84z"/>
	<path class="st0" d="M36.81,52.33c0.29,0.3,0.44,0.72,0.44,1.25v4.1h-0.84v-4.02c0-0.66-0.36-0.98-1.07-0.98
		c-0.25,0-0.49,0.04-0.7,0.13c-0.21,0.09-0.42,0.22-0.62,0.41v4.47h-0.84v-8.15h0.84v3.01c0.42-0.44,0.95-0.66,1.57-0.66
		C36.11,51.88,36.52,52.03,36.81,52.33z"/>
	<path class="st0" d="M39.18,57.05c-0.38-0.5-0.57-1.24-0.57-2.21c0-0.97,0.19-1.7,0.58-2.21c0.38-0.5,0.93-0.76,1.65-0.76
		c0.71,0,1.26,0.25,1.64,0.76c0.38,0.5,0.57,1.24,0.57,2.21c0,0.97-0.19,1.7-0.58,2.21c-0.38,0.5-0.93,0.76-1.65,0.76
		C40.1,57.81,39.56,57.56,39.18,57.05z M42.17,54.84c0-0.73-0.11-1.29-0.34-1.66c-0.23-0.37-0.56-0.56-1.01-0.56
		c-0.9,0-1.36,0.74-1.36,2.22c0,0.73,0.11,1.29,0.34,1.66c0.23,0.37,0.56,0.56,1.01,0.56C41.72,57.07,42.17,56.33,42.17,54.84z"/>
	<path class="st0" d="M48.39,52v5.77c0,0.7-0.2,1.24-0.6,1.64S46.83,60,46.11,60c-0.28,0-0.56-0.03-0.83-0.09
		c-0.27-0.06-0.49-0.14-0.68-0.25l0.25-0.71c0.4,0.2,0.8,0.3,1.23,0.3c0.48,0,0.84-0.13,1.09-0.38c0.25-0.25,0.37-0.62,0.37-1.1
		v-1.04c-0.36,0.49-0.85,0.74-1.46,0.74c-0.63,0-1.12-0.25-1.47-0.75c-0.35-0.5-0.52-1.19-0.52-2.08c0-0.88,0.19-1.56,0.56-2.04
		c0.37-0.49,0.89-0.73,1.55-0.73c0.29,0,0.56,0.06,0.81,0.19c0.25,0.13,0.46,0.31,0.62,0.54V52H48.39z M47.55,56.05v-2.8
		c-0.17-0.2-0.37-0.35-0.59-0.46c-0.23-0.11-0.46-0.16-0.7-0.16c-0.42,0-0.75,0.17-0.96,0.51s-0.33,0.84-0.33,1.5
		c0,0.68,0.12,1.19,0.34,1.54c0.23,0.35,0.57,0.52,1.01,0.52C46.8,56.7,47.21,56.48,47.55,56.05z"/>
	<path class="st0" d="M53.19,52.33c0.34,0.3,0.51,0.72,0.51,1.25v4.1h-0.74v-0.73c-0.36,0.56-0.9,0.84-1.61,0.84
		c-0.53,0-0.94-0.15-1.23-0.44s-0.44-0.71-0.44-1.24c0-0.67,0.26-1.16,0.77-1.48s1.32-0.48,2.42-0.49v-0.48
		c0-0.33-0.1-0.58-0.3-0.76c-0.2-0.17-0.5-0.26-0.89-0.26c-0.44,0-0.86,0.1-1.27,0.31l-0.21-0.68c0.23-0.12,0.49-0.22,0.76-0.29
		s0.55-0.11,0.83-0.11C52.38,51.88,52.85,52.03,53.19,52.33z M52.87,56.4v-1.62c-0.81,0.01-1.41,0.11-1.79,0.32
		c-0.38,0.2-0.57,0.52-0.57,0.95c0,0.32,0.09,0.57,0.26,0.74s0.43,0.25,0.77,0.25C52.06,57.05,52.5,56.83,52.87,56.4z"/>
	<path class="st0" d="M58.25,52.04l-0.17,0.8c-0.24-0.07-0.48-0.11-0.72-0.11s-0.45,0.05-0.63,0.16c-0.18,0.11-0.35,0.28-0.5,0.52
		v4.26h-0.84V52h0.75v0.8c0.36-0.61,0.84-0.91,1.45-0.91C57.84,51.9,58.06,51.94,58.25,52.04z"/>
</g>
<g>
	<g>
		<path class="st0" d="M25.61,2.1c0.38,0,0.7,0.32,0.7,0.7v34.73c0,0.38-0.32,0.7-0.7,0.7H2.81c-0.38,0-0.7-0.32-0.7-0.7V2.81
			c0-0.38,0.32-0.7,0.7-0.7H25.61 M25.61,0H2.81C1.26,0,0,1.26,0,2.81v34.73c0,1.54,1.26,2.81,2.81,2.81h22.8
			c1.54,0,2.81-1.26,2.81-2.81V2.81C28.41,1.26,27.15,0,25.61,0L25.61,0z"/>
		<path class="st0" d="M9.66,8.8c0.38,0,0.7,0.32,0.7,0.7v8.56c0,0.38-0.32,0.7-0.7,0.7H5.9c-0.38,0-0.7-0.32-0.7-0.7V9.5
			c0-0.38,0.32-0.7,0.7-0.7H9.66 M9.66,7.4H5.9c-1.16,0-2.1,0.95-2.1,2.1v8.56c0,1.16,0.95,2.1,2.1,2.1h3.76
			c1.16,0,2.1-0.95,2.1-2.1V9.5C11.77,8.34,10.82,7.4,9.66,7.4L9.66,7.4z"/>
		<rect x="13.62" y="1.84" class="st0" width="1.67" height="23.94"/>
		
			<rect x="13.04" y="13.29" transform="matrix(8.733884e-11 1 -1 8.733884e-11 40.0457 12.3061)" class="st0" width="1.67" height="25.78"/>
		<path class="st0" d="M18.44,19.12H18.1c-0.37,0-0.68-0.3-0.68-0.68V8.8c0-0.37,0.3-0.68,0.68-0.68h0.34c0.37,0,0.68,0.3,0.68,0.68
			v9.64C19.12,18.81,18.81,19.12,18.44,19.12z"/>
	</g>
	<g>
		<path class="st0" d="M48.39,12.03c0,0.51-0.41,0.92-0.92,0.92s-0.92-0.41-0.92-0.92c0-0.51,0.41-0.92,0.92-0.92
			S48.39,11.52,48.39,12.03"/>
		<path class="st0" d="M55.93,13.49h-2.98c-0.68,0-1.05-0.42-1.05-0.92c0-0.51,0.37-0.92,1.05-0.92h2.98c0.68,0,1.05,0.42,1.05,0.92
			C56.98,13.07,56.61,13.49,55.93,13.49"/>
		<g>
			<g>
				<path class="st0" d="M58.65,40.34H36.28c-0.74,0-1.35-0.6-1.35-1.35v-28.6c0-0.74,0.6-1.35,1.35-1.35h22.37
					c0.74,0,1.35,0.6,1.35,1.35v28.6C60,39.73,59.4,40.34,58.65,40.34z M36.64,38.63h21.65V16.51h-4.2c-1.02,0-2-0.34-3.04-0.7
					c-1.12-0.39-2.28-0.79-3.58-0.79c-1.3,0-2.46,0.4-3.58,0.79c-1.04,0.36-2.02,0.7-3.04,0.7h-4.2V38.63z M47.47,13.32
					c1.59,0,2.94,0.47,4.13,0.88c0.9,0.31,1.75,0.6,2.49,0.6h4.2v-4.06H36.64v4.06h4.2c0.74,0,1.59-0.29,2.49-0.6
					C44.53,13.79,45.88,13.32,47.47,13.32z"/>
			</g>
			<g>
				<path class="st0" d="M47.47,35.2c-4.32,0-7.84-3.52-7.84-7.84c0-4.32,3.52-7.84,7.84-7.84s7.84,3.52,7.84,7.84
					C55.31,31.68,51.79,35.2,47.47,35.2z M47.47,21.27c-3.36,0-6.09,2.73-6.09,6.09c0,3.36,2.73,6.09,6.09,6.09
					c3.36,0,6.09-2.73,6.09-6.09C53.56,24,50.83,21.27,47.47,21.27z"/>
			</g>
		</g>
	</g>
</g>
</svg>
