<!DOCTYPE svg PUBLIC "-//W3C//DTD SVG 20010904//EN" "http://www.w3.org/TR/2001/REC-SVG-20010904/DTD/svg10.dtd">
<svg version="1.0" xmlns="http://www.w3.org/2000/svg" width="113px" height="82px" viewBox="0 0 1130 820" preserveAspectRatio="xMidYMid meet">
<g id="layer101" fill="#ffffff" stroke="none">
 <path d="M366 744 c-14 -13 -16 -60 -16 -360 0 -219 4 -352 10 -365 10 -18 23 -19 205 -19 182 0 195 1 205 19 6 13 10 146 10 365 0 300 -2 347 -16 360 -23 24 -375 24 -398 0z m362 -366 l-3 -333 -160 0 -160 0 -3 333 -2 332 165 0 165 0 -2 -332z"/>
 <path d="M517 94 c-4 -4 -7 -13 -7 -21 0 -9 16 -13 56 -13 47 0 55 3 52 18 -2 13 -15 18 -48 20 -25 2 -49 0 -53 -4z"/>
 <path d="M420 75 c0 -8 7 -15 15 -15 8 0 15 7 15 15 0 8 -7 15 -15 15 -8 0 -15 -7 -15 -15z"/>
 <path d="M680 75 c0 -8 7 -15 15 -15 8 0 15 7 15 15 0 8 -7 15 -15 15 -8 0 -15 -7 -15 -15z"/>
 </g>

</svg>