<!DOCTYPE svg PUBLIC "-//W3C//DTD SVG 20010904//EN" "http://www.w3.org/TR/2001/REC-SVG-20010904/DTD/svg10.dtd">
<svg version="1.0" xmlns="http://www.w3.org/2000/svg" width="113px" height="82px" viewBox="0 0 1130 820" preserveAspectRatio="xMidYMid meet">
<g id="layer101" fill="#ffffff" stroke="none">
 <path d="M300 761 c-14 -27 -14 -695 0 -722 10 -18 24 -19 265 -19 241 0 255 1 265 19 14 27 14 695 0 722 -10 18 -24 19 -265 19 -241 0 -255 -1 -265 -19z m490 -131 l0 -100 -225 0 -225 0 0 100 0 100 225 0 225 0 0 -100z m-240 -355 l0 -216 -102 3 -103 3 -3 213 -2 212 105 0 105 0 0 -215z m238 3 l-3 -213 -97 -3 -98 -3 0 216 0 215 100 0 100 0 -2 -212z"/>
 <path d="M372 388 c-8 -8 -12 -45 -12 -108 0 -115 10 -130 81 -130 75 0 80 8 77 135 l-3 110 -65 3 c-42 2 -70 -2 -78 -10z m113 -108 l0 -85 -42 -3 -43 -3 0 91 0 91 43 -3 42 -3 0 -85z"/>
 <path d="M620 275 c0 -98 1 -105 20 -105 19 0 20 7 20 105 0 98 -1 105 -20 105 -19 0 -20 -7 -20 -105z"/>
 </g>

</svg>