<!DOCTYPE svg PUBLIC "-//W3C//DTD SVG 20010904//EN" "http://www.w3.org/TR/2001/REC-SVG-20010904/DTD/svg10.dtd">
<svg version="1.0" xmlns="http://www.w3.org/2000/svg" width="113px" height="82px" viewBox="0 0 1130 820" preserveAspectRatio="xMidYMid meet">
<g id="layer101" fill="#ffffff" stroke="none">
 <path d="M370 660 c0 -11 4 -20 9 -20 5 0 46 -14 90 -31 62 -24 81 -35 81 -50 0 -18 -9 -19 -150 -19 -137 0 -150 -2 -160 -19 -13 -26 -13 -386 0 -412 10 -18 25 -19 330 -19 305 0 320 1 330 19 13 26 13 386 0 412 -10 17 -23 19 -160 19 -141 0 -150 1 -150 19 0 15 19 26 81 50 44 17 85 31 90 31 5 0 9 9 9 20 0 27 -11 26 -113 -14 l-87 -35 -87 35 c-102 40 -113 41 -113 14z m488 -347 l-3 -178 -285 0 -285 0 -3 178 -2 177 290 0 290 0 -2 -177z"/>
 </g>

</svg>