<?xml version="1.0" encoding="utf-8"?>
<!-- Generator: Adobe Illustrator 23.0.2, SVG Export Plug-In . SVG Version: 6.00 Build 0)  -->
<svg version="1.1" id="Capa_1" xmlns="http://www.w3.org/2000/svg" xmlns:xlink="http://www.w3.org/1999/xlink" x="0px" y="0px"
	 viewBox="0 0 60 60" style="enable-background:new 0 0 60 60;" xml:space="preserve">
<style type="text/css">
	.st0{fill:#FFFFFF;}
</style>
<g>
	<path class="st0" d="M1.63,57.73c-0.39-0.11-0.75-0.26-1.06-0.46l0.29-0.72c0.66,0.38,1.31,0.57,1.95,0.57
		c0.49,0,0.88-0.12,1.14-0.35c0.27-0.23,0.4-0.56,0.4-0.97c0-0.36-0.09-0.65-0.26-0.87c-0.17-0.22-0.45-0.38-0.83-0.48l-0.87-0.24
		c-0.61-0.17-1.05-0.42-1.33-0.76c-0.28-0.34-0.42-0.78-0.42-1.34c0-0.64,0.21-1.16,0.62-1.55c0.42-0.39,0.97-0.58,1.67-0.58
		c0.32,0,0.66,0.04,1.02,0.12c0.36,0.08,0.71,0.2,1.05,0.35l-0.3,0.72c-0.73-0.29-1.33-0.43-1.8-0.43c-0.44,0-0.79,0.11-1.04,0.33
		c-0.25,0.22-0.37,0.52-0.37,0.91c0,0.36,0.09,0.65,0.26,0.86c0.17,0.22,0.45,0.37,0.82,0.47l0.87,0.24
		c0.61,0.17,1.05,0.42,1.33,0.76s0.42,0.79,0.42,1.34c0,0.67-0.22,1.21-0.65,1.61s-1.02,0.6-1.75,0.6
		C2.41,57.89,2.02,57.84,1.63,57.73z"/>
	<path class="st0" d="M13.22,52.42c0.28,0.3,0.42,0.72,0.42,1.26v4.1h-0.84v-4.02c0-0.32-0.08-0.57-0.25-0.74s-0.42-0.25-0.75-0.25
		c-0.24,0-0.46,0.05-0.67,0.14c-0.21,0.09-0.41,0.23-0.61,0.42c0.01,0.14,0.02,0.26,0.02,0.35v4.1H9.7v-4.02
		c0-0.66-0.34-0.98-1.02-0.98c-0.24,0-0.46,0.04-0.66,0.13c-0.2,0.09-0.4,0.22-0.61,0.41v4.47H6.58V52.1h0.75v0.62
		c0.42-0.5,0.96-0.75,1.6-0.75c0.35,0,0.64,0.07,0.89,0.22c0.25,0.14,0.43,0.35,0.55,0.62c0.48-0.56,1.04-0.84,1.67-0.84
		C12.55,51.97,12.94,52.12,13.22,52.42z"/>
	<path class="st0" d="M18.39,52.43c0.34,0.3,0.51,0.72,0.51,1.25v4.1h-0.74v-0.73c-0.36,0.56-0.9,0.84-1.61,0.84
		c-0.53,0-0.94-0.15-1.23-0.44s-0.44-0.71-0.44-1.24c0-0.67,0.26-1.16,0.77-1.48c0.51-0.32,1.32-0.48,2.42-0.49v-0.48
		c0-0.33-0.1-0.58-0.3-0.76c-0.2-0.17-0.5-0.26-0.9-0.26c-0.44,0-0.86,0.1-1.27,0.31l-0.21-0.68c0.23-0.12,0.49-0.22,0.76-0.29
		c0.28-0.07,0.55-0.11,0.83-0.11C17.58,51.97,18.05,52.12,18.39,52.43z M18.07,56.5v-1.62c-0.81,0.01-1.41,0.11-1.79,0.32
		c-0.38,0.2-0.57,0.52-0.57,0.95c0,0.32,0.09,0.57,0.26,0.74c0.18,0.17,0.43,0.25,0.77,0.25C17.26,57.14,17.7,56.93,18.07,56.5z"/>
	<path class="st0" d="M23.45,52.13l-0.17,0.8c-0.24-0.07-0.48-0.11-0.72-0.11c-0.24,0-0.45,0.05-0.64,0.16
		c-0.18,0.11-0.35,0.28-0.5,0.52v4.26h-0.84V52.1h0.75v0.8c0.36-0.61,0.84-0.91,1.45-0.91C23.04,51.99,23.26,52.04,23.45,52.13z"/>
	<path class="st0" d="M25.13,57.4c-0.28-0.3-0.42-0.74-0.42-1.32V52.8h-0.9v-0.7h0.91v-1.67h0.83v1.67h1.59v0.7h-1.59v3.15
		c0,0.4,0.08,0.7,0.23,0.88c0.16,0.18,0.4,0.28,0.73,0.28c0.22,0,0.41-0.03,0.56-0.1l0.14,0.71c-0.21,0.08-0.49,0.13-0.83,0.13
		C25.83,57.84,25.42,57.69,25.13,57.4z"/>
	<path class="st0" d="M32,52.77c0.35,0.53,0.52,1.26,0.52,2.2c0,0.93-0.18,1.65-0.55,2.16c-0.37,0.52-0.88,0.77-1.55,0.77
		c-0.27,0-0.52-0.05-0.75-0.16s-0.43-0.26-0.59-0.46v2.69h-0.84v-2.89v-4.54V52.1h0.75v0.43v0.32c0.37-0.59,0.88-0.88,1.52-0.88
		C31.16,51.97,31.65,52.24,32,52.77z M31.33,56.6c0.22-0.37,0.33-0.91,0.33-1.62c0-0.73-0.11-1.28-0.34-1.65
		c-0.23-0.37-0.57-0.56-1.02-0.56c-0.24,0-0.46,0.05-0.65,0.16c-0.19,0.11-0.37,0.27-0.55,0.5v3.11c0.17,0.19,0.37,0.34,0.59,0.45
		c0.22,0.11,0.45,0.16,0.68,0.16C30.79,57.15,31.11,56.97,31.33,56.6z"/>
	<path class="st0" d="M37.55,52.43c0.29,0.3,0.44,0.72,0.44,1.25v4.1h-0.84v-4.02c0-0.66-0.36-0.98-1.07-0.98
		c-0.25,0-0.49,0.04-0.7,0.13c-0.21,0.09-0.42,0.22-0.62,0.41v4.47h-0.84v-8.15h0.84v3.01c0.42-0.44,0.95-0.66,1.57-0.66
		C36.85,51.97,37.26,52.12,37.55,52.43z"/>
	<path class="st0" d="M39.92,57.15c-0.38-0.5-0.57-1.24-0.57-2.21c0-0.97,0.19-1.7,0.58-2.21c0.38-0.5,0.93-0.76,1.65-0.76
		c0.71,0,1.26,0.25,1.64,0.76c0.38,0.5,0.57,1.24,0.57,2.21c0,0.97-0.19,1.7-0.58,2.21c-0.38,0.5-0.93,0.76-1.65,0.76
		C40.85,57.9,40.3,57.65,39.92,57.15z M42.92,54.94c0-0.73-0.11-1.29-0.34-1.66c-0.23-0.37-0.56-0.56-1.01-0.56
		c-0.9,0-1.36,0.74-1.36,2.22c0,0.73,0.11,1.29,0.34,1.66c0.23,0.37,0.56,0.56,1.01,0.56C42.46,57.16,42.92,56.42,42.92,54.94z"/>
	<path class="st0" d="M48.8,52.43c0.29,0.3,0.44,0.72,0.44,1.25v4.1H48.4v-4.02c0-0.66-0.36-0.98-1.07-0.98
		c-0.25,0-0.47,0.04-0.68,0.13c-0.21,0.09-0.41,0.22-0.62,0.41v4.47h-0.84V52.1h0.75v0.62c0.44-0.5,0.98-0.75,1.64-0.75
		C48.1,51.97,48.51,52.12,48.8,52.43z"/>
	<path class="st0" d="M54.89,55.16h-3.47c0.03,0.64,0.18,1.13,0.45,1.46c0.27,0.33,0.66,0.5,1.16,0.5c0.49,0,0.94-0.14,1.33-0.42
		l0.32,0.65c-0.22,0.18-0.48,0.31-0.77,0.41c-0.3,0.1-0.61,0.14-0.93,0.14c-0.76,0-1.35-0.26-1.77-0.78
		c-0.42-0.52-0.64-1.24-0.64-2.18s0.2-1.66,0.59-2.18c0.39-0.52,0.94-0.78,1.64-0.78c0.67,0,1.19,0.24,1.57,0.71
		c0.37,0.48,0.56,1.15,0.56,2.01C54.93,54.86,54.92,55.02,54.89,55.16z M51.43,54.5h2.66c0-0.56-0.12-1-0.35-1.32
		c-0.23-0.31-0.55-0.47-0.96-0.47C51.96,52.71,51.52,53.31,51.43,54.5z"/>
	<path class="st0" d="M56.58,57.76c-0.31-0.09-0.59-0.21-0.83-0.38l0.3-0.69c0.49,0.31,1,0.47,1.52,0.47c0.38,0,0.67-0.08,0.86-0.23
		c0.19-0.16,0.29-0.38,0.29-0.68c0-0.23-0.06-0.42-0.17-0.56c-0.12-0.14-0.3-0.24-0.56-0.31l-0.75-0.18
		c-0.49-0.11-0.84-0.3-1.07-0.55c-0.23-0.25-0.34-0.59-0.34-1.01c0-0.52,0.17-0.93,0.5-1.22c0.33-0.29,0.79-0.44,1.39-0.44
		c0.29,0,0.58,0.04,0.87,0.12c0.29,0.08,0.56,0.18,0.79,0.31l-0.32,0.7c-0.49-0.25-0.94-0.38-1.37-0.38c-0.69,0-1.04,0.28-1.04,0.85
		c0,0.23,0.06,0.4,0.17,0.53c0.12,0.13,0.31,0.23,0.57,0.29l0.75,0.18c0.49,0.11,0.84,0.3,1.06,0.56c0.22,0.26,0.33,0.61,0.33,1.05
		c0,0.54-0.17,0.95-0.52,1.26c-0.35,0.3-0.83,0.45-1.45,0.45C57.23,57.89,56.9,57.85,56.58,57.76z"/>
</g>
<g>
	<path class="st0" d="M38.26,2.1c0.38,0,0.7,0.32,0.7,0.7v34.73c0,0.38-0.32,0.7-0.7,0.7H21.88c-0.38,0-0.7-0.32-0.7-0.7V2.81
		c0-0.38,0.32-0.7,0.7-0.7H38.26 M38.26,0H21.88c-1.54,0-2.81,1.26-2.81,2.81v34.73c0,1.54,1.26,2.81,2.81,2.81h16.37
		c1.54,0,2.81-1.26,2.81-2.81V2.81C41.06,1.26,39.8,0,38.26,0L38.26,0z"/>
	<g>
		<circle class="st0" cx="23.38" cy="4.03" r="0.58"/>
		<circle class="st0" cx="36.76" cy="4.03" r="0.58"/>
	</g>
	<path class="st0" d="M32.18,4.82h-4.22c-0.35,0-0.63-0.28-0.63-0.63V3.88c0-0.35,0.28-0.63,0.63-0.63h4.22
		c0.35,0,0.63,0.28,0.63,0.63l0,0.32C32.81,4.54,32.53,4.82,32.18,4.82z"/>
</g>
</svg>
