<?xml version="1.0" encoding="utf-8"?>
<!-- Generator: Adobe Illustrator 23.0.2, SVG Export Plug-In . SVG Version: 6.00 Build 0)  -->
<svg version="1.1" id="Capa_1" xmlns="http://www.w3.org/2000/svg" xmlns:xlink="http://www.w3.org/1999/xlink" x="0px" y="0px"
	 viewBox="0 0 60 60" style="enable-background:new 0 0 60 60;" xml:space="preserve">
<style type="text/css">
	.st0{fill:#FFFFFF;}
</style>
<g>
	<path class="st0" d="M10.31,50.92H8.41v6.89H7.55v-6.89H5.64v-0.77h2.76h1.91V50.92z"/>
	<path class="st0" d="M14.65,55.19h-3.47c0.03,0.64,0.18,1.13,0.45,1.46c0.27,0.33,0.66,0.5,1.16,0.5c0.49,0,0.94-0.14,1.33-0.42
		l0.32,0.65c-0.22,0.18-0.48,0.31-0.77,0.41c-0.3,0.1-0.61,0.14-0.93,0.14c-0.75,0-1.34-0.26-1.77-0.78s-0.63-1.24-0.63-2.18
		s0.2-1.66,0.59-2.18c0.39-0.52,0.94-0.78,1.64-0.78c0.67,0,1.19,0.24,1.57,0.71s0.56,1.15,0.56,2.01
		C14.69,54.9,14.68,55.05,14.65,55.19z M11.19,54.54h2.66c0-0.56-0.12-1-0.35-1.32c-0.23-0.31-0.55-0.47-0.96-0.47
		C11.73,52.75,11.28,53.34,11.19,54.54z"/>
	<path class="st0" d="M16.32,57.56c-0.21-0.2-0.31-0.5-0.31-0.89v-7.01h0.84v6.94c0,0.19,0.04,0.33,0.13,0.41
		c0.08,0.08,0.22,0.12,0.39,0.12c0.13,0,0.26-0.01,0.39-0.04l0.07,0.7c-0.21,0.06-0.43,0.08-0.65,0.08
		C16.81,57.86,16.52,57.76,16.32,57.56z"/>
	<path class="st0" d="M22.87,55.19H19.4c0.03,0.64,0.18,1.13,0.45,1.46c0.27,0.33,0.66,0.5,1.16,0.5c0.49,0,0.94-0.14,1.33-0.42
		l0.32,0.65c-0.22,0.18-0.48,0.31-0.77,0.41c-0.3,0.1-0.61,0.14-0.93,0.14c-0.75,0-1.34-0.26-1.77-0.78s-0.63-1.24-0.63-2.18
		s0.2-1.66,0.59-2.18c0.39-0.52,0.94-0.78,1.64-0.78c0.67,0,1.19,0.24,1.57,0.71s0.56,1.15,0.56,2.01
		C22.9,54.9,22.89,55.05,22.87,55.19z M19.41,54.54h2.66c0-0.56-0.12-1-0.35-1.32c-0.23-0.31-0.55-0.47-0.96-0.47
		C19.94,52.75,19.49,53.34,19.41,54.54z"/>
	<path class="st0" d="M28.19,52.13l-1.84,5.68h-0.92l-1.84-5.68h0.9l1.42,4.8l1.4-4.8H28.19z"/>
	<path class="st0" d="M29.41,50.98c-0.1-0.1-0.15-0.25-0.15-0.43c0-0.18,0.05-0.33,0.15-0.43c0.1-0.11,0.24-0.16,0.41-0.16
		c0.18,0,0.31,0.05,0.41,0.15c0.1,0.1,0.15,0.25,0.15,0.43c0,0.18-0.05,0.33-0.15,0.43c-0.1,0.11-0.24,0.16-0.41,0.16
		C29.64,51.14,29.51,51.09,29.41,50.98z M29.4,52.13h0.84v5.68H29.4V52.13z"/>
	<path class="st0" d="M32.32,57.79c-0.31-0.09-0.59-0.21-0.83-0.38l0.3-0.69c0.49,0.31,1,0.47,1.53,0.47c0.38,0,0.67-0.08,0.86-0.23
		c0.19-0.16,0.29-0.38,0.29-0.68c0-0.23-0.06-0.42-0.17-0.56c-0.12-0.14-0.3-0.24-0.56-0.31l-0.75-0.18
		c-0.49-0.11-0.84-0.3-1.07-0.55c-0.23-0.25-0.34-0.59-0.34-1.01c0-0.52,0.17-0.93,0.5-1.22c0.33-0.29,0.79-0.44,1.39-0.44
		c0.29,0,0.58,0.04,0.87,0.12c0.29,0.08,0.56,0.18,0.79,0.31l-0.32,0.7c-0.49-0.25-0.94-0.38-1.37-0.38c-0.69,0-1.04,0.28-1.04,0.85
		c0,0.23,0.06,0.4,0.17,0.53c0.12,0.13,0.31,0.23,0.57,0.29l0.75,0.18c0.49,0.11,0.84,0.3,1.06,0.56c0.22,0.26,0.33,0.61,0.33,1.05
		c0,0.54-0.17,0.95-0.52,1.26c-0.35,0.3-0.83,0.45-1.45,0.45C32.97,57.93,32.64,57.88,32.32,57.79z"/>
	<path class="st0" d="M36.83,57.18c-0.38-0.5-0.57-1.24-0.57-2.21c0-0.97,0.19-1.7,0.58-2.21c0.38-0.5,0.93-0.76,1.65-0.76
		c0.71,0,1.26,0.25,1.64,0.76c0.38,0.5,0.57,1.24,0.57,2.21c0,0.97-0.19,1.7-0.58,2.21c-0.38,0.5-0.93,0.76-1.65,0.76
		C37.76,57.94,37.21,57.68,36.83,57.18z M39.83,54.97c0-0.73-0.11-1.29-0.34-1.66c-0.23-0.37-0.56-0.56-1.01-0.56
		c-0.9,0-1.36,0.74-1.36,2.22c0,0.73,0.11,1.29,0.34,1.66c0.23,0.37,0.56,0.56,1.01,0.56C39.38,57.2,39.83,56.45,39.83,54.97z"/>
	<path class="st0" d="M44.96,52.17l-0.17,0.8c-0.24-0.07-0.48-0.11-0.72-0.11s-0.45,0.05-0.63,0.16c-0.18,0.11-0.35,0.28-0.5,0.52
		v4.26H42.1v-5.68h0.75v0.8c0.36-0.61,0.84-0.91,1.45-0.91C44.56,52.03,44.77,52.07,44.96,52.17z"/>
	<path class="st0" d="M49.71,55.19h-3.47c0.03,0.64,0.18,1.13,0.45,1.46c0.27,0.33,0.66,0.5,1.16,0.5c0.49,0,0.94-0.14,1.33-0.42
		l0.32,0.65c-0.22,0.18-0.48,0.31-0.77,0.41c-0.3,0.1-0.61,0.14-0.93,0.14c-0.75,0-1.34-0.26-1.77-0.78s-0.63-1.24-0.63-2.18
		s0.2-1.66,0.59-2.18c0.39-0.52,0.94-0.78,1.64-0.78c0.67,0,1.19,0.24,1.57,0.71s0.56,1.15,0.56,2.01
		C49.74,54.9,49.73,55.05,49.71,55.19z M46.25,54.54h2.66c0-0.56-0.12-1-0.35-1.32c-0.23-0.31-0.55-0.47-0.96-0.47
		C46.78,52.75,46.33,53.34,46.25,54.54z"/>
	<path class="st0" d="M51.4,57.79c-0.31-0.09-0.59-0.21-0.83-0.38l0.3-0.69c0.49,0.31,1,0.47,1.53,0.47c0.38,0,0.67-0.08,0.86-0.23
		c0.19-0.16,0.29-0.38,0.29-0.68c0-0.23-0.06-0.42-0.17-0.56c-0.12-0.14-0.3-0.24-0.56-0.31l-0.75-0.18
		c-0.49-0.11-0.84-0.3-1.07-0.55c-0.23-0.25-0.34-0.59-0.34-1.01c0-0.52,0.17-0.93,0.5-1.22c0.33-0.29,0.79-0.44,1.39-0.44
		c0.29,0,0.58,0.04,0.87,0.12c0.29,0.08,0.56,0.18,0.79,0.31l-0.32,0.7c-0.49-0.25-0.94-0.38-1.37-0.38c-0.69,0-1.04,0.28-1.04,0.85
		c0,0.23,0.06,0.4,0.17,0.53c0.12,0.13,0.31,0.23,0.57,0.29l0.75,0.18c0.49,0.11,0.84,0.3,1.06,0.56c0.22,0.26,0.33,0.61,0.33,1.05
		c0,0.54-0.17,0.95-0.52,1.26c-0.35,0.3-0.83,0.45-1.45,0.45C52.04,57.93,51.71,57.88,51.4,57.79z"/>
</g>
<g>
	<path class="st0" d="M44.88,11.97c0.38,0,0.7,0.32,0.7,0.7v18.09c0,0.38-0.32,0.7-0.7,0.7H15.12c-0.38,0-0.7-0.32-0.7-0.7V12.67
		c0-0.38,0.32-0.7,0.7-0.7H44.88 M44.88,9.86H15.12c-1.54,0-2.81,1.26-2.81,2.81v18.09c0,1.54,1.26,2.81,2.81,2.81h29.76
		c1.54,0,2.81-1.26,2.81-2.81V12.67C47.68,11.12,46.42,9.86,44.88,9.86L44.88,9.86z"/>
	<g>
		<rect x="29.23" y="33.32" class="st0" width="1.53" height="3.73"/>
		<g>
			<path class="st0" d="M29.87,37.12l-9.42,3.55c-0.29,0.11-0.61-0.04-0.72-0.33l-0.1-0.26c-0.11-0.29,0.04-0.61,0.33-0.72
				l9.42-3.55c0.29-0.11,0.61,0.04,0.72,0.33l0.1,0.26C30.3,36.69,30.16,37.01,29.87,37.12z"/>
			<path class="st0" d="M30.13,37.12l9.42,3.55c0.29,0.11,0.61-0.04,0.72-0.33l0.1-0.26c0.11-0.29-0.04-0.61-0.33-0.72l-9.42-3.55
				c-0.29-0.11-0.61,0.04-0.72,0.33l-0.1,0.26C29.7,36.69,29.84,37.01,30.13,37.12z"/>
		</g>
	</g>
</g>
</svg>
